<?xml version="1.0" encoding="UTF-8"?>
<svg width="34px" height="34px" viewBox="0 0 34 34" version="1.1" xmlns="http://www.w3.org/2000/svg" xmlns:xlink="http://www.w3.org/1999/xlink">
    <title>编组 14</title>
    <g id="主要" stroke="none" stroke-width="1" fill="none" fill-rule="evenodd">
        <g id="首页v3" transform="translate(-1070.000000, -8170.000000)">
            <g id="编组-39" transform="translate(497.000000, 8170.000000)">
                <g id="编组-14" transform="translate(573.000000, 0.000000)">
                    <g id="编组-18">
                        <rect id="矩形" stroke="#979797" fill="#D8D8D8" opacity="0" x="0.5" y="0.5" width="33" height="33"></rect>
                        <g id="编组" transform="translate(3.000000, 2.000000)"></g>
                    </g>
                    <path d="M27.2686643,0 C29.2810379,0 30.9041045,1.61075 31,3.50625 L31,34 L27.168475,30.7799167 L25.0644998,28.8844167 L22.7687335,26.9039167 L23.7276883,30.0276667 L3.63544022,30.0276667 C1.6287917,30.0276667 0,28.5189167 0,26.52 L0,3.51333332 C0,1.61783332 1.63165428,0.00425 3.64259662,0.00425 L27.2586454,0.00425 L27.2686643,0 Z M18.4894628,8.00386215 L18.4460744,8.00386215 L18.1539256,8.26133887 C21.1520661,9.03376905 22.602686,10.2400475 22.602686,10.2400475 C20.6704545,9.38007527 18.9291322,8.95008913 17.1878099,8.77629234 C15.9295455,8.60249554 14.671281,8.69389977 13.6082645,8.77629234 L13.3190082,8.77629234 C12.6392562,8.77629234 11.1929752,9.03376905 9.25495867,9.72251931 C8.57954545,9.98385818 8.19194214,10.1550802 8.19194214,10.1550802 C8.19194214,10.1550802 9.64111569,8.86512181 12.8345041,8.17637155 L12.6392562,8.00257476 C12.6392562,8.00257476 10.2210744,7.92018219 7.61053718,9.63755199 C7.61053718,9.63755199 5,13.6850862 5,18.6749851 C5,18.6749851 6.446281,20.9150327 10.4134297,21 C10.4134297,21 10.9919421,20.3138245 11.577686,19.7100416 C9.35041321,19.107546 8.48264462,17.902555 8.48264462,17.902555 C8.48264462,17.902555 8.67644626,17.9875223 8.96714874,18.1600317 L9.0539256,18.1600317 C9.09731403,18.1600317 9.11756195,18.1793424 9.14070246,18.1986532 L9.14070246,18.2063775 C9.16384296,18.2269756 9.18409089,18.244999 9.22747932,18.244999 C9.70475204,18.4200832 10.1820248,18.5925926 10.5725206,18.7599525 C11.4076485,19.0781704 12.2811732,19.3097086 13.1758264,19.4499901 C14.5208677,19.6237869 16.0626033,19.7074668 17.8183884,19.4499901 C18.686157,19.2761933 19.5539256,19.1062587 20.4216942,18.7612398 C20.9857438,18.5037631 21.6799587,18.2462864 22.4421488,17.8124381 C22.4421488,17.8124381 21.5743802,19.0174292 19.2530992,19.6199247 C19.7303719,20.2198455 20.4028926,20.9073084 20.4028926,20.9073084 C24.3714876,20.8300654 25.9132231,18.5900178 26,18.6852842 C26,13.7031095 23.375,9.64785105 23.375,9.64785105 C21.0103306,8.08496732 18.7975207,8.02574766 18.4070248,8.02574766 L18.4880165,8 L18.4894628,8.00386215 Z M19.5,13 C20.330315,13 21,13.8971963 21,14.9962617 C21,16.1028037 20.3267717,17 19.5,17 C18.6732283,17 18,16.1028037 18,15.0052337 C18.0023622,13.8986916 18.6767717,13.004486 19.5,13.004486 L19.5,13 Z M11.5047244,13 C12.3314961,13 13,13.8971963 13,14.9962617 C13,16.1028037 12.3267717,17 11.5,17 C10.6732283,17 10,16.1028037 10,15.0052337 C10,13.8986916 10.6732283,13.004486 11.5,13.004486 L11.5047244,13 Z" id="形状" fill="#8AFA0F" fill-rule="nonzero"></path>
                </g>
            </g>
        </g>
    </g>
</svg>