<?xml version="1.0" encoding="UTF-8"?>
<svg width="34px" height="34px" viewBox="0 0 34 34" version="1.1" xmlns="http://www.w3.org/2000/svg" xmlns:xlink="http://www.w3.org/1999/xlink">
    <title>邮箱</title>
    <g id="主要" stroke="none" stroke-width="1" fill="none" fill-rule="evenodd">
        <g id="首页v3" transform="translate(-1206.000000, -8170.000000)">
            <g id="编组-39" transform="translate(497.000000, 8170.000000)">
                <g id="邮箱" transform="translate(709.000000, 0.000000)">
                    <rect id="矩形" stroke="#979797" fill="#D8D8D8" opacity="0" x="0.5" y="0.5" width="33" height="33"></rect>
                    <path d="M16.9989353,18.5453906 L1.16477735,5.05489092 C1.24995303,5.03589022 1.32661114,5 1.4139162,5 L32.5860838,5 C32.6393186,5 32.7521764,5.03800141 32.837352,5.05277973 L16.9989353,18.5453906 Z M34,6.92118227 L34,27.2012667 C34,27.3279381 33.9616709,27.4377199 33.9318595,27.5538353 L22.6886704,16.0562984 L33.9148243,6.49049965 C33.9595416,6.62772695 34,6.76917664 34,6.92118227 Z M0.083046283,6.48838846 L11.313459,16.0562984 L0.0702699317,27.5538353 C0.0425878374,27.4398311 0,27.3279381 0,27.2012667 L0,6.92118227 C0,6.76706545 0.0425878374,6.62772695 0.0851756748,6.48838846 L0.083046283,6.48838846 Z M21.594163,17.3377903 L32.9310453,28.9282196 C32.8181875,28.9577762 32.7074591,29 32.5839544,29 L1.4139162,29 C1.29467026,29 1.18394188,28.9577762 1.0732135,28.9282196 L12.4079664,17.3377903 L16.5453748,20.8634764 C16.8048984,21.0891856 17.1929722,21.0891856 17.4524958,20.8634764 L21.594163,17.3377903 L21.594163,17.3377903 Z" id="形状" fill="#8AFA0F" fill-rule="nonzero"></path>
                </g>
            </g>
        </g>
    </g>
</svg>