<?xml version="1.0" encoding="UTF-8"?>
<svg width="34px" height="34px" viewBox="0 0 34 34" version="1.1" xmlns="http://www.w3.org/2000/svg" xmlns:xlink="http://www.w3.org/1999/xlink">
    <title>ins</title>
    <g id="主要" stroke="none" stroke-width="1" fill="none" fill-rule="evenodd">
        <g id="首页v3" transform="translate(-628.000000, -8170.000000)">
            <g id="编组-39" transform="translate(497.000000, 8170.000000)">
                <g id="ins" transform="translate(131.000000, 0.000000)">
                    <circle id="椭圆形" fill="#8AFA0F" cx="17" cy="17" r="17"></circle>
                    <g id="编组-17" transform="translate(7.500000, 7.500000)" fill-rule="nonzero">
                        <g id="编组">
                            <path d="M18.9989394,9.5 C18.9989394,8.18811364 19.0108222,6.8881103 18.9371488,5.57860055 C18.8634754,4.05757288 18.5164974,2.70766083 17.4042666,1.59540935 C16.2896593,0.48078126 14.9421489,0.136173429 13.4211496,0.0624986513 C12.1092876,-0.0111761263 10.8093085,0.000706902358 9.49982314,0.000706902358 C8.1879612,0.000706902358 6.88798207,-0.0111761263 5.57849669,0.0624986513 C4.05749734,0.136173429 2.70761042,0.483157865 1.59537964,1.59540935 C0.480772309,2.71003743 0.136170894,4.05757288 0.0624974878,5.57860055 C-0.0111759182,6.89048691 0.000706889198,8.19049024 0.000706889198,9.5 C0.000706889198,10.8095098 -0.0111759182,12.1118897 0.0624974878,13.4213995 C0.136170894,14.9424271 0.48314887,16.2923392 1.59537964,17.4045907 C2.70998698,18.5192187 4.05749734,18.8638266 5.57849669,18.9375013 C6.89035863,19.0111761 8.19033776,18.9992931 9.49982314,18.9992931 C10.8116851,18.9992931 12.1116642,19.0111761 13.4211496,18.9375013 C14.9421489,18.8638266 16.2920359,18.5168421 17.4042666,17.4045907 C18.518874,16.2899626 18.8634754,14.9424271 18.9371488,13.4213995 C19.0131988,12.1118897 18.9989394,10.8118864 18.9989394,9.5 Z" id="形状" fill="#000000"></path>
                            <path d="M9.83622722,4.3254717 C7.15991426,4.3254717 5,6.48584906 5,9.16273585 C5,11.8396226 7.15991426,14 9.83622722,14 C12.5125402,14 14.6724544,11.8396226 14.6724544,9.16273585 C14.6724544,6.48584906 12.5125402,4.3254717 9.83622722,4.3254717 Z M9.83622722,12.5674978 C7.96183898,12.5674978 6.43219517,11.037526 6.43219517,9.16273585 C6.43219517,7.28794572 7.96183898,5.75797394 9.83622722,5.75797394 C11.7106155,5.75797394 13.2402593,7.28794572 13.2402593,9.16273585 C13.2402593,11.037526 11.7106155,12.5674978 9.83622722,12.5674978 Z M14.8705252,3 C14.2456592,3 13.7410504,3.50471698 13.7410504,4.12971698 C13.7410504,4.75471698 14.2456592,5.25943396 14.8705252,5.25943396 C15.4953912,5.25943396 16,4.75707547 16,4.12971698 C15.997642,3.50235849 15.4953912,3 14.8705252,3 L14.8705252,3 Z" id="形状" fill="#85FF00"></path>
                        </g>
                    </g>
                </g>
            </g>
        </g>
    </g>
</svg>