<?xml version="1.0" encoding="UTF-8"?>
<svg width="34px" height="34px" viewBox="0 0 34 34" version="1.1" xmlns="http://www.w3.org/2000/svg" xmlns:xlink="http://www.w3.org/1999/xlink">
    <title>编组</title>
    <g id="主要" stroke="none" stroke-width="1" fill="none" fill-rule="evenodd">
        <g id="首页v3" transform="translate(-779.000000, -8170.000000)" fill="#8AFA0F" fill-rule="nonzero">
            <g id="编组-39" transform="translate(497.000000, 8170.000000)">
                <g id="编组" transform="translate(282.000000, 0.000000)">
                    <path d="M22.5591518,24.7979911 L25.3482143,11.6495536 C25.4620536,11.093006 25.3956473,10.6945685 25.1489955,10.4542411 C24.9023437,10.2139137 24.5766369,10.1696429 24.171875,10.3214286 L7.77901785,16.6395089 C7.41220236,16.7786458 7.16238838,16.9367559 7.0295759,17.1138393 C6.89676342,17.2909226 6.88095241,17.4585193 6.98214285,17.6166295 C7.08333329,17.7747396 7.28571425,17.8980655 7.58928573,17.9866072 L11.7823661,19.2957589 L21.515625,13.1674107 C21.78125,12.9903274 21.9836309,12.952381 22.1227678,13.0535714 C22.2113095,13.1168155 22.1860119,13.2116816 22.046875,13.3381697 L14.1729911,20.453125 L13.8694197,24.7790178 C14.1603423,24.7790178 14.4449405,24.6398809 14.7232143,24.3616072 L16.7723214,22.3883928 L21.0223214,25.5189732 C21.8318452,25.9743304 22.344122,25.734003 22.5591518,24.7979911 L22.5591518,24.7979911 Z M34,17 C34,19.3020833 33.5509673,21.5029762 32.6529018,23.6026786 C31.7548363,25.702381 30.546875,27.5111607 29.0290178,29.0290178 C27.5111607,30.546875 25.702381,31.7548363 23.6026786,32.6529018 C21.5029762,33.5509673 19.3020833,34 17,34 C14.6979167,34 12.4970238,33.5509673 10.3973214,32.6529018 C8.29761904,31.7548363 6.48883928,30.546875 4.97098215,29.0290178 C3.45312502,27.5111607 2.24516371,25.702381 1.34709823,23.6026786 C0.449032743,21.5029762 0,19.3020833 0,17 C0,14.6979167 0.449032743,12.4970238 1.34709823,10.3973214 C2.24516371,8.29761904 3.45312502,6.48883928 4.97098215,4.97098215 C6.48883928,3.45312502 8.29761904,2.24516371 10.3973214,1.34709823 C12.4970238,0.449032743 14.6979167,0 17,0 C19.3020833,0 21.5029762,0.449032743 23.6026786,1.34709823 C25.702381,2.24516371 27.5111607,3.45312502 29.0290178,4.97098215 C30.546875,6.48883928 31.7548363,8.29761904 32.6529018,10.3973214 C33.5509673,12.4970238 34,14.6979167 34,17 Z" id="形状"></path>
                </g>
            </g>
        </g>
    </g>
</svg>