<?xml version="1.0" encoding="UTF-8"?>
<svg width="34px" height="34px" viewBox="0 0 34 34" version="1.1" xmlns="http://www.w3.org/2000/svg" xmlns:xlink="http://www.w3.org/1999/xlink">
    <title>编组</title>
    <g id="主要" stroke="none" stroke-width="1" fill="none" fill-rule="evenodd">
        <g id="首页v3" transform="translate(-497.000000, -8170.000000)" fill="#8AFA0F" fill-rule="nonzero">
            <g id="编组" transform="translate(497.000000, 8170.000000)">
                <path d="M17,0 C7.58461538,0 0,7.58461538 0,17 C0,26.4153846 7.58461538,34 17,34 C26.4153846,34 34,26.4153846 34,17 C34,7.58461538 26.4153846,0 17,0 Z M25.2384615,12.1615385 C25.1076923,12.2923077 25.1076923,12.4230769 24.9769231,12.4230769 C24.7153846,12.6846154 24.4538462,12.8153846 24.1923077,12.9461538 C24.0615385,12.9461538 24.0615385,13.0769231 24.0615385,13.2076923 C24.1923077,14.6461538 23.9307692,16.0846154 23.4076923,17.5230769 C22.4923077,20.0076923 20.5307692,21.9692308 18.1769231,23.1461538 C16.2153846,24.3230769 13.8615385,24.7153846 11.7692308,24.1923077 C10.7230769,24.0615385 9.80769229,23.6692308 9.02307692,23.1461538 L8.89230771,23.0153846 C8.89230771,22.8846154 9.02307695,22.7538462 9.15384616,22.7538462 C9.80769233,22.7538462 10.4615385,22.6230769 11.1153846,22.3615385 C11.7692308,22.1 12.4230769,21.7076923 12.9461538,21.3153846 L13.0769231,21.1846154 C13.0769231,21.0538461 13.0769231,20.9230769 12.9461538,20.9230769 C12.4230769,20.7923077 12.0307692,20.5307692 11.6384615,20.2692308 C11.1153846,20.0076923 10.7230769,19.4846154 10.4615385,18.9615385 L10.4615385,18.8307692 C10.4615385,18.7 10.5923077,18.5692308 10.7230769,18.5692308 L11.1153846,18.5692308 C11.2461539,18.5692308 11.2461539,18.5692308 11.2461538,18.4384615 C11.3769231,18.3076923 11.2461538,18.1769231 11.1153846,18.0461538 C10.5923077,17.7846154 10.2,17.3923077 9.80769229,17 C9.28461538,16.4769231 9.02307692,15.8230769 9.02307692,15.1692308 L9.02307692,15.0384615 C9.02307692,14.9076923 9.28461538,14.9076923 9.28461538,14.9076923 C9.41538462,14.9076923 9.54615384,15.0384615 9.67692308,15.0384615 L9.93846154,15.0384615 C10.0692308,15.0384615 10.0692308,15.0384615 10.2,14.9076923 C10.3307692,14.776923 10.3307692,14.6461538 10.2,14.5153846 C9.67692308,13.9923077 9.28461538,13.3384615 9.15384616,12.5538462 C9.02307692,11.9 9.15384616,11.1153846 9.41538462,10.4615385 L9.41538462,10.3307692 C9.15384616,10.4615385 9.28461538,10.4615385 9.41538462,10.5923077 C10.3307692,11.5076923 11.2461539,12.2923077 12.4230769,12.9461538 C13.7307692,13.6 15.1692308,13.9923077 16.6076923,13.9923077 C16.7384615,13.9923077 16.8692308,13.8615385 16.8692308,13.7307692 C16.8692308,12.9461539 17.1307692,10.3307692 19.4846154,9.67692308 C20.6615385,9.28461538 22.1,9.54615384 23.0153846,10.5923077 C23.0153846,10.5923077 23.1461539,10.723077 23.2769231,10.7230769 C23.5384615,10.7230769 23.8,10.5923077 24.1923077,10.5923077 C24.4538462,10.4615385 24.7153846,10.4615385 24.9769231,10.3307692 L25.2384615,10.3307692 C25.3692308,10.3307692 25.3692308,10.5923077 25.3692308,10.7230769 C25.2384615,10.9846154 24.976923,11.2461538 24.7153846,11.5076923 L24.5846154,11.6384615 C24.4538461,11.6384615 24.4538461,11.7692308 24.4538462,11.9 C24.4538462,12.0307692 24.5846154,12.1615385 24.7153846,12.1615385 C24.8461538,12.1615385 24.9769231,12.1615385 25.2384615,12.0307692 L25.5,12.0307692 C25.3692308,11.9 25.3692308,12.1615385 25.2384615,12.1615385 L25.2384615,12.1615385 Z" id="形状"></path>
            </g>
        </g>
    </g>
</svg>