<?xml version="1.0" encoding="UTF-8"?>
<svg width="34px" height="34px" viewBox="0 0 34 34" version="1.1" xmlns="http://www.w3.org/2000/svg" xmlns:xlink="http://www.w3.org/1999/xlink">
    <title>YouTube</title>
    <g id="主要" stroke="none" stroke-width="1" fill="none" fill-rule="evenodd">
        <g id="首页v3" transform="translate(-926.000000, -8170.000000)">
            <g id="编组-39" transform="translate(497.000000, 8170.000000)">
                <g id="YouTube" transform="translate(429.000000, 0.000000)">
                    <circle id="椭圆形" fill="#8AFA0F" cx="17" cy="17" r="17"></circle>
                    <g id="编组-33" transform="translate(7.000000, 10.000000)" fill-rule="nonzero">
                        <path d="M21,7.43536473 C21,7.38457987 21,7.32686981 20.9976562,7.25992613 C20.9953125,7.07294552 20.990625,6.86288089 20.9859375,6.63896584 C20.9671875,5.99492151 20.934375,5.3531856 20.8828125,4.74838412 C20.8125,3.91505078 20.709375,3.22022161 20.56875,2.69852262 C20.26875,1.59279778 19.3875,0.722530009 18.2648438,0.424746076 C17.6015625,0.249307479 16.303125,0.140812558 14.475,0.0738688827 C13.6054688,0.0415512465 12.675,0.0207756233 11.7445313,0.00923361034 C11.41875,0.00461680517 11.1164063,0.00230840259 10.8445313,0 L10.1554687,0 C9.88359375,0.00230840259 9.58125,0.00461680517 9.25546875,0.00923361034 C8.325,0.0207756233 7.39453125,0.0415512465 6.525,0.0738688827 C4.696875,0.14312096 3.39609375,0.251615882 2.73515625,0.424746076 C1.61484375,0.720221607 0.73125,1.59048938 0.43125,2.69852262 C0.28828125,3.22022161 0.1875,3.91505078 0.1171875,4.74838412 C0.065625,5.3531856 0.0328125,5.99492151 0.0140625,6.63896584 C0.00703125,6.86288089 0.0046875,7.07294552 0.00234375,7.25992613 C0.00234375,7.32686981 0,7.38457987 0,7.43536473 L0,7.56463527 C0,7.61542013 0,7.67313019 0.00234375,7.74007387 C0.0046875,7.92705448 0.009375,8.13711911 0.0140625,8.36103416 C0.0328125,9.00507849 0.065625,9.6468144 0.1171875,10.2516159 C0.1875,11.0849492 0.290625,11.7797784 0.43125,12.3014774 C0.73125,13.4072022 1.6125,14.2797784 2.73515625,14.5752539 C3.39609375,14.7506925 4.696875,14.8591874 6.525,14.9261311 C7.39453125,14.9584488 8.325,14.9792244 9.25546875,14.9907664 C9.58125,14.9953832 9.88359375,14.9976916 10.1554687,15 L10.8445312,15 C11.1164062,14.9976916 11.41875,14.9953832 11.7445312,14.9907664 C12.675,14.9792244 13.6054688,14.9584488 14.475,14.9261311 C16.303125,14.856879 17.6039062,14.7483841 18.2648437,14.5752539 C19.3875,14.2797784 20.26875,13.4095106 20.56875,12.3014774 C20.7117187,11.7797784 20.8125,11.0849492 20.8828125,10.2516159 C20.934375,9.6468144 20.9671875,9.00507849 20.9859375,8.36103416 C20.9929687,8.13711911 20.9953125,7.92705448 20.9976562,7.74007387 C20.9976562,7.67313019 21,7.61542013 21,7.56463527 L21,7.5 L21,7.43536473 Z" id="形状" fill="#000000"></path>
                        <polygon id="路径" fill="#8AFA0F" points="8.44329897 10.5 13.8556701 7.36966951 8.44329897 4.28571429"></polygon>
                    </g>
                </g>
            </g>
        </g>
    </g>
</svg>