<?xml version="1.0" encoding="UTF-8"?>
<svg width="64px" height="64px" viewBox="0 0 64 64" version="1.1" xmlns="http://www.w3.org/2000/svg" xmlns:xlink="http://www.w3.org/1999/xlink">
    <title>播放</title>
    <g id="主要" stroke="none" stroke-width="1" fill="none" fill-rule="evenodd">
        <g id="NFT音乐详情页/" transform="translate(-628.000000, -409.000000)">
            <g id="编组-10" transform="translate(298.000000, 176.000000)">
                <g id="播放" transform="translate(330.000000, 233.000000)">
                    <path d="M0,32 C0,43.4324987 6.09916534,53.9965634 16,59.7128129 C25.9008344,65.4290624 38.0991656,65.4290624 48,59.7128129 C57.9008347,53.9965634 64,43.4324987 64,32 C64,14.3268879 49.673112,0 32,0 C14.326888,0 0,14.3268879 0,32 Z" id="路径" fill="#000000" fill-rule="nonzero"></path>
                    <path d="M36.7149859,24.8583098 L45.1826051,38.9710085 C45.7509014,39.918169 45.4437713,41.1466895 44.4966108,41.7149859 C44.1857799,41.9014843 43.8301071,42 43.4676192,42 L26.5323808,42 C25.4278113,42 24.5323808,41.1045695 24.5323808,40 C24.5323808,39.6375121 24.6308964,39.2818393 24.8173949,38.9710085 L33.2850141,24.8583098 C33.8533105,23.9111492 35.081831,23.6040191 36.0289915,24.1723154 C36.3104907,24.3412149 36.5460863,24.5768105 36.7149859,24.8583098 Z" id="三角形" fill="#FFFFFF" transform="translate(35.000000, 32.000000) rotate(-270.000000) translate(-35.000000, -32.000000) "></path>
                </g>
            </g>
        </g>
    </g>
</svg>