<?xml version="1.0" encoding="UTF-8"?>
<svg width="22px" height="22px" viewBox="0 0 22 22" version="1.1" xmlns="http://www.w3.org/2000/svg" xmlns:xlink="http://www.w3.org/1999/xlink">
    <title>ins备份</title>
    <g id="主要" stroke="none" stroke-width="1" fill="none" fill-rule="evenodd">
        <g id="mint活动页面new3" transform="translate(-549.000000, -1532.000000)" fill="#BABABA" fill-rule="nonzero">
            <g id="编组-3" transform="translate(300.000000, 1137.000000)">
                <g id="ins备份" transform="translate(249.000000, 395.000000)">
                    <path d="M10.9970434,7.3316351 C8.97721631,7.3316351 7.3288833,8.97996812 7.3288833,10.9997952 C7.3288833,13.0196223 8.97721631,14.6679553 10.9970434,14.6679553 C13.0168705,14.6679553 14.6652035,13.0196223 14.6652035,10.9997952 C14.6652035,8.97996812 13.0168705,7.3316351 10.9970434,7.3316351 Z M21.9987719,10.9997952 C21.9987719,9.48079718 22.012531,7.97555818 21.9272249,6.45931196 C21.8419189,4.69815482 21.4401549,3.13512785 20.1523087,1.84728169 C18.8617108,0.556683726 17.3014356,0.157671561 15.5402785,0.0723655121 C14.0212804,-0.0129405369 12.5160414,0.000818503282 10.9997952,0.000818503282 C9.48079718,0.000818503282 7.97555818,-0.0129405369 6.45931196,0.0723655121 C4.69815482,0.157671561 3.13512785,0.559435534 1.84728169,1.84728169 C0.556683726,3.13787966 0.157671561,4.69815482 0.0723655121,6.45931196 C-0.0129405369,7.97830999 0.000818503282,9.48354899 0.000818503282,10.9997952 C0.000818503282,12.5160414 -0.0129405369,14.0240322 0.0723655121,15.5402785 C0.157671561,17.3014356 0.559435534,18.8644626 1.84728169,20.1523087 C3.13787966,21.4429067 4.69815482,21.8419189 6.45931196,21.9272249 C7.97830999,22.012531 9.48354899,21.9987719 10.9997952,21.9987719 C12.5187932,21.9987719 14.0240322,22.012531 15.5402785,21.9272249 C17.3014356,21.8419189 18.8644626,21.4401549 20.1523087,20.1523087 C21.4429067,18.8617108 21.8419189,17.3014356 21.9272249,15.5402785 C22.0152828,14.0240322 21.9987719,12.5187932 21.9987719,10.9997952 Z M10.9970434,16.6437535 C7.87374129,16.6437535 5.35308513,14.1230973 5.35308513,10.9997952 C5.35308513,7.87649309 7.87374129,5.35583694 10.9970434,5.35583694 C14.1203455,5.35583694 16.6410017,7.87649309 16.6410017,10.9997952 C16.6410017,14.1230973 14.1203455,16.6437535 10.9970434,16.6437535 Z M16.8721536,6.44280111 C16.1429244,6.44280111 15.5540375,5.85391419 15.5540375,5.12468506 C15.5540375,4.39545593 16.1429244,3.80656901 16.8721536,3.80656901 C17.6013827,3.80656901 18.1902696,4.39545593 18.1902696,5.12468506 C18.1875178,5.856666 17.6013827,6.44280111 16.8721536,6.44280111 Z" id="形状"></path>
                </g>
            </g>
        </g>
    </g>
</svg>