<?xml version="1.0" encoding="UTF-8"?>
<svg width="24px" height="24px" viewBox="0 0 24 24" version="1.1" xmlns="http://www.w3.org/2000/svg" xmlns:xlink="http://www.w3.org/1999/xlink">
    <title>编组 5备份 4</title>
    <g id="主要" stroke="none" stroke-width="1" fill="none" fill-rule="evenodd">
        <g id="dj大厅" transform="translate(-256.000000, -459.000000)">
            <g id="编组-5备份-4" transform="translate(268.000000, 471.000000) scale(-1, 1) translate(-268.000000, -471.000000) translate(256.000000, 459.000000)">
                <rect id="矩形" stroke="#979797" fill="#D8D8D8" opacity="0" x="0.5" y="0.5" width="23" height="23"></rect>
                <g id="编组" transform="translate(6.545455, 0.545455)" fill="#FFFFFF" fill-rule="nonzero">
                    <g id="编组-14">
                        <polygon id="路径" points="0 0 3.1363454 0 3.1363454 3.24378659 0 3.24378659"></polygon>
                        <polygon id="路径" points="3.13632026 3.24378657 6.27283918 3.24378657 6.27283918 6.48749513 3.13632026 6.48749513 3.13632026 3.24378657"></polygon>
                        <polygon id="路径" points="6.27283918 6.48749513 9.40910914 6.48749513 9.40910914 9.73125572 6.27283918 9.73125572"></polygon>
                        <polygon id="路径" points="9.40910914 9.7312323 12.5454545 9.7312323 12.5454545 12.9751749 9.40910914 12.9751749"></polygon>
                        <polygon id="路径" points="6.27283918 12.9751749 9.40910914 12.9751749 9.40910914 16.2187275 6.27283918 16.2187275"></polygon>
                        <polygon id="路径" points="3.13632026 16.21873 6.27283918 16.21873 6.27283918 19.4626987 3.13632026 19.4626987 3.13632026 16.21873"></polygon>
                        <polygon id="路径" points="0 19.6653798 0 22.7063838 0 22.9090909 3.13632026 22.9090909 3.13632026 22.7063838 3.13632026 19.6653798 3.13632026 19.4626987 0 19.4626987"></polygon>
                    </g>
                </g>
            </g>
        </g>
    </g>
</svg>