<?xml version="1.0" encoding="UTF-8"?>
<svg width="111px" height="36px" viewBox="0 0 111 36" version="1.1" xmlns="http://www.w3.org/2000/svg" xmlns:xlink="http://www.w3.org/1999/xlink">
    <title>编组</title>
    <defs>
        <polygon id="path-1" points="0 0 27 0 27 36 0 36"></polygon>
        <path d="M6.50022959,0 L6.50022959,15.1407869 L6.50022959,21.7016462 L0,21.7016462 C0,25.1805123 2.91031754,28 6.50022959,28 L6.50022959,28 C10.0901416,28 13,25.1805123 13,21.7016462 L13,21.7016462 L13,0 L6.50022959,0 Z" id="path-3"></path>
        <linearGradient x1="50.001059%" y1="100.000003%" x2="50.001059%" y2="0.000162079705%" id="linearGradient-5">
            <stop stop-color="#00FF1D" offset="0%"></stop>
            <stop stop-color="#02FFBF" offset="100%"></stop>
        </linearGradient>
        <polygon id="path-6" points="0 0 7.64634681 0 7.64634681 22.9773181 0 22.9773181"></polygon>
    </defs>
    <g id="主要" stroke="none" stroke-width="1" fill="none" fill-rule="evenodd">
        <g id="首页v3" transform="translate(-40.000000, -14.000000)">
            <g id="编组-2" transform="translate(40.000000, 12.000000)">
                <g id="编组" transform="translate(0.000000, 2.000000)">
                    <g>
                        <path d="M1.81728399,22.4128927 C1.81728399,28.8963818 7.05794261,34.1708896 13.4998239,34.1708896 C19.9417052,34.1708896 25.1823639,28.8963818 25.1823639,22.4128927 L25.1823639,1.82919896 L15.317284,1.82919896 L15.317284,8.8256967 L15.317284,10.6548957 L13.4998239,10.6548957 C7.05794261,10.6548957 1.81728399,15.9294035 1.81728399,22.4128927" id="Fill-1" fill="#000000"></path>
                        <g>
                            <mask id="mask-2" fill="white">
                                <use xlink:href="#path-1"></use>
                            </mask>
                            <g id="Clip-4"></g>
                            <path d="M25.1825399,22.4128927 C25.1825399,28.8963818 19.9418813,34.1708896 13.5,34.1708896 C7.05811868,34.1708896 1.81746006,28.8963818 1.81746006,22.4128927 C1.81746006,15.9294035 7.05811868,10.6548957 13.5,10.6548957 L15.3170199,10.6548957 L15.3170199,8.8256967 L15.3170199,1.82919896 L25.1825399,1.82919896 L25.1825399,22.4128927 Z M13.5,0 L13.5,8.8256967 C6.04396805,8.8256967 0,14.9091455 0,22.4128927 C0,29.9166398 6.04396805,36.0000886 13.5,36.0000886 C20.9555918,36.0000886 27,29.9166398 27,22.4128927 L27,0 L13.5,0 Z" id="Fill-3" fill="#FFFFFF" mask="url(#mask-2)"></path>
                        </g>
                    </g>
                    <g transform="translate(7.000000, 0.000000)">
                        <mask id="mask-4" fill="white">
                            <use xlink:href="#path-3"></use>
                        </mask>
                        <g id="Clip-6"></g>
                        <path d="M6.50022959,0 L6.50022959,15.1407869 L6.50022959,21.7016462 L0,21.7016462 C0,25.1805123 2.91031754,28 6.50022959,28 L6.50022959,28 C10.0901416,28 13,25.1805123 13,21.7016462 L13,21.7016462 L13,0 L6.50022959,0 Z" id="Fill-5" fill="url(#linearGradient-5)" mask="url(#mask-4)"></path>
                    </g>
                    <g transform="translate(33.000000, 2.000000)">
                        <polygon id="Fill-7" fill="#FFFFFF" points="5.23343646 4.27755789 0 4.27755789 0 0.32558631 15.301448 0.32558631 15.301448 4.27755789 10.0680116 4.27755789 10.0680116 16.5978392 5.23343646 16.5978392"></polygon>
                        <path d="M28.4345284,8.5082377 L28.4345284,8.46188933 C28.4345284,6.11401299 26.6153096,4.06850464 23.9487895,4.06850464 C21.307282,4.06850464 19.5380884,6.0672232 19.5380884,8.41509954 L19.5380884,8.46188933 C19.5380884,10.8097657 21.3573072,12.855274 23.9988147,12.855274 C26.6653347,12.855274 28.4345284,10.856114 28.4345284,8.5082377 M14.578897,8.5082377 L14.578897,8.46188933 C14.578897,3.78953155 18.616196,0 23.9988147,0 C29.3814333,0 33.3687071,3.74274176 33.3687071,8.41509954 L33.3687071,8.46188933 C33.3687071,13.1342471 29.3318548,16.9233372 23.9487895,16.9233372 C18.5661708,16.9233372 14.578897,13.1805955 14.578897,8.5082377" id="Fill-9" fill="#FFFFFF"></path>
                        <path d="M41.5183428,8.4152761 C43.237958,8.4152761 44.2844666,7.57835685 44.2844666,6.30002448 L44.2844666,6.25323469 C44.2844666,4.85881067 43.237958,4.11458817 41.4933303,4.11458817 L39.2256716,4.11458817 L39.2256716,8.4152761 L41.5183428,8.4152761 Z M34.3910965,0.325498028 L41.8671791,0.325498028 C46.2778802,0.325498028 49.1190417,2.44119107 49.1190417,6.04444629 L49.1190417,6.09079466 C49.1190417,9.92623318 45.9540566,11.9487881 41.6179465,11.9487881 L39.2256716,11.9487881 L39.2256716,16.5977509 L34.3910965,16.5977509 L34.3910965,0.325498028 Z" id="Fill-11" fill="#FFFFFF"></path>
                        <path d="M61.8785859,12.5995193 C64.7693259,12.5995193 66.6881484,11.1119571 66.6881484,8.48510766 L66.6881484,8.43875928 C66.6881484,5.83486334 64.7693259,4.32390627 61.8785859,4.32390627 L59.9097382,4.32390627 L59.9097382,12.5995193 L61.8785859,12.5995193 Z M55.0751632,0.32558631 L61.8039948,0.32558631 C68.0339147,0.32558631 71.6473398,3.67326334 71.6473398,8.36901601 L71.6473398,8.41536439 C71.6473398,13.1111171 67.9838896,16.5978392 61.7039445,16.5978392 L55.0751632,16.5978392 L55.0751632,0.32558631 Z" id="Fill-13" fill="#FFFFFF"></path>
                        <g transform="translate(70.353653, 0.325675)">
                            <mask id="mask-7" fill="white">
                                <use xlink:href="#path-6"></use>
                            </mask>
                            <g id="Clip-16"></g>
                            <path d="M2.89118667,0 L2.89118667,14.43774 C2.89118667,14.9683186 2.84562804,15.4441619 2.75495742,15.8515862 C2.66964665,16.2364984 2.53609732,16.5869805 2.357436,16.8933212 C2.17788139,17.2009861 1.94428172,17.488346 1.66333681,17.7461313 C1.36407911,18.0211316 0.996930118,18.2899522 0.571716197,18.5459718 L0,18.8898327 L1.87728373,22.9773181 L2.59594885,22.5747493 C3.23198312,22.2185289 3.80235936,21.8592186 4.2914447,21.5065296 C4.7952696,21.1428052 5.24102957,20.7574515 5.61577167,20.3606211 C5.99855353,19.9562867 6.32595038,19.5219362 6.58902916,19.0694878 C6.85389456,18.6139495 7.06739483,18.1102971 7.22327682,17.5726559 C7.37469228,17.051347 7.48456899,16.4739787 7.55022702,15.8564418 C7.61409844,15.2570028 7.64670413,14.5856134 7.64670413,13.8608131 L7.64670413,0 L2.89118667,0 Z" id="Fill-15" fill="#FFFFFF" mask="url(#mask-7)"></path>
                        </g>
                        <path d="M0.759489235,24.912429 L2.72476366,24.912429 L2.72476366,25.6116274 C3.10307899,25.2593797 3.42645596,25.0210166 3.69444793,24.8969795 C3.97985937,24.7676455 4.33762865,24.7027578 4.76864906,24.7027578 C5.72940026,24.7027578 6.48960414,25.0757518 7.0483674,25.8212986 C7.66564223,25.0757518 8.50133051,24.7027578 9.55543225,24.7027578 C11.4711282,24.7027578 12.4291994,25.7361059 12.4291994,27.8023606 L12.4291994,32.4795739 L10.454992,32.4795739 L10.454992,28.2764383 C10.454992,27.5511966 10.3562816,27.0387159 10.1579675,26.7381136 C9.95429363,26.4326557 9.61930367,26.2799268 9.1534443,26.2799268 C8.61210052,26.2799268 8.21770568,26.4613476 7.96981311,26.8237478 C7.72236719,27.1861479 7.59864424,27.7688132 7.59864424,28.5717437 L7.59864424,32.4795739 L5.6248834,32.4795739 L5.6248834,28.2998332 C5.6248834,26.9530818 5.18805649,26.2799268 4.31440268,26.2799268 C3.76099927,26.2799268 3.35811801,26.4635547 3.1048656,26.8316932 C2.85161319,27.1993903 2.72476366,27.7794071 2.72476366,28.5717437 L2.72476366,32.4795739 L0.759489235,32.4795739 L0.759489235,24.912429 Z" id="Fill-17" fill="#FFFFFF"></path>
                        <path d="M20.1033281,27.6782353 C19.8295296,26.7459708 19.1689294,26.2798385 18.1206342,26.2798385 C17.8816747,26.2798385 17.6574547,26.3120617 17.4479743,26.3769494 C17.2380473,26.4418371 17.0473264,26.5349753 16.8758115,26.6568053 C16.70385,26.7781939 16.5569011,26.9247431 16.4345181,27.09557 C16.3125817,27.2663968 16.2192312,27.4606186 16.1553598,27.6782353 L20.1033281,27.6782353 Z M22.1208609,29.1079723 L16.0240437,29.1079723 C16.0767488,29.729482 16.3036486,30.2238647 16.7056366,30.5915618 C17.1071779,30.9544034 17.6226158,31.1353827 18.2515036,31.1353827 C18.7405889,31.1353827 19.1452568,31.0320921 19.4659539,30.8246279 C19.7799511,30.6176052 20.138167,30.2344586 20.540155,29.6747468 L22.1999186,30.4984236 C21.9435396,30.8868672 21.672421,31.2196926 21.3874563,31.4969001 C21.1020448,31.7741075 20.7960873,32.0018767 20.4700304,32.180649 C20.1439735,32.3589799 19.7915641,32.4900796 19.4132488,32.5726238 C19.0344868,32.6556095 18.6240124,32.6971023 18.1818257,32.6971023 C16.9119904,32.6971023 15.8931743,32.3347022 15.124484,31.6094604 C14.3557937,30.8793631 13.9712252,29.9109028 13.9712252,28.7036379 C13.9712252,27.5074084 14.3441807,26.538948 15.089645,25.7982568 C15.8409158,25.0677181 16.836506,24.7026695 18.0768622,24.7026695 C19.3288313,24.7026695 20.318615,25.0575656 21.0466598,25.7669165 C21.7688982,26.4714118 22.129794,27.4478176 22.129794,28.6961339 L22.1208609,29.1079723 Z" id="Fill-19" fill="#FFFFFF"></path>
                        <polygon id="Fill-21" fill="#FFFFFF" points="25.9168778 26.5439801 25.9168778 32.4796622 23.9516034 32.4796622 23.9516034 26.5439801 23.1132352 26.5439801 23.1132352 24.9125173 23.9516034 24.9125173 23.9516034 22.1386773 25.9168778 22.1386773 25.9168778 24.9125173 27.4453253 24.9125173 27.4453253 26.5439801"></polygon>
                        <path d="M30.0096958,28.6726949 C30.0096958,29.3979366 30.2281093,29.9881059 30.6649362,30.4440857 C31.1129294,30.9053624 31.6779458,31.1353386 32.3595387,31.1353386 C33.0871369,31.1353386 33.6753793,30.9128664 34.1238192,30.4674806 C34.5722591,30.0066453 34.796479,29.4213315 34.796479,28.7115392 C34.796479,28.0021883 34.5722591,27.4168746 34.1238192,26.9555979 C33.6753793,26.5049151 33.0929434,26.2797944 32.3769582,26.2797944 C31.7011718,26.2797944 31.136602,26.508005 30.6823556,26.9635433 C30.2339158,27.4243786 30.0096958,27.9942429 30.0096958,28.6726949 L30.0096958,28.6726949 Z M34.674096,24.9122966 L36.6483035,24.9122966 L36.6483035,32.4794415 L34.674096,32.4794415 L34.674096,31.687105 C33.8647603,32.36026 32.9937864,32.6970582 32.0625143,32.6970582 C30.8860295,32.6970582 29.9136654,32.3192086 29.1449751,31.5626265 C28.3820913,30.7910364 28.0006494,29.827873 28.0006494,28.6726949 C28.0006494,27.5382632 28.3820913,26.5931977 29.1449751,25.837057 C29.9078589,25.0809164 30.8628036,24.7026253 32.0098092,24.7026253 C33.0000395,24.7026253 33.8879862,25.0654669 34.674096,25.7902672 L34.674096,24.9122966 Z" id="Fill-23" fill="#FFFFFF"></path>
                        <polygon id="Fill-25" fill="#FFFFFF" points="39.8062315 24.912429 42.0073389 29.1623544 44.1999598 24.912429 46.4100002 24.912429 41.9899194 33 37.6051241 24.912429"></polygon>
                        <path d="M52.6252253,27.6782353 C52.3514268,26.7459708 51.6908266,26.2798385 50.6425314,26.2798385 C50.4035719,26.2798385 50.1793519,26.3120617 49.9698715,26.3769494 C49.7599445,26.4418371 49.5692235,26.5349753 49.3977087,26.6568053 C49.2257472,26.7781939 49.0787982,26.9247431 48.9564152,27.09557 C48.8344789,27.2663968 48.7411283,27.4606186 48.6772569,27.6782353 L52.6252253,27.6782353 Z M54.6427581,29.1079723 L48.5459409,29.1079723 C48.598646,29.729482 48.8255458,30.2238647 49.2275338,30.5915618 C49.6290751,30.9544034 50.144513,31.1353827 50.7734008,31.1353827 C51.2624861,31.1353827 51.667154,31.0320921 51.987851,30.8246279 C52.3018483,30.6176052 52.6600642,30.2344586 53.0620522,29.6747468 L54.7218157,30.4984236 C54.4654368,30.8868672 54.1943182,31.2196926 53.9093534,31.4969001 C53.623942,31.7741075 53.3179845,32.0018767 52.9919276,32.180649 C52.6658707,32.3589799 52.3134613,32.4900796 51.9351459,32.5726238 C51.556384,32.6556095 51.1459096,32.6971023 50.7037229,32.6971023 C49.4338876,32.6971023 48.4150715,32.3347022 47.6463812,31.6094604 C46.8776909,30.8793631 46.4935691,29.9109028 46.4935691,28.7036379 C46.4935691,27.5074084 46.8660779,26.538948 47.6115422,25.7982568 C48.362813,25.0677181 49.3584032,24.7026695 50.5987593,24.7026695 C51.8507285,24.7026695 52.8405121,25.0575656 53.568557,25.7669165 C54.2907953,26.4714118 54.6516912,27.4478176 54.6516912,28.6961339 L54.6427581,29.1079723 Z" id="Fill-27" fill="#FFFFFF"></path>
                        <path d="M56.2551318,24.912429 L58.2204062,24.912429 L58.2204062,25.5882325 C58.5813021,25.2518757 58.9015525,25.0210166 59.1811574,24.8969795 C59.4665689,24.7676455 59.8042387,24.7027578 60.1946137,24.7027578 C60.7127315,24.7027578 61.2545219,24.8528382 61.8190917,25.1534405 L60.919532,26.7535631 C60.5470231,26.5156414 60.1830007,26.3964599 59.8274647,26.3964599 C58.7559435,26.3964599 58.2204062,27.1164047 58.2204062,28.5562942 L58.2204062,32.4795739 L56.2551318,32.4795739 L56.2551318,24.912429 Z" id="Fill-29" fill="#FFFFFF"></path>
                        <path d="M67.3532598,26.2021057 L65.7287818,26.9710473 C65.4724028,26.5049151 65.1548324,26.2718489 64.776517,26.2718489 C64.5960691,26.2718489 64.4415271,26.3252599 64.3133376,26.4311991 C64.1851481,26.5375796 64.1212767,26.6735349 64.1212767,26.8390648 C64.1212767,27.1295146 64.5000387,27.4168746 65.2566693,27.701586 C66.2991581,28.1006235 67.0008504,28.4683206 67.3621929,28.8046774 C67.7230887,29.1414756 67.9035366,29.5948068 67.9035366,30.1642298 C67.9035366,30.8947685 67.6007057,31.5056842 66.9950439,31.9978598 C66.4068015,32.4639921 65.6966228,32.6970582 64.8636144,32.6970582 C63.4370038,32.6970582 62.4266741,32.078197 61.8326253,30.8404746 L63.5098083,30.1487803 C63.7425147,30.5111805 63.9202827,30.7420395 64.0426657,30.8404746 C64.2816252,31.0373449 64.5670366,31.1353386 64.8989,31.1353386 C65.5626268,31.1353386 65.8944902,30.8660766 65.8944902,30.3275526 C65.8944902,30.0167978 65.6381112,29.7267894 65.1257999,29.4575274 C64.9279325,29.3692447 64.7296184,29.284052 64.531751,29.2010663 C64.3338836,29.1180807 64.1328897,29.032888 63.9292158,28.9446053 C63.3583929,28.6960897 62.9564049,28.4475742 62.7236986,28.1986172 C62.4266741,27.8830068 62.2783852,27.4764653 62.2783852,26.9789927 C62.2783852,26.3212872 62.5316377,25.7774663 63.0381425,25.3475299 C63.5562603,24.9175935 64.1851481,24.7026253 64.9248059,24.7026253 C66.0137466,24.7026253 66.8230824,25.2027464 67.3532598,26.2021057" id="Fill-31" fill="#FFFFFF"></path>
                        <path d="M74.8612781,27.6782353 C74.5874796,26.7459708 73.9268794,26.2798385 72.8785842,26.2798385 C72.6396247,26.2798385 72.4154047,26.3120617 72.2059243,26.3769494 C71.9959973,26.4418371 71.8052763,26.5349753 71.6337615,26.6568053 C71.4618,26.7781939 71.314851,26.9247431 71.1924681,27.09557 C71.0705317,27.2663968 70.9771812,27.4606186 70.9133098,27.6782353 L74.8612781,27.6782353 Z M76.8788109,29.1079723 L70.7819937,29.1079723 C70.8346988,29.729482 71.0615986,30.2238647 71.4635866,30.5915618 C71.8651279,30.9544034 72.3805658,31.1353827 73.0094536,31.1353827 C73.4985389,31.1353827 73.9032068,31.0320921 74.2239039,30.8246279 C74.5379011,30.6176052 74.896117,30.2344586 75.298105,29.6747468 L76.9578686,30.4984236 C76.7014896,30.8868672 76.430371,31.2196926 76.1454063,31.4969001 C75.8599948,31.7741075 75.5540373,32.0018767 75.2279804,32.180649 C74.9019235,32.3589799 74.5495141,32.4900796 74.1711988,32.5726238 C73.7924368,32.6556095 73.3819624,32.6971023 72.9397757,32.6971023 C71.6699404,32.6971023 70.6511243,32.3347022 69.882434,31.6094604 C69.1137437,30.8793631 68.7291752,29.9109028 68.7291752,28.7036379 C68.7291752,27.5074084 69.1021307,26.538948 69.847595,25.7982568 C70.5988658,25.0677181 71.594456,24.7026695 72.8348122,24.7026695 C74.0867813,24.7026695 75.076565,25.0575656 75.8046098,25.7669165 C76.5268482,26.4714118 76.887744,27.4478176 76.887744,28.6961339 L76.8788109,29.1079723 Z" id="Fill-33" fill="#FFFFFF"></path>
                    </g>
                </g>
            </g>
        </g>
    </g>
</svg>