<?xml version="1.0" encoding="UTF-8"?>
<svg width="24px" height="24px" viewBox="0 0 24 24" version="1.1" xmlns="http://www.w3.org/2000/svg" xmlns:xlink="http://www.w3.org/1999/xlink">
    <title>编组</title>
    <g id="主要" stroke="none" stroke-width="1" fill="none" fill-rule="evenodd">
        <g id="dj大厅" transform="translate(-320.000000, -703.000000)" fill-rule="nonzero">
            <g id="编组" transform="translate(320.000000, 703.000000)">
                <path d="M13.9772727,21 L1.02272727,21 C0.340909091,21 0,20.6666667 0,20 L0,20 C0,19.3333333 0.340909091,19 1.02272727,19 L13.9772727,19 C14.6590909,19 15,19.3333333 15,20 L15,20 C15,20.6666667 14.6590909,21 13.9772727,21 Z" id="路径" fill="#808080"></path>
                <path d="M3,13 L1,13 C0.333333333,13 0,12.6666667 0,12 L0,12 C0,11.3333333 0.333333333,11 1,11 L3,11 C3.66666667,11 4,11.3333333 4,12 L4,12 C4,12.6666667 3.66666667,13 3,13 Z" id="路径" fill="#808080"></path>
                <path d="M23,13 L13,13 C12.3333333,13 12,12.6666667 12,12 L12,12 C12,11.3333333 12.3333333,11 13,11 L23,11 C23.6666667,11 24,11.3333333 24,12 L24,12 C24,12.6666667 23.6666667,13 23,13 Z" id="路径" fill="#808080"></path>
                <path d="M23,21 L21,21 C20.3333333,21 20,20.6666667 20,20 L20,20 C20,19.3333333 20.3333333,19 21,19 L23,19 C23.6666667,19 24,19.3333333 24,20 L24,20 C24,20.6666667 23.6666667,21 23,21 Z" id="路径" fill="#808080"></path>
                <path d="M13.9772727,5 L1.02272727,5 C0.340909091,5 0,4.66666667 0,4 L0,4 C0,3.33333333 0.340909091,3 1.02272727,3 L13.9772727,3 C14.6590909,3 15,3.33333333 15,4 L15,4 C15,4.66666667 14.6590909,5 13.9772727,5 Z" id="路径" fill="#808080"></path>
                <path d="M23,5 L21,5 C20.3333333,5 20,4.66666667 20,4 L20,4 C20,3.33333333 20.3333333,3 21,3 L23,3 C23.6666667,3 24,3.33333333 24,4 L24,4 C24,4.66666667 23.6666667,5 23,5 Z" id="路径" fill="#808080"></path>
                <path d="M13,20 C13,22.209139 14.790861,24 17,24 C19.209139,24 21,22.209139 21,20 C21,17.790861 19.209139,16 17,16 C14.790861,16 13,17.790861 13,20 Z M19,20 C19,21.1045695 18.1045695,22 17,22 C15.8954305,22 15,21.1045695 15,20 C15,18.8954305 15.8954305,18 17,18 C18.1045695,18 19,18.8954305 19,20 Z M13,4 C13,6.209139 14.790861,8 17,8 C19.209139,8 21,6.209139 21,4 C21,1.790861 19.209139,0 17,0 C14.790861,0 13,1.790861 13,4 Z M19,4 C19,5.1045695 18.1045695,6 17,6 C15.8954305,6 15,5.1045695 15,4 C15,2.8954305 15.8954305,2 17,2 C18.1045695,2 19,2.8954305 19,4 Z" id="形状" fill="#8AFA0F"></path>
                <path d="M3,12 C3,14.209139 4.790861,16 7,16 C9.209139,16 11,14.209139 11,12 C11,9.790861 9.209139,8 7,8 C4.790861,8 3,9.790861 3,12 Z M9,12 C9,13.1045695 8.1045695,14 7,14 C5.8954305,14 5,13.1045695 5,12 C5,10.8954305 5.8954305,10 7,10 C8.1045695,10 9,10.8954305 9,12 L9,12 Z" id="形状" fill="#8AFA0F"></path>
            </g>
        </g>
    </g>
</svg>