<?xml version="1.0" encoding="UTF-8"?>
<svg width="25px" height="24px" viewBox="0 0 25 24" version="1.1" xmlns="http://www.w3.org/2000/svg" xmlns:xlink="http://www.w3.org/1999/xlink">
    <title>编组 5备份 3</title>
    <g id="主要" stroke="none" stroke-width="1" fill="none" fill-rule="evenodd">
        <g id="dj大厅" transform="translate(-1640.000000, -469.000000)">
            <g id="编组-5备份-3" transform="translate(1640.000000, 469.000000)">
                <rect id="矩形" stroke="#979797" fill="#D8D8D8" opacity="0" x="0.5" y="0.5" width="23" height="23"></rect>
                <g id="编组" transform="translate(12.000000, 0.545455)" fill="#FFFFFF" fill-rule="nonzero">
                    <path d="M0,0 L3.1363454,0 L3.1363454,3.24378659 L0,3.24378659 L0,0 Z M3.13632026,3.24378657 L6.27283918,3.24378657 L6.27283918,6.48749513 L3.13632026,6.48749513 L3.13632026,3.24378657 L3.13632026,3.24378657 Z M6.27283918,6.48749513 L9.40910914,6.48749513 L9.40910914,9.73125572 L6.27283918,9.73125572 L6.27283918,6.48749513 Z M9.40910914,9.7312323 L12.5454545,9.7312323 L12.5454545,12.9751749 L9.40910914,12.9751749 L9.40910914,9.7312323 Z M6.27283918,12.9751749 L9.40910914,12.9751749 L9.40910914,16.2187275 L6.27283918,16.2187275 L6.27283918,12.9751749 Z M3.13632026,16.21873 L6.27283918,16.21873 L6.27283918,19.4626987 L3.13632026,19.4626987 L3.13632026,16.21873 L3.13632026,16.21873 Z M0,19.6653798 L0,22.7063838 L0,22.9090909 L3.13632026,22.9090909 L3.13632026,22.7063838 L3.13632026,19.6653798 L3.13632026,19.4626987 L0,19.4626987 L0,19.6653798 Z" id="形状"></path>
                </g>
            </g>
        </g>
    </g>
</svg>