<?xml version="1.0" encoding="UTF-8"?>
<svg width="420px" height="260px" viewBox="0 0 420 260" version="1.1" xmlns="http://www.w3.org/2000/svg" xmlns:xlink="http://www.w3.org/1999/xlink">
    <title>编组 30</title>
    <defs>
        <polygon id="path-1" points="0 241.358 353.377 241.358 353.377 0 0 0"></polygon>
    </defs>
    <g id="主要" stroke="none" stroke-width="1" fill="none" fill-rule="evenodd">
        <g id="membership-card/更新2" transform="translate(-749.000000, -1993.000000)">
            <g id="编组-30" transform="translate(749.000000, 1993.000000)">
                <rect id="矩形备份-12" fill="#FF0000" opacity="0" x="0" y="0" width="420" height="260"></rect>
                <g id="05插图" transform="translate(33.000000, 9.000000)">
                    <path d="M297.0652,124.7731 C297.0652,124.7731 295.7862,143.0581 267.3962,144.1071 C244.7612,144.9431 239.7342,128.6581 239.7342,128.6581" id="Stroke-1" stroke="#FFFFFF" stroke-width="4" stroke-linecap="round"></path>
                    <line x1="317.5528" y1="226.2587" x2="294.8988" y2="226.2587" id="Stroke-3" stroke="#FFFFFF" stroke-width="4" stroke-linecap="round"></line>
                    <line x1="268.6591" y1="239.358" x2="178.0451" y2="239.358" id="Stroke-5" stroke="#FFFFFF" stroke-width="4" stroke-linecap="round"></line>
                    <line x1="124.1842" y1="232.0182" x2="62.3552" y2="232.0182" id="Stroke-7" stroke="#FFFFFF" stroke-width="4" stroke-linecap="round"></line>
                    <line x1="64.33" y1="213.3558" x2="36.718" y2="213.3558" id="Stroke-9" stroke="#FFFFFF" stroke-width="4" stroke-linecap="round"></line>
                    <line x1="351.3773" y1="212.1325" x2="100.5033" y2="213.3555" id="Stroke-11" stroke="#78FF00" stroke-width="4" stroke-linecap="round"></line>
                    <line x1="161.3651" y1="159.6109" x2="165.6401" y2="167.9039" id="Stroke-13" stroke="#FFFFFF" stroke-width="4" stroke-linecap="round"></line>
                    <path d="M314.4716,122.5696 C314.4716,122.5696 322.1606,129.7926 329.8506,141.9096" id="Stroke-15" stroke="#FFFFFF" stroke-width="4" stroke-linecap="round"></path>
                    <path d="M333.8742,151.1715 C333.8742,151.1715 336.8172,156.6015 337.9522,159.7925" id="Stroke-17" stroke="#FFFFFF" stroke-width="4" stroke-linecap="round"></path>
                    <path d="M235.488,47.2019 C235.488,47.2019 230.995,82.8419 244.053,100.0059 C253.267,112.1159 267.203,114.4209 279.816,107.2049 C290.976,100.8199 299.957,85.4969 303.43,78.9319 C304.439,77.0249 305.924,75.4299 307.698,74.2019 C315.589,68.7429 317.651,60.8769 312.375,56.3949 C303.87,49.1719 295.059,62.6789 295.059,62.6789 C289.594,55.1969 285.778,47.1399 269.013,49.7159 C240.781,54.0549 233.461,56.8989 230.792,25.3649 C230.792,25.3649 237.544,22.5389 248.996,14.9189 C280.864,-6.2841 328.077,8.9189 311.792,55.9829" id="Stroke-19" stroke="#78FF00" stroke-width="4" stroke-linecap="round"></path>
                    <path d="M242.3552,70.0551 C242.3552,74.8811 245.1982,78.7931 248.7052,78.7931 C252.2112,78.7931 255.0542,74.8811 255.0542,70.0551 C255.0542,65.2291 252.2112,61.3171 248.7052,61.3171 C245.1982,61.3171 242.3552,65.2291 242.3552,70.0551" id="Fill-21" fill="#FFFFFF"></path>
                    <path d="M262.5106,71.0746 C262.5106,76.6726 266.0836,81.2106 270.4916,81.2106 C274.8986,81.2106 278.4716,76.6726 278.4716,71.0746 C278.4716,65.4766 274.8986,60.9386 270.4916,60.9386 C266.0836,60.9386 262.5106,65.4766 262.5106,71.0746" id="Fill-23" fill="#FFFFFF"></path>
                    <path d="M278.7688,90.1813 C278.7688,90.1813 270.3218,94.7213 258.2638,94.1713" id="Stroke-25" stroke="#78FF00" stroke-width="4" stroke-linecap="round"></path>
                    <path d="M318.6658,13.2883 C318.6658,13.2883 329.1508,23.5403 327.9858,41.5993" id="Stroke-27" stroke="#FFFFFF" stroke-width="4" stroke-linecap="round"></path>
                    <path d="M313.4284,8.9185 C313.4284,8.9185 308.2444,4.5785 305.8414,4.0545" id="Stroke-29" stroke="#FFFFFF" stroke-width="4" stroke-linecap="round"></path>
                    <path d="M281.2677,106.3172 C281.2677,106.3172 279.0537,117.1522 284.9957,125.3652" id="Stroke-31" stroke="#78FF00" stroke-width="4" stroke-linecap="round"></path>
                    <path d="M258.264,110.2657 C258.264,110.2657 260.705,122.0457 254.239,125.3657" id="Stroke-33" stroke="#78FF00" stroke-width="4" stroke-linecap="round"></path>
                    <path d="M282.9301,121.739 C282.9301,121.739 301.4231,123.21 309.6371,132.239 C317.8501,141.269 328.6851,175.789 337.9521,211.346" id="Stroke-35" stroke="#78FF00" stroke-width="4" stroke-linecap="round"></path>
                    <path d="M257.2227,121.691 C257.2227,121.691 245.5007,120.472 237.8117,130.958 C230.1227,141.443 208.6267,172.375 208.6267,172.375" id="Stroke-37" stroke="#78FF00" stroke-width="4" stroke-linecap="round"></path>
                    <line x1="248.996" y1="155.8899" x2="230.472" y2="211.3459" id="Stroke-39" stroke="#78FF00" stroke-width="4" stroke-linecap="round"></line>
                    <path d="M212.6466,180.1229 L178.1386,135.3599 C177.2576,134.2169 175.5706,134.1159 174.5596,135.1449 L166.3216,143.5329 C165.6006,144.2669 165.4336,145.3819 165.9086,146.2949 L199.7146,211.3459" id="Stroke-41" stroke="#78FF00" stroke-width="4" stroke-linecap="round"></path>
                    <line x1="301.4231" y1="157.1715" x2="305.0011" y2="211.3465" id="Stroke-43" stroke="#78FF00" stroke-width="4" stroke-linecap="round"></line>
                    <path d="M174.4432,135.2633 C174.4432,135.2633 171.8842,130.2153 171.8842,125.1473 C171.8842,120.0793 171.3602,115.6663 168.9572,115.0553 C166.8652,114.5223 165.7502,118.6723 166.2452,121.7483 C166.2922,122.0393 166.1642,122.3233 165.9072,122.4673 C164.7512,123.1123 163.2662,123.7893 163.0152,123.3993 C159.4202,117.8093 156.0132,108.5413 150.4332,112.9583 C142.2632,119.4243 155.6472,138.1073 166.3222,143.5323 C170.6062,139.2483 174.4432,135.2633 174.4432,135.2633 Z" id="Stroke-45" stroke="#78FF00" stroke-width="4" stroke-linecap="round"></path>
                    <path d="M332.6577,97.963 L333.1427,79.676 C333.1567,79.133 332.6607,78.719 332.1287,78.83 L315.9007,82.215 C315.5407,82.29 315.2717,82.59 315.2347,82.955 L313.4707,100.553" id="Stroke-47" stroke="#FF00FF" stroke-width="4" stroke-linecap="round"></path>
                    <path d="M334.6145,97.8199 C334.9325,100.3569 332.6575,102.7309 329.5325,103.1229 C326.4065,103.5159 323.6155,101.7769 323.2965,99.2409 C322.9785,96.7039 325.2535,94.3299 328.3795,93.9379 C331.5045,93.5449 334.2965,95.2829 334.6145,97.8199" id="Fill-49" fill="#FF00FF"></path>
                    <path d="M315.4229,100.2291 C315.7409,102.7661 313.4659,105.1401 310.3409,105.5321 C307.2149,105.9251 304.4239,104.1861 304.1049,101.6501 C303.7869,99.1131 306.0619,96.7391 309.1879,96.3471 C312.3129,95.9541 315.1049,97.6921 315.4229,100.2291" id="Fill-51" fill="#FF00FF"></path>
                    <path d="M288.1547,122.5696 C288.1547,122.5696 282.4167,135.3586 268.5167,135.368609 C253.5527,135.3796 247.3487,125.0586 246.6377,123.7206" id="Stroke-53" stroke="#78FF00" stroke-width="4" stroke-linecap="round"></path>
                    <line x1="228.027" y1="126.8145" x2="220.6" y2="136.6005" id="Stroke-55" stroke="#FFFFFF" stroke-width="4" stroke-linecap="round"></line>
                    <polygon id="Fill-57" fill="#FF1DDA" points="167.2055 98.1121 175.4755 105.5811 202.1255 75.1741 211.6505 72.7271 198.5005 63.4181"></polygon>
                    <polygon id="Stroke-59" stroke="#FF1DDA" stroke-width="4" stroke-linecap="round" points="167.2055 98.1121 175.4755 105.5811 202.1255 75.1741 211.6505 72.7271 198.5005 63.4181"></polygon>
                    <line x1="92.9901" y1="74.737" x2="92.9901" y2="93.261" id="Stroke-61" stroke="#FFFFFF" stroke-width="4" stroke-linecap="round"></line>
                    <polygon id="Stroke-63" stroke="#78FF00" stroke-width="4" stroke-linecap="round" points="24.6602 31.0477 14.5242 43.1057 14.5242 107.2417 75.8642 107.2417 75.8642 31.0477"></polygon>
                    <mask id="mask-2" fill="white">
                        <use xlink:href="#path-1"></use>
                    </mask>
                    <g id="Clip-66"></g>
                    <polygon id="Stroke-65" stroke="#78FF00" stroke-width="4" stroke-linecap="round" mask="url(#mask-2)" points="26.058 56.038 58.563 56.038 58.563 43.98 26.058 43.98"></polygon>
                    <polygon id="Stroke-67" stroke="#78FF00" stroke-width="4" stroke-linecap="round" mask="url(#mask-2)" points="26.059 76.659 42.311 76.659 42.311 64.601 26.059 64.601"></polygon>
                    <path d="M68.8737,87.744 C68.8737,93.39 64.2967,97.967 58.6507,97.967 C53.0047,97.967 48.4267,93.39 48.4267,87.744 C48.4267,82.098 53.0047,77.521 58.6507,77.521 C64.2967,77.521 68.8737,82.098 68.8737,87.744 Z" id="Stroke-68" stroke="#78FF00" stroke-width="4" stroke-linecap="round" mask="url(#mask-2)"></path>
                    <polyline id="Stroke-69" stroke="#78FF00" stroke-width="4" stroke-linecap="round" mask="url(#mask-2)" points="54.9805 86.7975 58.8395 89.6785 66.8145 81.7035"></polyline>
                    <path d="M70.3487,140.6266 C69.9067,139.1796 69.6687,137.6416 69.6687,136.0476 C69.6687,127.4896 76.5317,120.5526 84.9987,120.5526 C93.4657,120.5526 100.3297,127.4896 100.3297,136.0476 C100.3297,144.6056 93.4657,151.5426 84.9987,151.5426 C82.1457,151.5426 79.4737,150.7546 77.1857,149.3816" id="Stroke-70" stroke="#FF00FF" stroke-width="4" stroke-linecap="round" mask="url(#mask-2)"></path>
                    <path d="M76.8551,149.175 C71.6371,148.214 63.6411,149.958 64.9231,148.874 C67.8851,146.368 70.4301,140.879 70.4301,140.879" id="Stroke-71" stroke="#FF00FF" stroke-width="4" stroke-linecap="round" mask="url(#mask-2)"></path>
                    <path d="M80.9991,136.0475 C80.9991,137.1525 80.1041,138.0475 78.9991,138.0475 C77.8941,138.0475 76.9991,137.1525 76.9991,136.0475 C76.9991,134.9425 77.8941,134.0475 78.9991,134.0475 C80.1041,134.0475 80.9991,134.9425 80.9991,136.0475" id="Fill-72" fill="#FF00FF" mask="url(#mask-2)"></path>
                    <path d="M86.9991,136.0475 C86.9991,137.1525 86.1041,138.0475 84.9991,138.0475 C83.8941,138.0475 82.9991,137.1525 82.9991,136.0475 C82.9991,134.9425 83.8941,134.0475 84.9991,134.0475 C86.1041,134.0475 86.9991,134.9425 86.9991,136.0475" id="Fill-73" fill="#FF00FF" mask="url(#mask-2)"></path>
                    <path d="M92.9991,136.0475 C92.9991,137.1525 92.1041,138.0475 90.9991,138.0475 C89.8941,138.0475 88.9991,137.1525 88.9991,136.0475 C88.9991,134.9425 89.8941,134.0475 90.9991,134.0475 C92.1041,134.0475 92.9991,134.9425 92.9991,136.0475" id="Fill-74" fill="#FF00FF" mask="url(#mask-2)"></path>
                    <path d="M104.2933,149.7433 C104.2933,149.7433 102.5723,152.8853 97.7083,156.0283" id="Stroke-75" stroke="#FFFFFF" stroke-width="4" stroke-linecap="round" mask="url(#mask-2)"></path>
                    <polyline id="Stroke-76" stroke="#78FF00" stroke-width="4" stroke-linecap="round" mask="url(#mask-2)" points="36.1941 142.1931 36.1941 138.7851 44.8441 138.0471 58.0391 160.6301 49.1261 169.5421 46.1551 166.3091"></polyline>
                    <polyline id="Stroke-77" stroke="#78FF00" stroke-width="4" stroke-linecap="round" mask="url(#mask-2)" points="22.4741 147.1954 20.5171 144.4054 13.0111 148.7684 15.1771 174.8334 27.5921 177.0124 28.1671 172.6594"></polyline>
                    <path d="M19.5048,150.7562 C19.5048,150.7562 27.8928,142.1932 40.6508,143.1542" id="Stroke-78" stroke="#78FF00" stroke-width="4" stroke-linecap="round" mask="url(#mask-2)"></path>
                    <path d="M22.2135,171.028 C22.2135,171.028 35.3205,174.261 50.3495,161.766" id="Stroke-79" stroke="#78FF00" stroke-width="4" stroke-linecap="round" mask="url(#mask-2)"></path>
                    <path d="M44.3664,155.0402 C44.3664,157.4062 42.4484,159.3242 40.0824,159.3242 C37.7164,159.3242 35.7984,157.4062 35.7984,155.0402 C35.7984,152.6742 37.7164,150.7562 40.0824,150.7562 C42.4484,150.7562 44.3664,152.6742 44.3664,155.0402" id="Fill-80" fill="#FFFFFF" mask="url(#mask-2)"></path>
                    <path d="M29.9438,160.3242 C29.9438,162.6902 28.0258,164.6082 25.6598,164.6082 C23.2938,164.6082 21.3758,162.6902 21.3758,160.3242 C21.3758,157.9582 23.2938,156.0402 25.6598,156.0402 C28.0258,156.0402 29.9438,157.9582 29.9438,160.3242" id="Fill-81" fill="#FFFFFF" mask="url(#mask-2)"></path>
                    <path d="M9.0977,139.6228 C9.0977,139.6228 10.4917,134.3928 17.1317,131.7718" id="Stroke-82" stroke="#FFFFFF" stroke-width="4" stroke-linecap="round" mask="url(#mask-2)"></path>
                    <path d="M2,136.7943 C2,136.7943 3.981,133.2513 5.408,131.8823" id="Stroke-83" stroke="#FFFFFF" stroke-width="4" stroke-linecap="round" mask="url(#mask-2)"></path>
                    <polygon id="Fill-84" fill="#FFFFFF" mask="url(#mask-2)" points="95.0872 51.8438 136.6792 2.7368 215.6692 62.5038 199.7052 62.0818 161.1772 104.7948"></polygon>
                    <polygon id="Stroke-85" stroke="#FFFFFF" stroke-width="4" stroke-linecap="round" mask="url(#mask-2)" points="95.0872 51.8438 136.6792 2.7368 215.6692 62.5038 199.7052 62.0818 161.1772 104.7948"></polygon>
                </g>
                <text id="Whitelist-alpha-info" transform="translate(181.700942, 64.551143) rotate(40.000000) translate(-181.700942, -64.551143) " font-family="Poppins-Medium, Poppins" font-size="14" font-weight="400" fill="#000000">
                    <tspan x="140.200942" y="49.5511432">Whitelist </tspan>
                    <tspan x="140.200942" y="69.5511432">alpha </tspan>
                    <tspan x="140.200942" y="89.5511432">information</tspan>
                </text>
            </g>
        </g>
    </g>
</svg>