<?xml version="1.0" encoding="UTF-8"?>
<svg width="420px" height="260px" viewBox="0 0 420 260" version="1.1" xmlns="http://www.w3.org/2000/svg" xmlns:xlink="http://www.w3.org/1999/xlink">
    <title>编组 28</title>
    <defs>
        <polygon id="path-1" points="0 243.577 353.863 243.577 353.863 0 0 0"></polygon>
    </defs>
    <g id="主要" stroke="none" stroke-width="1" fill="none" fill-rule="evenodd">
        <g id="membership-card/更新2" transform="translate(-1199.000000, -1633.000000)">
            <g id="编组-28" transform="translate(1199.000000, 1633.000000)">
                <rect id="矩形备份-9" fill="#FF0000" opacity="0" x="0" y="0" width="420" height="260"></rect>
                <g id="03插图" transform="translate(33.000000, 8.000000)">
                    <path d="M220.0061,126.4681 C220.0061,126.4681 229.9281,141.6261 250.7821,141.616105 C271.4091,141.6061 279.5921,125.3531 279.5921,125.3531" id="Stroke-1" stroke="#FEFFFD" stroke-width="4" stroke-linecap="round"></path>
                    <line x1="107.2037" y1="214.6644" x2="351.8637" y2="214.6644" id="Stroke-3" stroke="#78FF00" stroke-width="4" stroke-linecap="round"></line>
                    <line x1="298.3878" y1="231.7906" x2="324.9508" y2="231.7906" id="Stroke-5" stroke="#FEFFFD" stroke-width="4" stroke-linecap="round"></line>
                    <line x1="169.7666" y1="241.577" x2="284.4076" y2="241.577" id="Stroke-7" stroke="#FEFFFD" stroke-width="4" stroke-linecap="round"></line>
                    <line x1="85.1843" y1="236.3343" x2="148.4463" y2="236.3343" id="Stroke-9" stroke="#FEFFFD" stroke-width="4" stroke-linecap="round"></line>
                    <line x1="63.1649" y1="214.6644" x2="77.8449" y2="214.6644" id="Stroke-11" stroke="#78FF00" stroke-width="4" stroke-linecap="round"></line>
                    <line x1="2" y1="214.6644" x2="56.175" y2="214.6644" id="Stroke-13" stroke="#78FF00" stroke-width="4" stroke-linecap="round"></line>
                    <line x1="14.5825" y1="225.4994" x2="54.7765" y2="225.4994" id="Stroke-15" stroke="#FEFFFD" stroke-width="4" stroke-linecap="round"></line>
                    <mask id="mask-2" fill="white">
                        <use xlink:href="#path-1"></use>
                    </mask>
                    <g id="Clip-18"></g>
                    <polygon id="Stroke-17" stroke="#78FF00" stroke-width="4" stroke-linecap="round" mask="url(#mask-2)" points="14.583 182.16 143.204 182.16 143.204 147.209 14.583 147.209"></polygon>
                    <line x1="17.7281" y1="193.3441" x2="63.1651" y2="193.3441" id="Stroke-19" stroke="#FEFFFD" stroke-width="4" stroke-linecap="round" mask="url(#mask-2)"></line>
                    <line x1="4.0971" y1="148.9558" x2="4.0971" y2="162.9368" id="Stroke-20" stroke="#FEFFFD" stroke-width="4" stroke-linecap="round" mask="url(#mask-2)"></line>
                    <line x1="82.3882" y1="139.3122" x2="119.7862" y2="139.3122" id="Stroke-21" stroke="#FEFFFD" stroke-width="4" stroke-linecap="round" mask="url(#mask-2)"></line>
                    <path d="M33.9805,44.6259 L23.4955,44.6259 L23.4955,123.0919 L154.7375,123.0919 L154.7375,111.9069 L35.3065,111.9069 C34.5745,111.9069 33.9805,111.3139 33.9805,110.5809 L33.9805,44.6259 Z" id="Fill-22" fill="#FF1DDA" mask="url(#mask-2)"></path>
                    <path d="M33.9805,44.6259 L23.4955,44.6259 L23.4955,123.0919 L154.7375,123.0919 L154.7375,111.9069 L35.3065,111.9069 C34.5745,111.9069 33.9805,111.3139 33.9805,110.5809 L33.9805,44.6259 Z" id="Stroke-23" stroke="#FF1DDA" stroke-width="4" stroke-linecap="round" mask="url(#mask-2)"></path>
                    <line x1="139.5337" y1="136.5481" x2="143.2037" y2="130.9561" id="Stroke-24" stroke="#FF00FF" stroke-width="4" stroke-linecap="round" mask="url(#mask-2)"></line>
                    <line x1="151.9415" y1="139.3122" x2="158.0575" y2="133.7522" id="Stroke-25" stroke="#FF00FF" stroke-width="4" stroke-linecap="round" mask="url(#mask-2)"></line>
                    <line x1="154.7375" y1="148.9558" x2="161.3785" y2="148.9558" id="Stroke-26" stroke="#FF00FF" stroke-width="4" stroke-linecap="round" mask="url(#mask-2)"></line>
                    <line x1="186.019" y1="110.3346" x2="186.019" y2="134.6256" id="Stroke-27" stroke="#FF00FF" stroke-width="4" stroke-linecap="round" mask="url(#mask-2)"></line>
                    <path d="M185.0703,142.1123 C181.5893,145.7883 176.4013,146.5273 173.4833,143.7643 C170.5653,141.0003 171.0223,135.7803 174.5043,132.1043 C177.9853,128.4293 183.1723,127.6893 186.0903,130.4533 C189.0083,133.2163 188.5513,138.4363 185.0703,142.1123" id="Fill-28" fill="#FF00FF" mask="url(#mask-2)"></path>
                    <path d="M282.4134,46.046 C282.4134,46.046 282.1444,75.182 279.4424,87.409 C276.8184,99.288 265.0814,107.544 252.8744,108.415 C243.5594,109.079 226.3784,105.648 222.9964,86.885 C219.9684,70.091 219.8474,60.778 219.8474,60.778" id="Stroke-29" stroke="#78FF00" stroke-width="4" stroke-linecap="round" mask="url(#mask-2)"></path>
                    <path d="M220.0061,64.0396 C220.0061,64.0396 219.6441,51.7686 211.4461,53.2106 C206.0121,54.1666 205.7091,59.4966 207.1201,63.2656 C209.3141,69.1256 219.6441,73.7196 219.6441,73.7196" id="Stroke-30" stroke="#78FF00" stroke-width="4" stroke-linecap="round" mask="url(#mask-2)"></path>
                    <path d="M281.8501,62.6011 C281.8501,62.6011 281.8491,51.8461 289.8371,53.2181 C295.2751,54.1521 295.5741,59.5041 294.1631,63.2731 C291.9691,69.1331 282.0621,73.7271 282.0621,73.7271" id="Stroke-31" stroke="#78FF00" stroke-width="4" stroke-linecap="round" mask="url(#mask-2)"></path>
                    <path d="M219.8477,60.7782 C219.8477,60.7782 207.6327,34.5692 219.6107,16.3412 C224.9707,8.1862 238.2257,1.1462 255.6767,2.0842 C273.8507,3.0602 278.7437,9.5842 291.7917,13.5452 C290.6267,20.5352 295.7257,38.0112 282.6957,44.7682 C256.2057,58.5072 228.7577,26.4582 219.8477,60.7782 Z" id="Stroke-32" stroke="#78FF00" stroke-width="4" stroke-linecap="round" mask="url(#mask-2)"></path>
                    <path d="M244.1149,66.9261 C244.1149,71.4801 241.0749,75.1711 237.3249,75.1711 C233.5749,75.1711 230.5349,71.4801 230.5349,66.9261 C230.5349,62.3721 233.5749,58.6811 237.3249,58.6811 C241.0749,58.6811 244.1149,62.3721 244.1149,66.9261" id="Fill-33" fill="#FFFFFF" mask="url(#mask-2)"></path>
                    <path d="M271.7265,66.9261 C271.7265,71.4801 268.6865,75.1711 264.9365,75.1711 C261.1865,75.1711 258.1465,71.4801 258.1465,66.9261 C258.1465,62.3721 261.1865,58.6811 264.9365,58.6811 C268.6865,58.6811 271.7265,62.3721 271.7265,66.9261" id="Fill-34" fill="#FFFFFF" mask="url(#mask-2)"></path>
                    <path d="M239.7727,90.5742 C239.7727,90.5742 250.7827,96.1662 261.7917,90.5742" id="Stroke-35" stroke="#78FF00" stroke-width="4" stroke-linecap="round" mask="url(#mask-2)"></path>
                    <path d="M239.1093,106.4541 C239.1093,106.4541 240.2083,118.4611 237.8343,123.0041" id="Stroke-36" stroke="#78FF00" stroke-width="4" stroke-linecap="round" mask="url(#mask-2)"></path>
                    <path d="M262.029,107.0681 C262.029,107.0681 259.785,115.8391 262.827,123.1791" id="Stroke-37" stroke="#78FF00" stroke-width="4" stroke-linecap="round" mask="url(#mask-2)"></path>
                    <path d="M238.2494,120.2957 C237.2224,120.4707 212.7564,125.8237 202.4464,139.3117 C192.1354,152.8007 174.4854,214.6647 174.4854,214.6647" id="Stroke-38" stroke="#78FF00" stroke-width="4" stroke-linecap="round" mask="url(#mask-2)"></path>
                    <path d="M263.8627,120.2957 C264.8897,120.4707 289.3557,125.8237 299.6657,139.3117 C309.9767,152.8007 327.6267,214.6647 327.6267,214.6647" id="Stroke-39" stroke="#78FF00" stroke-width="4" stroke-linecap="round" mask="url(#mask-2)"></path>
                    <path d="M229.8057,122.6282 C229.8057,122.6282 237.1647,134.1602 250.3877,133.8102 C264.2127,133.4452 272.7117,122.7622 272.7117,122.7622" id="Stroke-40" stroke="#78FF00" stroke-width="4" stroke-linecap="round" mask="url(#mask-2)"></path>
                    <line x1="219.8477" y1="167.4801" x2="197.1457" y2="214.6641" id="Stroke-41" stroke="#78FF00" stroke-width="4" stroke-linecap="round" mask="url(#mask-2)"></line>
                    <line x1="284.4929" y1="166.315" x2="306.2829" y2="214.664" id="Stroke-42" stroke="#78FF00" stroke-width="4" stroke-linecap="round" mask="url(#mask-2)"></line>
                    <line x1="188.1161" y1="147.2083" x2="180.7761" y2="165.9073" id="Stroke-43" stroke="#FEFFFD" stroke-width="4" stroke-linecap="round" mask="url(#mask-2)"></line>
                    <line x1="331.4168" y1="188.9752" x2="335.4358" y2="200.6842" id="Stroke-44" stroke="#FEFFFD" stroke-width="4" stroke-linecap="round" mask="url(#mask-2)"></line>
                    <line x1="327.627" y1="178.1402" x2="328.97" y2="181.9852" id="Stroke-45" stroke="#FEFFFD" stroke-width="4" stroke-linecap="round" mask="url(#mask-2)"></line>
                    <path d="M286.7373,95.7132 C286.7373,95.7132 284.4523,101.5492 279.6753,104.9282" id="Stroke-46" stroke="#FEFFFD" stroke-width="4" stroke-linecap="round" mask="url(#mask-2)"></path>
                    <path d="M210.5433,9.7328 C210.5433,9.7328 205.4173,14.5098 204.4853,21.1498" id="Stroke-47" stroke="#FEFFFD" stroke-width="4" stroke-linecap="round" mask="url(#mask-2)"></path>
                    <path d="M205.4365,27.8094 C205.4365,28.9144 204.5415,29.8094 203.4365,29.8094 C202.3315,29.8094 201.4365,28.9144 201.4365,27.8094 C201.4365,26.7044 202.3315,25.8094 203.4365,25.8094 C204.5415,25.8094 205.4365,26.7044 205.4365,27.8094" id="Fill-48" fill="#FFFFFF" mask="url(#mask-2)"></path>
                    <polygon id="Fill-49" fill="#FF00FF" mask="url(#mask-2)" points="26.6883 157.4538 31.5103 157.4538 33.2643 162.5888 37.7723 157.4538 43.1373 157.4538 39.2123 172.0648 34.3493 172.0648 36.2913 164.8218 31.5313 170.0188 31.4483 170.0188 29.4863 164.8218 27.5443 172.0648 22.7643 172.0648"></polygon>
                    <path d="M49.6463,165.3854 C49.7083,165.2184 49.7293,165.0514 49.7293,164.8844 C49.7293,164.2584 49.2703,163.6734 48.4983,163.6734 C47.7883,163.6734 46.8703,164.1124 46.4313,165.3854 L49.6463,165.3854 Z M47.8513,168.9964 C48.6243,168.9964 49.3543,168.6834 50.1473,168.0774 L52.3383,170.4794 C51.0443,171.6264 49.4583,172.3364 47.4543,172.3364 C43.9893,172.3364 41.8603,170.3114 41.8603,167.3264 C41.8603,163.8624 44.4483,160.3964 48.7903,160.3964 C52.5473,160.3964 53.7993,162.9434 53.7993,165.3434 C53.7993,166.0954 53.6743,166.8254 53.4653,167.4734 L46.1393,167.4734 C46.2023,168.3914 46.7863,168.9964 47.8513,168.9964 L47.8513,168.9964 Z" id="Fill-50" fill="#FF00FF" mask="url(#mask-2)"></path>
                    <path d="M54.9041,169.2057 C54.9041,168.7257 54.9871,168.2037 55.1331,167.6187 L56.0101,164.3207 L54.6751,164.3207 L55.6551,160.6677 L56.9911,160.6677 L57.7631,157.8087 L62.5021,157.8087 L61.7291,160.6677 L64.3601,160.6677 L63.3791,164.3207 L60.7491,164.3207 L60.1011,166.7637 C59.9971,167.1397 59.9561,167.4097 59.9561,167.6397 C59.9561,168.1197 60.2481,168.3707 60.9161,168.3707 C61.2921,168.3707 61.6261,168.3077 62.2941,168.1197 L61.2701,171.9807 C60.4571,172.1897 59.6631,172.3147 58.8701,172.3147 C56.1981,172.3147 54.9041,171.2927 54.9041,169.2057" id="Fill-51" fill="#FF00FF" mask="url(#mask-2)"></path>
                    <path d="M70.3065,167.7858 L70.4315,167.3058 C70.1195,167.2228 69.8685,167.1808 69.5555,167.1808 C68.3655,167.1808 67.6975,167.7438 67.6975,168.7248 C67.6975,169.3088 68.0315,169.6228 68.4695,169.6228 C69.2215,169.6228 70.0355,168.8498 70.3065,167.7858 M63.1255,169.2058 C63.1255,166.8058 65.0045,165.2388 68.2195,165.2388 C69.0755,165.2388 69.9525,165.3648 70.8075,165.6148 L70.8495,165.4898 C70.8915,165.3438 70.9325,165.1138 70.9325,164.9268 C70.9325,164.2168 70.3685,163.8198 69.1795,163.8198 C68.1355,163.8198 66.8415,164.0288 66.0695,164.3208 L65.4435,161.1058 C66.6745,160.7298 68.4915,160.5008 70.1395,160.5008 C73.9175,160.5008 75.6705,161.9408 75.6705,164.2168 C75.6705,164.6968 75.6085,165.2388 75.4625,165.8038 L73.7925,172.0648 L69.0545,172.0648 L69.3675,170.9168 C68.3445,171.7728 67.4895,172.3148 66.1735,172.3148 C64.4195,172.3148 63.1255,171.1678 63.1255,169.2058" id="Fill-52" fill="#FF00FF" mask="url(#mask-2)"></path>
                    <polygon id="Fill-53" fill="#FF00FF" mask="url(#mask-2)" points="76.5448 160.6676 81.4088 160.6676 81.7218 166.3876 85.1038 160.6676 90.1128 160.6676 82.4318 172.1486 78.0898 172.1486"></polygon>
                    <path d="M96.2889,165.3854 C96.3509,165.2184 96.3719,165.0514 96.3719,164.8844 C96.3719,164.2584 95.9129,163.6734 95.1409,163.6734 C94.4309,163.6734 93.5129,164.1124 93.0739,165.3854 L96.2889,165.3854 Z M94.4939,168.9964 C95.2669,168.9964 95.9969,168.6834 96.7899,168.0774 L98.9809,170.4794 C97.6869,171.6264 96.1009,172.3364 94.0969,172.3364 C90.6319,172.3364 88.5029,170.3114 88.5029,167.3264 C88.5029,163.8624 91.0909,160.3964 95.4329,160.3964 C99.1899,160.3964 100.4419,162.9434 100.4419,165.3434 C100.4419,166.0954 100.3169,166.8254 100.1079,167.4734 L92.7819,167.4734 C92.8449,168.3914 93.4289,168.9964 94.4939,168.9964 L94.4939,168.9964 Z" id="Fill-54" fill="#FF00FF" mask="url(#mask-2)"></path>
                    <path d="M102.8621,160.6676 L107.6001,160.6676 L106.9951,162.9636 C108.0591,161.4196 109.3741,160.4176 111.2121,160.5006 L109.8761,165.5316 L109.3741,165.5316 C107.1401,165.5316 105.9511,166.7216 105.3031,169.2266 L104.5521,172.0646 L99.8141,172.0646 L102.8621,160.6676 Z" id="Fill-55" fill="#FF00FF" mask="url(#mask-2)"></path>
                    <path d="M108.8699,170.4372 L110.9579,167.7232 C111.9799,168.5382 113.7549,169.2682 115.0489,169.2682 C115.5289,169.2682 115.7169,169.0802 115.7169,168.8722 C115.7169,168.4962 115.3619,168.3072 113.9419,167.7862 C112.1049,167.1182 110.8329,166.2832 110.8329,164.4882 C110.8329,162.2122 112.7529,160.3962 116.1769,160.3962 C118.4729,160.3962 120.4139,161.0852 121.5609,161.9612 L119.4739,164.6752 C118.5979,164.0702 117.1369,163.4652 116.0089,163.4652 C115.4869,163.4652 115.2579,163.6112 115.2579,163.8402 C115.2579,164.1542 115.5089,164.2792 116.9069,164.7802 C118.7229,165.4272 120.1419,166.2202 120.1419,168.2242 C120.1419,170.1242 118.8069,172.3362 114.9659,172.3362 C112.3769,172.3362 110.2679,171.5012 108.8699,170.4372" id="Fill-56" fill="#FF00FF" mask="url(#mask-2)"></path>
                    <path d="M128.9285,165.3854 C128.9905,165.2184 129.0115,165.0514 129.0115,164.8844 C129.0115,164.2584 128.5525,163.6734 127.7805,163.6734 C127.0715,163.6734 126.1525,164.1124 125.7135,165.3854 L128.9285,165.3854 Z M127.1335,168.9964 C127.9055,168.9964 128.6365,168.6834 129.4295,168.0774 L131.6205,170.4794 C130.3265,171.6264 128.7415,172.3364 126.7375,172.3364 C123.2715,172.3364 121.1425,170.3114 121.1425,167.3264 C121.1425,163.8624 123.7315,160.3964 128.0735,160.3964 C131.8295,160.3964 133.0825,162.9434 133.0825,165.3434 C133.0825,166.0954 132.9565,166.8254 132.7485,167.4734 L125.4215,167.4734 C125.4845,168.3914 126.0695,168.9964 127.1335,168.9964 L127.1335,168.9964 Z" id="Fill-57" fill="#FF00FF" mask="url(#mask-2)"></path>
                    <polygon id="Fill-58" fill="#FFFFFF" mask="url(#mask-2)" points="33.9805 34.3153 33.9805 111.9073 163.6505 111.9073 163.6505 46.5483 176.5825 34.3153"></polygon>
                    <polygon id="Stroke-59" stroke="#FFFFFF" stroke-width="4" stroke-linecap="round" mask="url(#mask-2)" points="33.9805 34.3153 33.9805 111.9073 163.6505 111.9073 163.6505 46.5483 176.5825 34.3153"></polygon>
                </g>
                <text id="metaverse-special-lo" font-family="Poppins-Medium, Poppins" font-size="16" font-weight="400" fill="#000000">
                    <tspan x="83" y="72">metaverse </tspan>
                    <tspan x="83" y="95">special logo</tspan>
                </text>
            </g>
        </g>
    </g>
</svg>