<?xml version="1.0" encoding="UTF-8"?>
<svg width="420px" height="260px" viewBox="0 0 420 260" version="1.1" xmlns="http://www.w3.org/2000/svg" xmlns:xlink="http://www.w3.org/1999/xlink">
    <title>编组 27</title>
    <g id="主要" stroke="none" stroke-width="1" fill="none" fill-rule="evenodd">
        <g id="membership-card/更新2" transform="translate(-749.000000, -1633.000000)">
            <g id="编组-27" transform="translate(749.000000, 1633.000000)">
                <rect id="矩形备份-8" fill="#FF0000" opacity="0" x="0" y="0" width="420" height="260"></rect>
                <g id="02插图" transform="translate(38.000000, 10.000000)">
                    <path d="M69.1652,122.046255 C69.1652,122.046255 75.8932,136.431255 96.0772,133.810255 C116.3662,131.175255 118.4462,118.210255 119.2332,115.699255" id="Stroke-1" stroke="#FFFFFF" stroke-width="4" stroke-linecap="round"></path>
                    <path d="M127.9043,41.9347546 C127.9043,41.9347546 132.1743,77.6027546 119.0083,94.6837546 C109.7193,106.735755 95.7693,108.953755 83.2013,101.658755 C72.0823,95.2047546 63.1973,79.8257546 59.7653,73.2387546 C58.7683,71.3247546 57.2933,69.7207546 55.5263,68.4817546 C47.6703,62.9737546 45.6573,55.0947546 50.9613,50.6467546 C59.5113,43.4767546 68.2373,57.0387546 68.2373,57.0387546 C73.7493,49.5907546 77.6153,41.5577546 94.3643,44.2397546 C122.5683,48.7537546 129.8703,51.6447546 132.7373,20.1277546 C132.7373,20.1277546 126.0033,17.2597546 114.5983,9.56775456 C82.8633,-11.8342454 35.5573,3.07275456 51.5473,50.2377546" id="Stroke-3" stroke="#78FF00" stroke-width="4" stroke-linecap="round"></path>
                    <path d="M120.8941,64.7445546 C120.8641,69.5705546 117.9971,73.4645546 114.4901,73.4426473 C110.9831,73.4205546 108.1651,69.4905546 108.1951,64.6655546 C108.2251,59.8395546 111.0931,55.9455546 114.5991,55.9674618 C118.1061,55.9895546 120.9241,59.9185546 120.8941,64.7445546" id="Fill-5" fill="#FFFFFF"></path>
                    <path d="M100.7328,65.6377546 C100.6978,71.2357546 97.0968,75.7507546 92.6888,75.723875 C88.2818,75.6957546 84.7368,71.1357546 84.7718,65.5377546 C84.8068,59.9397546 88.4088,55.4247546 92.8158,55.4516341 C97.2238,55.4797546 100.7678,60.0397546 100.7328,65.6377546" id="Fill-7" fill="#FFFFFF"></path>
                    <path d="M84.3553,84.6423546 C84.3553,84.6423546 92.7733,89.2353546 104.8343,88.7613546" id="Stroke-9" stroke="#78FF00" stroke-width="4" stroke-linecap="round"></path>
                    <path d="M80.4536,100.248255 C80.4536,100.248255 81.3726,110.938255 77.8776,118.395255" id="Stroke-11" stroke="#78FF00" stroke-width="4" stroke-linecap="round"></path>
                    <path d="M103.883,105.836755 C103.883,105.836755 103.29,111.042755 105.387,116.634755" id="Stroke-13" stroke="#78FF00" stroke-width="4" stroke-linecap="round"></path>
                    <path d="M80.8737,156.003855 L49.1307,188.070855 C48.2467,188.962855 48.9287,190.474855 50.1827,190.404855 L93.4427,187.958855 C94.8727,187.877855 96.0777,189.015855 96.0777,190.448855 L96.0777,199.728855 C96.0777,200.932855 95.2167,201.964855 94.0327,202.181855 L38.8817,212.282855 C37.5917,212.498855 36.2737,212.101855 35.3177,211.209855 L21.0847,197.934855 C19.6617,196.607855 19.3327,194.481855 20.2897,192.787855 C25.6207,183.361855 42.6797,153.271855 51.1647,139.226855 C61.3007,122.450855 77.8777,118.394855 77.8777,118.394855" id="Stroke-15" stroke="#78FF00" stroke-width="4" stroke-linecap="round"></path>
                    <path d="M105.3871,116.634455 C105.3871,116.634455 116.8741,112.043455 129.1071,118.249455 C138.8521,123.193455 158.8151,147.091455 158.8151,147.091455" id="Stroke-17" stroke="#78FF00" stroke-width="4" stroke-linecap="round"></path>
                    <polyline id="Stroke-19" stroke="#78FF00" stroke-width="4" stroke-linecap="round" points="120.8348 204.414755 120.8348 215.013755 202.6208 215.013755 202.6208 148.023755 120.8348 148.023755 120.8348 189.035755"></polyline>
                    <line x1="125.2037" y1="142.081555" x2="128.0577" y2="147.091555" id="Stroke-21" stroke="#78FF00" stroke-width="4" stroke-linecap="round"></line>
                    <path d="M96.0775,190.448955 C96.0775,190.448955 100.1845,189.748955 105.3875,187.809955 C106.6645,187.332955 114.2525,181.372955 117.0485,184.051955 C119.8445,186.731955 116.0875,188.420955 113.6855,190.343955 C110.2275,193.110955 113.7865,191.187955 125.2035,189.556955 C136.6215,187.925955 133.3005,204.294955 113.8445,202.780955 C94.3885,201.265955 95.9955,200.327955 95.9955,200.327955 L96.0775,190.448955 Z" id="Stroke-23" stroke="#78FF00" stroke-width="4" stroke-linecap="round"></path>
                    <path d="M78.3303,117.343655 C78.3303,117.343655 83.6353,125.454655 94.5953,124.809655 C107.9613,124.023655 108.7053,115.699655 108.7053,115.699655" id="Stroke-25" stroke="#78FF00" stroke-width="4" stroke-linecap="round"></path>
                    <path d="M53.3495,117.557355 C49.2935,120.077355 44.4185,126.605355 42.4275,130.139355" id="Stroke-27" stroke="#FFFFFF" stroke-width="4" stroke-linecap="round"></path>
                    <path d="M138.0629,109.780655 C138.0629,109.780655 146.3639,116.115655 149.7279,120.702655" id="Stroke-29" stroke="#FFFFFF" stroke-width="4" stroke-linecap="round"></path>
                    <path d="M47.4995,2.03445456 C47.4995,2.03445456 42.0675,5.87945456 36.6355,17.2674546" id="Stroke-31" stroke="#FFFFFF" stroke-width="4" stroke-linecap="round"></path>
                    <path d="M35.2566,26.3120546 C35.2566,26.3120546 34.9036,31.0920546 36.1606,35.8720546" id="Stroke-33" stroke="#FFFFFF" stroke-width="4" stroke-linecap="round"></path>
                    <path d="M169.5337,107.246655 L181.7697,89.7986546 C182.1287,89.2866546 182.8927,89.3046546 183.2267,89.8326546 L186.8027,95.4796546" id="Stroke-35" stroke="#FF00FF" stroke-width="4" stroke-linecap="round"></path>
                    <line x1="178.4273" y1="94.8167546" x2="180.5433" y2="98.9167546" id="Stroke-37" stroke="#FF00FF" stroke-width="4" stroke-linecap="round"></line>
                    <path d="M170.711,109.057555 C168.914,111.145555 165.209,110.902555 162.437,108.515555 C159.665,106.128555 158.875,102.501555 160.672,100.414555 C162.469,98.3265546 166.174,98.5695546 168.946,100.955555 C171.718,103.342555 172.508,106.969555 170.711,109.057555" id="Fill-39" fill="#FF00FF"></path>
                    <line x1="0" y1="228.810555" x2="207.611" y2="228.810555" id="Stroke-41" stroke="#78FF00" stroke-width="4" stroke-linecap="round"></line>
                    <line x1="100.8124" y1="240.125055" x2="141.9224" y2="240.125055" id="Stroke-43" stroke="#FFFFFF" stroke-width="4" stroke-linecap="round"></line>
                    <line x1="171.2813" y1="240.125055" x2="188.4073" y2="240.125055" id="Stroke-45" stroke="#FFFFFF" stroke-width="4" stroke-linecap="round"></line>
                    <line x1="223.4753" y1="217.343555" x2="301.4173" y2="217.343555" id="Stroke-47" stroke="#FFFFFF" stroke-width="4" stroke-linecap="round"></line>
                    <line x1="229.0676" y1="185.188255" x2="338.4656" y2="185.188255" id="Stroke-49" stroke="#FFFFFF" stroke-width="4" stroke-linecap="round"></line>
                    <polygon id="Fill-51" fill="#FF1DDA" points="201.4959 76.7224546 218.9319 76.7224546 218.9319 151.285455 207.9799 151.285455 207.9799 83.4794546"></polygon>
                    <polygon id="Stroke-53" stroke="#FF1DDA" stroke-width="4" stroke-linecap="round" points="201.4959 76.7224546 218.9319 76.7224546 218.9319 151.285455 207.9799 151.285455 207.9799 83.4794546"></polygon>
                    <path d="M174.2284,153.793855 L160.9234,153.710813 C159.8364,153.703855 158.9494,154.579855 158.9424,155.666855 L158.8814,165.505855 C150.1874,165.879855 143.2224,172.996855 143.1674,181.793855 C143.1104,190.866855 150.4184,198.266855 159.4914,198.324186 C168.5634,198.380855 175.9644,191.071855 176.0204,181.999855 L176.185431,155.774855 C176.1914,154.687855 175.3154,153.800855 174.2284,153.793855 Z" id="Stroke-55" stroke="#78FF00" stroke-width="4" stroke-linecap="round"></path>
                    <path d="M166.4767,185.129355 C169.6297,185.149355 172.2017,182.609355 172.2207,179.456355 L160.8037,179.385355 C160.7837,182.537355 163.3237,185.109355 166.4767,185.129355" id="Fill-57" fill="#FFFFFF"></path>
                    <path d="M152.7279,185.086355 C155.8809,185.086355 158.4369,182.530355 158.4369,179.377355 L147.0189,179.377355 C147.0189,182.530355 149.5749,185.086355 152.7279,185.086355" id="Fill-59" fill="#FFFFFF"></path>
                    <path d="M121.6396,214.489755 C121.6396,214.489755 136.0096,198.003755 158.8156,198.323755 C181.6206,198.644755 200.3996,215.013755 200.3996,215.013755" id="Stroke-61" stroke="#78FF00" stroke-width="4" stroke-linecap="round"></path>
                    <line x1="48.0034" y1="210.612355" x2="42.4274" y2="226.504355" id="Stroke-63" stroke="#78FF00" stroke-width="4" stroke-linecap="round"></line>
                    <polygon id="Fill-65" fill="#FFFFFF" points="199.5919 61.5768546 344.0579 61.5768546 344.0579 157.110855 218.9319 157.110855 218.9319 73.4598546"></polygon>
                    <polygon id="Stroke-67" stroke="#FFFFFF" stroke-width="4" stroke-linecap="round" points="199.5919 61.5768546 344.0579 61.5768546 344.0579 157.110855 218.9319 157.110855 218.9319 73.4598546"></polygon>
                </g>
                <text id="Get-free-avatar" font-family="Poppins-Medium, Poppins" font-size="16" font-weight="400" fill="#000000">
                    <tspan x="284" y="112">Get free </tspan>
                    <tspan x="284" y="135">avatar</tspan>
                </text>
            </g>
        </g>
    </g>
</svg>