<?xml version="1.0" encoding="UTF-8"?>
<svg width="420px" height="260px" viewBox="0 0 420 260" version="1.1" xmlns="http://www.w3.org/2000/svg" xmlns:xlink="http://www.w3.org/1999/xlink">
    <title>编组 26</title>
    <g id="主要" stroke="none" stroke-width="1" fill="none" fill-rule="evenodd">
        <g id="membership-card/更新2" transform="translate(-299.000000, -1633.000000)">
            <g id="编组-26" transform="translate(299.000000, 1633.000000)">
                <rect id="矩形" fill="#FF0000" opacity="0" x="0" y="0" width="420" height="260"></rect>
                <g id="01插图" transform="translate(40.000000, 17.000000)">
                    <path d="M54.3122,120.7186 C54.3122,120.7186 55.5912,139.0036 83.9812,140.0526 C106.6162,140.8886 111.6432,124.6036 111.6432,124.6036" id="Stroke-1" stroke="#FFFFFF" stroke-width="4" stroke-linecap="round"></path>
                    <line x1="209.1578" y1="90.2045" x2="289.0218" y2="90.2045" id="Stroke-3" stroke="#FFFFFF" stroke-width="4" stroke-linecap="round"></line>
                    <line x1="269.0995" y1="97.8938" x2="308.5945" y2="97.8938" id="Stroke-5" stroke="#FFFFFF" stroke-width="4" stroke-linecap="round"></line>
                    <line x1="269.4423" y1="9.2873" x2="273.8853" y2="2.7543" id="Stroke-7" stroke="#FFFFFF" stroke-width="4" stroke-linecap="round"></line>
                    <line x1="276.4805" y1="19.8873" x2="285.9435" y2="15.9313" id="Stroke-9" stroke="#FFFFFF" stroke-width="4" stroke-linecap="round"></line>
                    <line x1="278.7393" y1="31.8324" x2="286.3803" y2="34.9304" id="Stroke-11" stroke="#FFFFFF" stroke-width="4" stroke-linecap="round"></line>
                    <polygon id="Stroke-13" stroke="#78FF00" stroke-width="4" stroke-linecap="round" points="260.6355 62.7065 260.6355 27.0565 229.7615 9.2305 198.8875 27.0565 198.8875 62.7065 229.7615 80.5315"></polygon>
                    <polyline id="Stroke-15" stroke="#78FF00" stroke-width="4" stroke-linecap="round" points="229.7614 80.5318 229.7614 44.8818 260.6354 27.0558"></polyline>
                    <line x1="198.8872" y1="27.0561" x2="229.7612" y2="44.8811" id="Stroke-17" stroke="#78FF00" stroke-width="4" stroke-linecap="round"></line>
                    <line x1="169.9802" y1="218.7091" x2="213.7602" y2="218.7091" id="Stroke-19" stroke="#FFFFFF" stroke-width="4" stroke-linecap="round"></line>
                    <line x1="61.864" y1="224.5343" x2="152.478" y2="224.5343" id="Stroke-21" stroke="#FFFFFF" stroke-width="4" stroke-linecap="round"></line>
                    <line x1="0" y1="208.078" x2="219.119" y2="209.301" id="Stroke-23" stroke="#78FF00" stroke-width="4" stroke-linecap="round"></line>
                    <line x1="179.0414" y1="176.0684" x2="167.6244" y2="195.1754" id="Stroke-25" stroke="#FFFFFF" stroke-width="4" stroke-linecap="round"></line>
                    <path d="M36.9057,118.5151 C36.9057,118.5151 29.2167,125.7381 21.5267,137.8551" id="Stroke-27" stroke="#FFFFFF" stroke-width="4" stroke-linecap="round"></path>
                    <path d="M17.5032,147.117 C17.5032,147.117 14.5602,152.547 13.4252,155.738" id="Stroke-29" stroke="#FFFFFF" stroke-width="4" stroke-linecap="round"></path>
                    <path d="M123.9638,74.7385 C123.9638,74.7385 124.0498,85.3695 120.9058,93.0005" id="Stroke-31" stroke="#FFFFFF" stroke-width="4" stroke-linecap="round"></path>
                    <path d="M115.8894,43.1474 C115.8894,43.1474 120.3824,78.7874 107.3244,95.9514 C98.1104,108.0614 84.1744,110.3664 71.5614,103.1504 C60.4014,96.7654 51.4204,81.4424 47.9474,74.8774 C46.9384,72.9704 45.4534,71.3754 43.6794,70.1474 C35.7884,64.6884 33.7264,56.8224 39.0024,52.3404 C47.5074,45.1174 56.3184,58.6244 56.3184,58.6244 C61.7834,51.1424 65.5994,43.0854 82.3644,45.6614 C110.5964,50.0004 117.9164,52.8444 120.5854,21.3104 C120.5854,21.3104 113.8334,18.4844 102.3814,10.8644 C70.5134,-10.3386 23.3004,4.8644 39.5854,51.9284" id="Stroke-33" stroke="#78FF00" stroke-width="4" stroke-linecap="round"></path>
                    <path d="M109.0221,66.0006 C109.0221,70.8266 106.1791,74.7386 102.6721,74.7386 C99.1661,74.7386 96.3231,70.8266 96.3231,66.0006 C96.3231,61.1746 99.1661,57.2626 102.6721,57.2626 C106.1791,57.2626 109.0221,61.1746 109.0221,66.0006" id="Fill-35" fill="#FFFFFF"></path>
                    <path d="M88.8668,67.02 C88.8668,72.618 85.2938,77.156 80.8858,77.156 C76.4788,77.156 72.9058,72.618 72.9058,67.02 C72.9058,61.422 76.4788,56.884 80.8858,56.884 C85.2938,56.884 88.8668,61.422 88.8668,67.02" id="Fill-37" fill="#FFFFFF"></path>
                    <path d="M72.6086,86.1268 C72.6086,86.1268 81.0556,90.6668 93.1136,90.1168" id="Stroke-39" stroke="#78FF00" stroke-width="4" stroke-linecap="round"></path>
                    <path d="M32.7116,9.2338 C32.7116,9.2338 22.2266,19.4858 23.3916,37.5448" id="Stroke-41" stroke="#FFFFFF" stroke-width="4" stroke-linecap="round"></path>
                    <path d="M37.9489,4.864 C37.9489,4.864 43.1329,0.524 45.5359,0" id="Stroke-43" stroke="#FFFFFF" stroke-width="4" stroke-linecap="round"></path>
                    <path d="M70.1096,102.2627 C70.1096,102.2627 72.3236,113.0977 66.3816,121.3117" id="Stroke-45" stroke="#78FF00" stroke-width="4" stroke-linecap="round"></path>
                    <path d="M93.1134,106.2111 C93.1134,106.2111 90.6724,117.9911 97.1384,121.3111" id="Stroke-47" stroke="#78FF00" stroke-width="4" stroke-linecap="round"></path>
                    <path d="M68.4473,117.6845 C68.4473,117.6845 49.9543,119.1555 41.7403,128.1855 C33.5273,137.2145 22.6923,171.7345 13.4253,207.2915" id="Stroke-49" stroke="#78FF00" stroke-width="4" stroke-linecap="round"></path>
                    <path d="M94.1547,117.6365 C94.1547,117.6365 105.8767,116.4175 113.5657,126.9035 C121.2547,137.3885 142.7507,168.3205 142.7507,168.3205" id="Stroke-51" stroke="#78FF00" stroke-width="4" stroke-linecap="round"></path>
                    <line x1="102.3813" y1="151.8354" x2="120.9053" y2="207.2914" id="Stroke-53" stroke="#78FF00" stroke-width="4" stroke-linecap="round"></line>
                    <path d="M138.7308,176.0684 L173.2388,131.3054 C174.1198,130.1624 175.8068,130.0614 176.8178,131.0904 L185.0558,139.4784 C185.7768,140.2124 185.9438,141.3274 185.4688,142.2404 L151.6628,207.2914" id="Stroke-55" stroke="#78FF00" stroke-width="4" stroke-linecap="round"></path>
                    <line x1="49.9543" y1="153.117" x2="46.3763" y2="207.292" id="Stroke-57" stroke="#78FF00" stroke-width="4" stroke-linecap="round"></line>
                    <path d="M176.9342,131.2088 C176.9342,131.2088 179.4932,126.1608 179.4932,121.0928 C179.4932,116.0248 180.0172,111.6118 182.4202,111.0008 C184.6212,110.4398 185.7402,115.0628 185.0412,118.1658 C186.2212,118.8648 188.0782,119.7858 188.3622,119.3448 C191.9572,113.7548 195.3642,104.4868 200.9442,108.9038 C209.1142,115.3698 195.7302,134.0528 185.0552,139.4778 C180.7712,135.1938 176.9342,131.2088 176.9342,131.2088 Z" id="Stroke-59" stroke="#78FF00" stroke-width="4" stroke-linecap="round"></path>
                    <path d="M213.9345,29.156 L230.6785,18.923 C231.0855,18.675 231.5915,19.035 231.4905,19.5 L227.8435,36.266 C227.7355,36.762 228.2635,37.153 228.7065,36.905 L247.0215,26.651" id="Stroke-61" stroke="#FFFFFF" stroke-width="4" stroke-linecap="round"></path>
                    <path d="M221.8788,49.1726 L212.2268,43.3656 C211.8108,43.1626 211.3238,43.4556 211.3088,43.9186 L211.3418,62.8896" id="Stroke-63" stroke="#FFFFFF" stroke-width="4" stroke-linecap="round"></path>
                    <line x1="212.1447" y1="53.7939" x2="218.2087" y2="57.4149" id="Stroke-65" stroke="#FFFFFF" stroke-width="4" stroke-linecap="round"></line>
                    <line x1="238.3532" y1="49.4994" x2="251.0702" y2="41.3204" id="Stroke-67" stroke="#FFFFFF" stroke-width="4" stroke-linecap="round"></line>
                    <line x1="245.1984" y1="45.2919" x2="245.1984" y2="64.0489" id="Stroke-69" stroke="#FFFFFF" stroke-width="4" stroke-linecap="round"></line>
                    <path d="M159.5269,118.5733 L151.5449,102.1133 C151.3079,101.6243 150.6769,101.4853 150.2559,101.8283 L137.4039,112.3003 C137.1189,112.5323 137.0169,112.9223 137.1529,113.2633 L143.6819,129.6993" id="Stroke-71" stroke="#FF00FF" stroke-width="4" stroke-linecap="round"></path>
                    <path d="M161.1985,117.5461 C162.6485,119.6521 161.7205,122.8071 159.1255,124.5931 C156.5315,126.3791 153.2525,126.1201 151.8035,124.0141 C150.3535,121.9081 151.2815,118.7531 153.8765,116.9671 C156.4705,115.1811 159.7485,115.4401 161.1985,117.5461" id="Fill-73" fill="#FF00FF"></path>
                    <path d="M145.2665,128.5141 C146.7165,130.6201 145.7885,133.7751 143.1935,135.5611 C140.5995,137.3471 137.3205,137.0881 135.8715,134.9821 C134.4215,132.8761 135.3495,129.7211 137.9445,127.9351 C140.5385,126.1491 143.8165,126.4081 145.2665,128.5141" id="Fill-75" fill="#FF00FF"></path>
                    <path d="M63.2227,118.5151 C63.2227,118.5151 68.9607,131.3041 82.8607,131.314109 C97.8247,131.3251 104.0287,121.0041 104.7397,119.6661" id="Stroke-77" stroke="#78FF00" stroke-width="4" stroke-linecap="round"></path>
                    <polygon id="Fill-79" fill="#FF1DDA" points="219.119 123.583 209.333 123.583 209.333 163.952 202.808 173.563 219.119 173.563"></polygon>
                    <polygon id="Stroke-81" stroke="#FF1DDA" stroke-width="4" stroke-linecap="round" points="219.119 123.583 209.333 123.583 209.333 163.952 202.808 173.563 219.119 173.563"></polygon>
                    <polygon id="Fill-83" fill="#FFFFFF" points="219.119 116.884 340.983 116.884 340.983 186.787 202.808 186.787 219.119 175.369"></polygon>
                    <polygon id="Stroke-85" stroke="#FFFFFF" stroke-width="4" stroke-linecap="round" points="219.119 116.884 340.983 116.884 340.983 186.787 202.808 186.787 219.119 175.369"></polygon>
                </g>
                <text id="Free-NFT-(Lifetime)" font-family="Poppins-Medium, Poppins" font-size="16" font-weight="400" fill="#000000">
                    <tspan x="278" y="161">Free NFT</tspan>
                    <tspan x="278" y="184"> (Lifetime)</tspan>
                </text>
            </g>
        </g>
    </g>
</svg>