<?xml version="1.0" encoding="UTF-8"?>
<svg width="420px" height="260px" viewBox="0 0 420 260" version="1.1" xmlns="http://www.w3.org/2000/svg" xmlns:xlink="http://www.w3.org/1999/xlink">
    <title>编组 29</title>
    <defs>
        <polygon id="path-1" points="0 243.577 361.319 243.577 361.319 0 0 0"></polygon>
    </defs>
    <g id="主要" stroke="none" stroke-width="1" fill="none" fill-rule="evenodd">
        <g id="membership-card/更新2" transform="translate(-1199.000000, -1993.000000)">
            <g id="编组-29" transform="translate(1199.000000, 1993.000000)">
                <rect id="矩形备份-13" fill="#FF0000" opacity="0" x="0" y="0" width="420" height="260"></rect>
                <g id="06插图" transform="translate(29.000000, 8.000000)">
                    <path d="M227.4613,126.4681 C227.4613,126.4681 237.3833,141.6261 258.2373,141.616105 C278.8643,141.6061 287.0473,125.3531 287.0473,125.3531" id="Stroke-1" stroke="#FFFFFF" stroke-width="4" stroke-linecap="round"></path>
                    <line x1="114.659" y1="214.6644" x2="359.319" y2="214.6644" id="Stroke-3" stroke="#78FF00" stroke-width="4" stroke-linecap="round"></line>
                    <line x1="305.843" y1="231.7906" x2="332.406" y2="231.7906" id="Stroke-5" stroke="#FFFFFF" stroke-width="4" stroke-linecap="round"></line>
                    <line x1="177.222" y1="241.577" x2="291.863" y2="241.577" id="Stroke-7" stroke="#FFFFFF" stroke-width="4" stroke-linecap="round"></line>
                    <line x1="92.6396" y1="236.3343" x2="155.9016" y2="236.3343" id="Stroke-9" stroke="#FFFFFF" stroke-width="4" stroke-linecap="round"></line>
                    <line x1="70.6202" y1="214.6644" x2="85.3002" y2="214.6644" id="Stroke-11" stroke="#78FF00" stroke-width="4" stroke-linecap="round"></line>
                    <line x1="9.4553" y1="214.6644" x2="63.6303" y2="214.6644" id="Stroke-13" stroke="#78FF00" stroke-width="4" stroke-linecap="round"></line>
                    <line x1="22.0378" y1="225.4994" x2="62.2318" y2="225.4994" id="Stroke-15" stroke="#FFFFFF" stroke-width="4" stroke-linecap="round"></line>
                    <path d="M289.8687,46.046 C289.8687,46.046 289.5997,75.182 286.8977,87.409 C284.2737,99.288 272.5367,107.544 260.3297,108.415 C251.0147,109.079 233.8337,105.648 230.4517,86.885 C227.4237,70.091 227.3027,60.778 227.3027,60.778" id="Stroke-17" stroke="#78FF00" stroke-width="4" stroke-linecap="round"></path>
                    <path d="M227.4613,64.0396 C227.4613,64.0396 227.0993,51.7686 218.9013,53.2106 C213.4673,54.1666 213.1643,59.4966 214.5753,63.2656 C216.7693,69.1256 227.0993,73.7196 227.0993,73.7196" id="Stroke-19" stroke="#78FF00" stroke-width="4" stroke-linecap="round"></path>
                    <path d="M289.3054,62.6011 C289.3054,62.6011 289.3054,51.8461 297.2924,53.2181 C302.7304,54.1521 303.0294,59.5041 301.6184,63.2731 C299.4244,69.1331 289.5174,73.7271 289.5174,73.7271" id="Stroke-21" stroke="#78FF00" stroke-width="4" stroke-linecap="round"></path>
                    <path d="M227.303,60.7782 C227.303,60.7782 215.088,34.5692 227.066,16.3412 C232.426,8.1862 245.681,1.1462 263.132,2.0842 C281.306,3.0602 286.199,9.5842 299.247,13.5452 C298.082,20.5352 303.181,38.0112 290.151,44.7682 C263.661,58.5072 236.213,26.4582 227.303,60.7782 Z" id="Stroke-23" stroke="#78FF00" stroke-width="4" stroke-linecap="round"></path>
                    <path d="M251.5702,66.9261 C251.5702,71.4801 248.5302,75.1711 244.7802,75.1711 C241.0302,75.1711 237.9902,71.4801 237.9902,66.9261 C237.9902,62.3721 241.0302,58.6811 244.7802,58.6811 C248.5302,58.6811 251.5702,62.3721 251.5702,66.9261" id="Fill-25" fill="#FFFFFF"></path>
                    <path d="M279.1818,66.9261 C279.1818,71.4801 276.1418,75.1711 272.3918,75.1711 C268.6418,75.1711 265.6018,71.4801 265.6018,66.9261 C265.6018,62.3721 268.6418,58.6811 272.3918,58.6811 C276.1418,58.6811 279.1818,62.3721 279.1818,66.9261" id="Fill-27" fill="#FFFFFF"></path>
                    <path d="M247.228,90.5742 C247.228,90.5742 258.238,96.1662 269.247,90.5742" id="Stroke-29" stroke="#78FF00" stroke-width="4" stroke-linecap="round"></path>
                    <path d="M246.5646,106.4541 C246.5646,106.4541 247.6636,118.4611 245.2896,123.0041" id="Stroke-31" stroke="#78FF00" stroke-width="4" stroke-linecap="round"></path>
                    <path d="M269.4843,107.0681 C269.4843,107.0681 267.2403,115.8391 270.2823,123.1791" id="Stroke-33" stroke="#78FF00" stroke-width="4" stroke-linecap="round"></path>
                    <path d="M245.7047,120.2957 C244.6777,120.4707 220.2117,125.8237 209.9017,139.3117 C199.5907,152.8007 181.9407,214.6647 181.9407,214.6647" id="Stroke-35" stroke="#78FF00" stroke-width="4" stroke-linecap="round"></path>
                    <path d="M271.318,120.2957 C272.345,120.4707 296.811,125.8237 307.121,139.3117 C317.432,152.8007 335.082,214.6647 335.082,214.6647" id="Stroke-37" stroke="#78FF00" stroke-width="4" stroke-linecap="round"></path>
                    <path d="M237.261,122.6282 C237.261,122.6282 244.62,134.1602 257.843,133.8102 C271.668,133.4452 280.167,122.7622 280.167,122.7622" id="Stroke-39" stroke="#78FF00" stroke-width="4" stroke-linecap="round"></path>
                    <line x1="227.303" y1="167.4801" x2="204.601" y2="214.6641" id="Stroke-41" stroke="#78FF00" stroke-width="4" stroke-linecap="round"></line>
                    <line x1="291.9482" y1="166.315" x2="313.7382" y2="214.664" id="Stroke-43" stroke="#78FF00" stroke-width="4" stroke-linecap="round"></line>
                    <line x1="330.1071" y1="168.7492" x2="334.1261" y2="180.4582" id="Stroke-45" stroke="#FFFFFF" stroke-width="4" stroke-linecap="round"></line>
                    <path d="M201.9219,134.9944 C201.9219,134.9944 198.2519,139.0134 196.1549,145.3054" id="Stroke-47" stroke="#FFFFFF" stroke-width="4" stroke-linecap="round"></path>
                    <line x1="22.9708" y1="188.8196" x2="71.9028" y2="188.8196" id="Stroke-49" stroke="#FFFFFF" stroke-width="4" stroke-linecap="round"></line>
                    <line x1="155.5531" y1="114.7293" x2="155.5531" y2="150.6063" id="Stroke-51" stroke="#FFFFFF" stroke-width="4" stroke-linecap="round"></line>
                    <line x1="65.3785" y1="79.3052" x2="124.3295" y2="79.3052" id="Stroke-53" stroke="#FFFFFF" stroke-width="4" stroke-linecap="round"></line>
                    <polygon id="Fill-55" fill="#FF1DDA" points="14.8155 100.9751 4.5635 100.9751 4.5635 180.1981 135.0485 180.1981 135.0485 169.2471 14.8155 169.2471"></polygon>
                    <polygon id="Stroke-57" stroke="#FF1DDA" stroke-width="4" stroke-linecap="round" points="14.8155 100.9751 4.5635 100.9751 4.5635 180.1981 135.0485 180.1981 135.0485 169.2471 14.8155 169.2471"></polygon>
                    <line x1="73.0678" y1="51.1111" x2="80.2908" y2="50.2951" id="Stroke-59" stroke="#FF00FF" stroke-width="4" stroke-linecap="round"></line>
                    <line x1="75.5144" y1="61.713" x2="82.5044" y2="63.927" id="Stroke-61" stroke="#FF00FF" stroke-width="4" stroke-linecap="round"></line>
                    <line x1="67.4756" y1="65.7907" x2="69.8056" y2="73.0137" id="Stroke-63" stroke="#FF00FF" stroke-width="4" stroke-linecap="round"></line>
                    <path d="M2,68.0043 C2,68.0043 4.796,74.7613 9.806,77.9073" id="Stroke-65" stroke="#FFFFFF" stroke-width="4" stroke-linecap="round"></path>
                    <mask id="mask-2" fill="white">
                        <use xlink:href="#path-1"></use>
                    </mask>
                    <g id="Clip-68"></g>
                    <polygon id="Stroke-67" stroke="#78FF00" stroke-width="4" stroke-linecap="round" mask="url(#mask-2)" points="16.447 69.402 55.243 69.402 55.243 61.713 16.447 61.713"></polygon>
                    <polygon id="Stroke-69" stroke="#78FF00" stroke-width="4" stroke-linecap="round" mask="url(#mask-2)" points="55.2426 61.713 62.8806 30.08 50.4656 40.393 35.8446 18.606 22.2716 40.16 10.2776 29.151 17.0286 61.713"></polygon>
                    <path d="M73.0678,16.5092 C73.0678,16.5092 78.8348,21.4022 76.6798,36.9562" id="Stroke-70" stroke="#FFFFFF" stroke-width="4" stroke-linecap="round" mask="url(#mask-2)"></path>
                    <path d="M86.2328,24.1985 C86.2328,24.1985 86.9318,28.0435 86.2328,32.2375" id="Stroke-71" stroke="#FFFFFF" stroke-width="4" stroke-linecap="round" mask="url(#mask-2)"></path>
                    <path d="M193.874,94.4158 L179.094,71.2718 C178.654,70.5818 179.196,69.6848 180.012,69.7558 L192.029,70.7938" id="Stroke-72" stroke="#FF00FF" stroke-width="4" stroke-linecap="round" mask="url(#mask-2)"></path>
                    <path d="M195.254,92.9152 C197.953,96.0922 196.744,101.5542 192.553,105.1152 C188.362,108.6762 182.776,108.9882 180.077,105.8112 C177.378,102.6352 178.587,97.1732 182.778,93.6122 C186.969,90.0502 192.555,89.7382 195.254,92.9152" id="Fill-73" fill="#FF00FF" mask="url(#mask-2)"></path>
                    <path d="M33.1941,55.1888 C37.6181,55.1888 41.2041,51.6028 41.2041,47.1788 L25.1841,47.1788 C25.1841,51.6028 28.7701,55.1888 33.1941,55.1888" id="Fill-74" fill="#78FF00" mask="url(#mask-2)"></path>
                    <polygon id="Fill-75" fill="#78FF00" mask="url(#mask-2)" points="33.194 47.179 41.204 47.179 41.204 35.208 33.194 35.208"></polygon>
                    <polygon id="Fill-76" fill="#FFFFFF" mask="url(#mask-2)" points="233.0377 181.3357 241.1867 181.3357 242.1387 193.7967 249.8107 181.3357 258.1497 181.3357 243.1527 203.6897 236.0507 203.6897"></polygon>
                    <polygon id="Fill-77" fill="#FFFFFF" mask="url(#mask-2)" points="258.8805 181.3357 266.2995 181.3357 260.3385 203.5307 252.9195 203.5307"></polygon>
                    <path d="M274.608,192.2117 C277.43,192.2117 278.73,190.9427 278.73,189.2627 C278.73,188.7867 278.54,188.3117 278.191,187.9627 C277.683,187.4547 276.796,187.2657 275.971,187.2657 L274.576,187.2657 L273.276,192.2117 L274.608,192.2117 Z M268.774,181.3357 L276.225,181.3357 C280.315,181.3357 282.82,182.1287 284.469,183.7767 C285.642,184.9497 286.213,186.5037 286.213,188.2477 C286.213,193.7967 282.028,197.5067 274.989,197.5067 L271.849,197.5067 L270.232,203.5307 L262.813,203.5307 L268.774,181.3357 Z" id="Fill-78" fill="#FFFFFF" mask="url(#mask-2)"></path>
                    <g id="编组" mask="url(#mask-2)">
                        <g transform="translate(14.815500, 90.722700)">
                            <polyline id="Fill-79" stroke="none" fill="#FFFFFF" fill-rule="evenodd" points="0 0 142.835 0 129.786 12.349 129.786 78.524 0 78.524 0 1.398"></polyline>
                            <polyline id="Stroke-80" stroke="#FFFFFF" stroke-width="4" fill="none" stroke-linecap="round" points="0 0 142.835 0 129.786 12.349 129.786 78.524 0 78.524 0 1.398"></polyline>
                        </g>
                    </g>
                </g>
                <text id="Other-benefits-of-VI" font-family="Poppins-Medium, Poppins" font-size="16" font-weight="400" fill="#000000">
                    <tspan x="55" y="134">Other benefits</tspan>
                    <tspan x="55" y="157">of VIP</tspan>
                </text>
            </g>
        </g>
    </g>
</svg>