<?xml version="1.0" encoding="UTF-8"?>
<svg width="420px" height="260px" viewBox="0 0 420 260" version="1.1" xmlns="http://www.w3.org/2000/svg" xmlns:xlink="http://www.w3.org/1999/xlink">
    <title>编组 31</title>
    <g id="主要" stroke="none" stroke-width="1" fill="none" fill-rule="evenodd">
        <g id="membership-card/更新2" transform="translate(-299.000000, -1993.000000)">
            <g id="编组-31" transform="translate(299.000000, 1993.000000)">
                <rect id="矩形备份-10" fill="#FF0000" opacity="0" x="0" y="0" width="420" height="260"></rect>
                <g id="04插图" transform="translate(39.000000, 9.000000)">
                    <path d="M124.2492,46.2714 C124.2492,46.2714 128.2962,81.9654 115.0232,98.9634 C105.6582,110.9574 91.6952,113.0884 79.1732,105.7144 C68.0942,99.1904 59.3062,83.7564 55.9152,77.1484 C54.9302,75.2284 53.4652,73.6144 51.7062,72.3654 C43.8852,66.8084 41.9212,58.9164 47.2532,54.5014 C55.8482,47.3844 64.4882,61.0014 64.4882,61.0014 C70.0482,53.5884 73.9642,45.5804 90.6952,48.3664 C118.8702,53.0574 126.1542,55.9934 129.2182,24.4954 C129.2182,24.4954 122.5022,21.5844 111.1462,13.8224 C79.5462,-7.7786 32.1472,6.8314 47.8412,54.0964" id="Stroke-1" stroke="#78FF00" stroke-width="4" stroke-linecap="round"></path>
                    <path d="M117.171,68.846 C117.141,73.672 114.274,77.566 110.767,77.5440928 C107.26,77.522 104.442,73.592 104.472,68.767 C104.502,63.941 107.37,60.047 110.876,60.0689072 C114.383,60.091 117.201,64.02 117.171,68.846" id="Fill-3" fill="#FFFFFF"></path>
                    <path d="M97.0097,69.7392 C96.9747,75.3372 93.3737,79.8522 88.9657,79.8253205 C84.5587,79.7972 81.0137,75.2372 81.0487,69.6392 C81.0837,64.0412 84.6857,59.5262 89.0927,59.5530795 C93.5007,59.5812 97.0447,64.1412 97.0097,69.7392" id="Fill-5" fill="#FFFFFF"></path>
                    <path d="M102.575,89.2675 C94.861,89.7575 87.822,88.4145 84.956,87.7615 C84.217,87.5925 83.528,88.1645 83.535931,88.9235 C83.57,92.1275 84.594,99.4415 93.112,100.3955 C101.433,101.3275 103.573,95.5265 103.833,90.4815 C103.869,89.7815 103.274,89.2235 102.575,89.2675 Z" id="Stroke-7" stroke="#78FF00" stroke-width="4" stroke-linecap="round"></path>
                    <path d="M78.8917,105.4072 C78.8917,105.4072 81.1457,120.9902 76.4267,127.1942" id="Stroke-9" stroke="#78FF00" stroke-width="4" stroke-linecap="round"></path>
                    <path d="M100.0669,109.211 C100.0669,109.211 101.6789,122.912 106.1359,127.194" id="Stroke-11" stroke="#78FF00" stroke-width="4" stroke-linecap="round"></path>
                    <path d="M78.2978,123.2575 C78.2748,123.3265 42.7858,133.7475 38.8538,138.9895 C35.5078,143.4525 21.9048,180.2015 17.9308,191.0405 C17.2848,192.8015 17.9338,194.7685 19.4968,195.8055 L41.9798,210.7305 C43.2448,211.5695 44.8718,211.6325 46.1968,210.8925 L90.8678,185.9715 C91.9558,185.3645 92.3278,183.9795 91.6908,182.9095 L87.2128,175.3855 C86.6808,174.4915 85.5968,174.0895 84.6108,174.4195 L48.3008,186.5745 C47.1948,186.9455 46.1898,185.7975 46.7038,184.7505 L58.3398,161.0095" id="Stroke-13" stroke="#78FF00" stroke-width="4" stroke-linecap="round"></path>
                    <path d="M87.2125,175.3856 C87.2125,175.3856 91.3035,170.9126 91.6305,168.2326 C91.9585,165.5526 91.2235,159.9606 94.1355,160.1356 C97.0485,160.3106 97.2235,166.0776 96.8155,167.0096 C96.4075,167.9416 106.6305,155.7376 109.4565,159.0866 C112.3525,162.5216 99.6115,169.5146 99.6115,170.5626 C99.6115,171.6116 100.9095,173.3906 101.8255,172.8346 C102.4725,172.4416 110.8835,167.3316 112.1355,170.8536 C113.4885,174.6586 93.8465,182.2686 91.6915,182.9096 C89.9435,180.1136 87.2125,175.3856 87.2125,175.3856 Z" id="Stroke-15" stroke="#78FF00" stroke-width="4" stroke-linecap="round"></path>
                    <path d="M193.4112,161.1545 C193.4112,161.1545 196.4562,156.1275 196.0292,153.4625 C195.6022,150.7965 193.3482,145.6265 196.1952,144.9875 C199.0422,144.3495 200.8062,149.8435 200.6732,150.8515 C200.5392,151.8605 206.9852,137.3035 210.6272,139.7405 C214.3612,142.2385 204.0532,152.4845 204.3432,153.4925 C204.6332,154.5005 206.3732,155.8505 207.0992,155.0625 C207.6122,154.5065 214.2802,147.2685 216.4592,150.3065 C218.8122,153.5885 201.7802,166.1005 199.8862,167.3125 C197.4332,165.1095 193.4112,161.1545 193.4112,161.1545 Z" id="Stroke-17" stroke="#78FF00" stroke-width="4" stroke-linecap="round"></path>
                    <line x1="22.9054" y1="198.0681" x2="17.4174" y2="214.0771" id="Stroke-19" stroke="#78FF00" stroke-width="4" stroke-linecap="round"></line>
                    <line x1="0" y1="214.0772" x2="281.009" y2="214.0772" id="Stroke-21" stroke="#78FF00" stroke-width="4" stroke-linecap="round"></line>
                    <path d="M103.5996,123.2575 C103.5996,123.2575 135.4946,131.9995 142.1356,138.9895 C148.7766,145.9805 165.0286,186.8735 165.0286,186.8735" id="Stroke-23" stroke="#78FF00" stroke-width="4" stroke-linecap="round"></path>
                    <path d="M156.6405,197.184 L190.0535,160.749 C190.8025,159.932 192.0765,159.887 192.8805,160.651 L200.5975,167.975 C201.2605,168.605 201.4075,169.607 200.9525,170.4 L176.6705,212.737" id="Stroke-25" stroke="#78FF00" stroke-width="4" stroke-linecap="round"></path>
                    <line x1="127.1065" y1="161.3589" x2="138.7355" y2="213.3959" id="Stroke-27" stroke="#78FF00" stroke-width="4" stroke-linecap="round"></line>
                    <path d="M72.1669,125.1691 C72.1669,125.1691 77.9859,135.4951 92.0029,135.0291 C106.0189,134.5631 110.9229,125.4131 110.9229,125.4131" id="Stroke-29" stroke="#78FF00" stroke-width="4" stroke-linecap="round"></path>
                    <path d="M62.6451,128.287 C62.6451,128.287 71.9281,142.369 92.0021,142.136 C112.0771,141.903 119.7531,128.287 119.7531,128.287" id="Stroke-31" stroke="#78FF00" stroke-width="4" stroke-linecap="round"></path>
                    <line x1="13.2815" y1="224.3878" x2="60.1165" y2="224.3878" id="Stroke-33" stroke="#FFFFFF" stroke-width="4" stroke-linecap="round"></line>
                    <line x1="72.1669" y1="231.6111" x2="147.9609" y2="231.6111" id="Stroke-35" stroke="#FFFFFF" stroke-width="4" stroke-linecap="round"></line>
                    <line x1="164.0385" y1="240.6985" x2="251.8825" y2="240.6985" id="Stroke-37" stroke="#FFFFFF" stroke-width="4" stroke-linecap="round"></line>
                    <line x1="293.5916" y1="229.2811" x2="331.3386" y2="229.2811" id="Stroke-39" stroke="#FFFFFF" stroke-width="4" stroke-linecap="round"></line>
                    <polygon id="Fill-41" fill="#FF1DDA" points="234.2592 14.4538 241.7472 9.4868 278.9702 57.5448 200.3292 112.5928 195.2882 106.3548 266.0232 57.8438"></polygon>
                    <polygon id="Stroke-43" stroke="#FF1DDA" stroke-width="4" stroke-linecap="round" points="234.2592 14.4538 241.7472 9.4868 278.9702 57.5448 200.3292 112.5928 195.2882 106.3548 266.0232 57.8438"></polygon>
                    <path d="M132.2327,82.1357 C132.2327,82.1357 132.0277,88.6917 129.0137,94.0927" id="Stroke-45" stroke="#FFFFFF" stroke-width="4" stroke-linecap="round"></path>
                    <path d="M54.9902,0 C54.9902,0 49.4612,1.298 42.9612,9.437" id="Stroke-47" stroke="#FFFFFF" stroke-width="4" stroke-linecap="round"></path>
                    <path d="M28.8931,135.0441 C28.8931,135.0441 18.2941,152.7081 17.6821,155.1551" id="Stroke-49" stroke="#FFFFFF" stroke-width="4" stroke-linecap="round"></path>
                    <line x1="15.2403" y1="160.4195" x2="13.2743" y2="164.0235" id="Stroke-51" stroke="#FFFFFF" stroke-width="4" stroke-linecap="round"></line>
                    <path d="M151.0482,134.621 C151.0482,134.621 157.8802,144.481 159.1912,147.19" id="Stroke-53" stroke="#FFFFFF" stroke-width="4" stroke-linecap="round"></path>
                    <path d="M303.196,73.9665 C308.087,79.1795 302.382,92.4775 290.454,103.6675 C278.527,114.8575 264.892,119.7035 260.002,114.4895 C255.111,109.2765 260.815,95.9795 272.743,84.7885 C284.671,73.5985 298.305,68.7535 303.196,73.9665 Z" id="Stroke-55" stroke="#78FF00" stroke-width="4" stroke-linecap="round"></path>
                    <path d="M272.5461,127.8599 C276.0661,131.6099 284.1161,130.1499 292.8061,124.8599 C296.1861,122.7999 299.6561,120.1599 302.9961,117.0299 C305.4761,114.6999 307.6861,112.2799 309.5861,109.8699 C316.8361,100.6599 319.6061,91.4599 315.7361,87.3299" id="Stroke-57" stroke="#78FF00" stroke-width="4" stroke-linecap="round"></path>
                    <line x1="260.0016" y1="114.49" x2="272.5416" y2="127.856" id="Stroke-59" stroke="#78FF00" stroke-width="4" stroke-linecap="round"></line>
                    <line x1="303.196" y1="73.9665" x2="315.736" y2="87.3325" id="Stroke-61" stroke="#78FF00" stroke-width="4" stroke-linecap="round"></line>
                    <path d="M296.1461,153.5799 C290.7861,152.3299 288.7561,141.3699 291.6261,129.0999 C291.9661,127.6299 292.3661,126.2099 292.8061,124.8599" id="Stroke-63" stroke="#78FF00" stroke-width="4" stroke-linecap="round"></path>
                    <path d="M320.2673,112.3614 C325.6293,113.6134 327.6543,124.5744 324.7903,136.8434 C321.9253,149.1124 315.2563,158.0434 309.8933,156.7914 C304.5313,155.5394 302.5063,144.5784 305.3713,132.3094 C308.2353,120.0404 314.9053,111.1094 320.2673,112.3614 Z" id="Stroke-65" stroke="#78FF00" stroke-width="4" stroke-linecap="round"></path>
                    <line x1="296.1449" y1="153.5817" x2="309.8939" y2="156.7917" id="Stroke-67" stroke="#78FF00" stroke-width="4" stroke-linecap="round"></line>
                    <line x1="320.2661" y1="112.3599" x2="309.5861" y2="109.8699" id="Stroke-69" stroke="#78FF00" stroke-width="4" stroke-linecap="round"></line>
                    <polygon id="Stroke-71" stroke="#FFFFFF" stroke-width="4" stroke-linecap="round" points="333.2032 101.51 325.1302 93.437 333.2032 85.363 341.2762 93.437"></polygon>
                    <line x1="251.3005" y1="139.4649" x2="264.4655" y2="139.4649" id="Stroke-73" stroke="#FFFFFF" stroke-width="4" stroke-linecap="round"></line>
                    <line x1="257.883" y1="132.6987" x2="257.883" y2="145.8637" id="Stroke-75" stroke="#FFFFFF" stroke-width="4" stroke-linecap="round"></line>
                    <line x1="273.0286" y1="145.456" x2="273.0286" y2="149.126" id="Stroke-77" stroke="#FFFFFF" stroke-width="4" stroke-linecap="round"></line>
                    <line x1="283.514" y1="158.1259" x2="283.514" y2="165.3779" id="Stroke-79" stroke="#FFFFFF" stroke-width="4" stroke-linecap="round"></line>
                    <line x1="297.4945" y1="165.3783" x2="297.4945" y2="177.5243" id="Stroke-81" stroke="#FFFFFF" stroke-width="4" stroke-linecap="round"></line>
                    <path d="M334.3683,127.8561 C334.3683,127.8561 334.8053,137.7671 330.3493,146.5041" id="Stroke-83" stroke="#FFFFFF" stroke-width="4" stroke-linecap="round"></path>
                    <path d="M262.8927,82.4561 C262.8927,82.4561 254.9917,89.2901 252.2327,98.6211" id="Stroke-85" stroke="#FFFFFF" stroke-width="4" stroke-linecap="round"></path>
                    <path d="M269.4797,76.6573 C269.4797,76.6573 272.5407,73.9663 274.4247,72.8153" id="Stroke-87" stroke="#FFFFFF" stroke-width="4" stroke-linecap="round"></path>
                    <path d="M231.2034,184.951 L245.3194,169.532 C245.7404,169.072 246.5064,169.295 246.6144,169.909 L248.2134,178.951" id="Stroke-89" stroke="#FF00FF" stroke-width="4" stroke-linecap="round"></path>
                    <path d="M233.1095,185.8273 C231.3035,188.4373 227.0495,188.6213 223.6065,186.2393 C220.1635,183.8573 218.8365,179.8103 220.6415,177.2003 C222.4475,174.5913 226.7015,174.4063 230.1445,176.7893 C233.5875,179.1713 234.9155,183.2173 233.1095,185.8273" id="Fill-91" fill="#FF00FF"></path>
                    <path d="M281.2483,100.2893 C281.9263,99.5903 282.4103,98.7183 282.7003,97.6803 C282.9893,96.6493 282.9893,95.6213 282.7053,94.6043 L275.5523,102.0103 C276.6193,102.2733 277.6243,102.2573 278.5583,101.9573 C279.4993,101.6563 280.3983,101.0993 281.2483,100.2893 M285.2213,85.1033 C284.6493,85.6983 284.2633,86.3543 284.0613,87.0763 C283.8573,87.7993 283.8963,88.6373 284.1833,89.5963 L290.0143,83.5403 C289.6873,83.4163 289.3213,83.3583 288.9173,83.3643 C288.5153,83.3703 288.0973,83.4413 287.6643,83.5733 C287.2333,83.7053 286.8083,83.8993 286.3903,84.1543 C285.9733,84.4093 285.5833,84.7263 285.2213,85.1033 M268.8073,107.2663 C268.5203,106.9463 268.4073,106.6273 268.4653,106.3083 C268.5243,105.9893 268.7213,105.6553 269.0593,105.3043 L271.5743,102.6923 C271.1733,102.1993 270.8203,101.6343 270.5183,100.9963 C270.2183,100.3653 269.9963,99.7493 269.8513,99.1473 C269.6523,98.1213 269.6853,97.2913 269.9493,96.6473 C270.2123,96.0063 270.5873,95.6133 271.0793,95.4663 C271.5073,95.3293 271.8153,95.3683 272.0053,95.5843 C272.1943,95.8013 272.3113,96.1323 272.3543,96.5773 C272.4173,97.2683 272.5413,97.9653 272.7283,98.6723 C272.9173,99.3863 273.2123,100.0183 273.6173,100.5703 L281.8113,92.0603 C281.4473,91.1553 281.2033,90.3283 281.0773,89.5763 C280.9523,88.8313 280.9443,88.1333 281.0523,87.4793 C281.1593,86.8293 281.3973,86.1893 281.7653,85.5583 C282.1323,84.9293 282.6233,84.2953 283.2393,83.6513 C283.8933,82.9683 284.5983,82.4103 285.3593,81.9783 C286.1223,81.5443 286.8953,81.2343 287.6793,81.0483 C288.4683,80.8623 289.2393,80.7973 289.9933,80.8543 C290.7533,80.9123 291.4663,81.0753 292.1293,81.3443 L293.1893,80.2423 C293.6583,79.8173 294.0483,79.5603 294.3563,79.4743 C294.6653,79.3883 295.0093,79.4623 295.3903,79.6993 C296.1003,80.1413 296.0873,80.7493 295.3443,81.5183 L294.2013,82.7013 C294.3723,82.8463 294.5243,82.9963 294.6553,83.1513 C294.7873,83.3063 294.9213,83.4623 295.0553,83.6173 C295.4173,84.0963 295.7023,84.5953 295.9113,85.1143 C296.1193,85.6363 296.2203,86.1333 296.2103,86.6013 C296.2013,87.0713 296.0853,87.4973 295.8643,87.8783 C295.6433,88.2603 295.3073,88.5453 294.8603,88.7323 C294.3943,88.9053 293.9853,88.8663 293.6363,88.6183 C293.2883,88.3713 293.0833,88.0313 293.0203,87.5963 C292.9553,87.1993 292.8343,86.7483 292.6593,86.2403 C292.4843,85.7383 292.2783,85.3023 292.0443,84.9343 L285.0913,92.1343 C285.9773,94.1263 286.2723,95.9293 285.9573,97.5153 C285.6363,99.1183 284.7923,100.6293 283.4253,102.0333 C282.6523,102.8283 281.8253,103.4723 280.9503,103.9633 C280.0793,104.4523 279.1973,104.7843 278.3103,104.9603 C277.4293,105.1353 276.5713,105.1623 275.7363,105.0423 C274.9093,104.9253 274.1433,104.6423 273.4383,104.1983 L270.7313,107.0023 C270.4243,107.3193 270.0983,107.5233 269.7543,107.6133 C269.4113,107.7033 269.0953,107.5873 268.8073,107.2663" id="Fill-93" fill="#78FF00"></path>
                    <path d="M318.2589,136.4667 C318.3619,135.8117 318.2789,135.2197 318.0119,134.6847 C317.7459,134.1547 317.3089,133.7897 316.6979,133.5887 L315.4159,140.8827 C316.2509,140.2097 316.8929,139.5047 317.3489,138.7687 C317.7969,138.0447 318.0989,137.2767 318.2589,136.4667 M314.1139,128.6857 C314.0049,129.2097 314.0449,129.6637 314.2369,130.0467 C314.4279,130.4307 314.8279,130.7257 315.4359,130.9287 L316.4179,125.8037 C316.1729,125.9037 315.9309,126.0467 315.6889,126.2337 C315.4469,126.4207 315.2189,126.6427 315.0069,126.8967 C314.7929,127.1527 314.6079,127.4317 314.4519,127.7347 C314.2959,128.0397 314.1819,128.3577 314.1139,128.6857 M313.1329,148.2087 C312.7419,148.3587 312.4849,148.3507 312.3619,148.1867 C312.2389,148.0217 312.2189,147.7247 312.3009,147.2957 L312.8929,144.2057 C312.3309,144.3617 311.7599,144.4527 311.1809,144.4757 C310.5989,144.4987 310.0799,144.4617 309.6269,144.3637 C308.8859,144.1507 308.4489,143.8067 308.3179,143.3327 C308.1879,142.8627 308.2969,142.3947 308.6419,141.9297 C308.9329,141.5277 309.2169,141.2937 309.4939,141.2247 C309.7679,141.1567 310.0429,141.1907 310.3159,141.3247 C310.7339,141.5347 311.1989,141.6977 311.7139,141.8127 C312.2259,141.9287 312.7719,141.9287 313.3499,141.8157 L315.0049,133.1797 C314.3519,133.0557 313.8059,132.8887 313.3689,132.6777 C312.9309,132.4677 312.5949,132.2037 312.3599,131.8867 C312.1259,131.5717 311.9899,131.1837 311.9529,130.7267 C311.9159,130.2717 311.9649,129.7497 312.0979,129.1617 C312.2369,128.5447 312.4689,127.9587 312.7929,127.4037 C313.1109,126.8557 313.4859,126.3617 313.9159,125.9197 C314.3399,125.4837 314.7969,125.1107 315.2849,124.7997 C315.7679,124.4927 316.2559,124.2517 316.7489,124.0747 L316.9109,123.2317 C317.0059,122.8867 317.1219,122.6387 317.2599,122.4877 C317.3969,122.3367 317.6139,122.2327 317.9119,122.1757 C318.4589,122.0717 318.6819,122.2977 318.5829,122.8567 L318.4299,123.7317 C318.5759,123.7167 318.7139,123.7107 318.8419,123.7147 C318.9699,123.7187 319.0979,123.7217 319.2259,123.7247 C319.5909,123.7537 319.9199,123.8197 320.2149,123.9217 C320.5079,124.0237 320.7379,124.1577 320.9019,124.3237 C321.0659,124.4897 321.1639,124.6827 321.1949,124.9007 C321.2259,125.1207 321.1669,125.3527 321.0179,125.5987 C320.8529,125.8497 320.6379,126.0067 320.3719,126.0667 C320.1039,126.1277 319.8719,126.0947 319.6759,125.9687 C319.4909,125.8557 319.2559,125.7467 318.9699,125.6397 C318.6829,125.5347 318.4029,125.4647 318.1309,125.4317 L317.0879,131.3707 C318.4309,131.6117 319.3249,132.0877 319.7849,132.8037 C320.2479,133.5247 320.3929,134.5037 320.2159,135.7587 C320.1139,136.4827 319.9179,137.1987 319.6289,137.9067 C319.3349,138.6257 318.9629,139.3127 318.5109,139.9657 C318.0519,140.6297 317.5309,141.2427 316.9439,141.8037 C316.3479,142.3737 315.7009,142.8547 315.0009,143.2447 L314.4419,146.4267 C314.3769,146.7987 314.2399,147.1507 314.0299,147.4827 C313.8189,147.8167 313.5199,148.0597 313.1329,148.2087" id="Fill-95" fill="#78FF00"></path>
                    <polygon id="Fill-97" fill="#FFFFFF" points="142.1356 62.7291 228.3896 6.4361 266.0236 57.8441 188.2206 111.2011 156.6406 66.6901"></polygon>
                    <polygon id="Stroke-99" stroke="#FFFFFF" stroke-width="4" stroke-linecap="round" points="142.1356 62.7291 228.3896 6.4361 266.0236 57.8441 188.2206 111.2011 156.6406 66.6901"></polygon>
                </g>
                <text id="Earn-token" transform="translate(246.000000, 67.000000) rotate(-33.000000) translate(-246.000000, -67.000000) " font-family="Poppins-Medium, Poppins" font-size="16" font-weight="400" fill="#000000">
                    <tspan x="223" y="61">Earn </tspan>
                    <tspan x="223" y="84">token</tspan>
                </text>
            </g>
        </g>
    </g>
</svg>