<?xml version="1.0" encoding="UTF-8"?>
<svg width="1920px" height="1080px" viewBox="0 0 1920 1080" version="1.1" xmlns="http://www.w3.org/2000/svg" xmlns:xlink="http://www.w3.org/1999/xlink">
    <title>编组 22</title>
    <defs>
        <polygon id="path-1" points="0 0 307.841945 0 307.841945 979 0 979"></polygon>
        <polygon id="path-3" points="0 0 568.99696 0 568.99696 539 0 539"></polygon>
        <polygon id="path-5" points="0 0 357.446809 0 357.446809 147 0 147"></polygon>
        <polygon id="path-7" points="0 0 339.93921 0 339.93921 376 0 376"></polygon>
        <polygon id="path-9" points="0 0 373.495441 0 373.495441 438 0 438"></polygon>
        <polygon id="path-11" points="0 0 446.443769 0 446.443769 881 0 881"></polygon>
        <polygon id="path-13" points="0 0 351.610942 0 351.610942 314 0 314"></polygon>
        <polygon id="path-15" points="0 0 173.617021 0 173.617021 58 0 58"></polygon>
        <polygon id="path-17" points="0 0 194.042553 0 194.042553 252 0 252"></polygon>
        <polygon id="path-19" points="0 0 189.665653 0 189.665653 235 0 235"></polygon>
        <polygon id="path-21" points="0 0 307.841945 0 307.841945 979 0 979"></polygon>
        <polygon id="path-23" points="0 0 568.99696 0 568.99696 539 0 539"></polygon>
        <polygon id="path-25" points="0 0 357.446809 0 357.446809 147 0 147"></polygon>
        <polygon id="path-27" points="0 0 339.93921 0 339.93921 376 0 376"></polygon>
        <polygon id="path-29" points="0 0 373.495441 0 373.495441 438 0 438"></polygon>
        <polygon id="path-31" points="0 0 446.443769 0 446.443769 881 0 881"></polygon>
        <polygon id="path-33" points="0 0 351.610942 0 351.610942 314 0 314"></polygon>
        <polygon id="path-35" points="0 0 173.617021 0 173.617021 58 0 58"></polygon>
        <polygon id="path-37" points="0 0 194.042553 0 194.042553 252 0 252"></polygon>
        <polygon id="path-39" points="0 0 189.665653 0 189.665653 235 0 235"></polygon>
    </defs>
    <g id="主要" stroke="none" stroke-width="1" fill="none" fill-rule="evenodd" opacity="0.200000003">
        <g id="membership-card/更新2" transform="translate(0.000000, -1339.000000)">
            <g id="编组-22" transform="translate(0.000000, 1339.000000)">
                <g id="编组-4备份-2" opacity="0.4" transform="translate(1440.000000, 540.000000) scale(-1, 1) translate(-1440.000000, -540.000000) translate(960.000000, 0.000000)">
                    <g id="编组备份-4">
                        <polygon id="Fill-1" fill="#8AFA0F" points="370.577508 1019 375.316029 1017.3468 375.316029 703.344785 538.358663 521.703571 538.358663 459.305911 457.695273 361.790296 457.695273 110.438146 453.516814 109 453.516814 363.018926 534.69625 460.756707 534.69625 519.905691 370.577508 701.935893"></polygon>
                        <polygon id="Fill-3" fill="#FFFFFF" points="211.550152 1075 213.523359 1074.30873 213.523359 923.405054 347.159315 770.694114 347.159315 701.280194 515.015198 517.93516 515.015198 467.331801 440.645121 379.411036 440.645121 104.491955 439.220868 104 439.220868 379.845253 513.751467 467.833248 513.751467 517.320612 345.520023 700.798521 345.520023 770.296279 211.550152 923.167777"></polygon>
                        <g id="编组" transform="translate(195.501520, 101.000000)">
                            <mask id="mask-2" fill="white">
                                <use xlink:href="#path-1"></use>
                            </mask>
                            <g id="Clip-6"></g>
                            <polygon id="Fill-5" fill="#FFFFFF" mask="url(#mask-2)" points="0 979.000079 2.01395889 978.295146 2.01395889 819.554716 138.846566 665.099206 138.846566 594.734675 307.841945 412.548094 307.841945 369.344839 234.266576 283.372985 234.266576 0.498669312 232.820462 0 232.820462 283.814754 306.555586 369.852202 306.555586 411.92377 137.179371 594.243118 137.179371 664.69221 0 819.311308"></polygon>
                        </g>
                        <g id="编组" transform="translate(391.003040, 450.000000)">
                            <mask id="mask-4" fill="white">
                                <use xlink:href="#path-3"></use>
                            </mask>
                            <g id="Clip-8"></g>
                            <polygon id="Fill-7" fill="#8AFA0F" mask="url(#mask-4)" points="68.1199912 539 72.2599722 537.553649 72.2599722 400.870301 4.59661327 344.80837 4.59661327 265.641217 98.297098 158.60886 352.270204 145.911352 443.991949 15.1827308 544.304893 24.4067798 557.660819 2.79538215 568.997112 4.17131466 568.997112 1.49778047 557.012598 0 543.636226 21.5821225 443.141538 11.9893648 351.233505 142.52572 96.6568568 154.363961 0 264.293769 0 347.599797 68.1199912 403.70208"></polygon>
                        </g>
                        <g id="编组" transform="translate(602.553191, 444.000000)">
                            <mask id="mask-6" fill="white">
                                <use xlink:href="#path-5"></use>
                            </mask>
                            <g id="Clip-10"></g>
                            <polygon id="Fill-9" fill="#FFFFFF" mask="url(#mask-6)" points="0 147 59.6429797 144.627128 107.77389 81.5074537 176.838729 82.9276899 228.432354 10.2404423 331.432411 20.8628901 343.840285 0.939162924 357.447112 2.71208061 357.447112 1.8196777 343.623534 0 331.208839 19.9165943 228.148153 9.1673397 176.518149 81.8165453 107.40708 80.3146771 59.239792 143.401857 0 145.689135"></polygon>
                        </g>
                        <polygon id="Fill-11" fill="#FFFFFF" points="472.620192 983 473.96719 982.528503 473.96719 842.150449 407.088447 785.72328 407.088447 722.722799 493.130197 622.912411 549.753183 619.396325 585.749887 658.596097 693.009119 648.012301 693.009119 646.81342 586.211219 657.226625 550.244716 618 492.589586 621.513716 405.592705 722.289212 405.592705 786.630733 472.620192 843.073698"></polygon>
                        <polygon id="Fill-13" fill="#8AFA0F" points="652.218381 496 653.617021 494.303034 589.22131 409.762606 506.80373 399.747022 471.043052 355.690798 471.043052 332.12956 568.114563 244.126339 568.114563 148.797827 565.806202 148 565.806202 242.40167 468.328267 330.450006 468.328267 356.487043 505.744155 402.459477 588.300993 412.299349"></polygon>
                        <polygon id="Fill-15" fill="#FFFFFF" points="515.441712 392.107131 671.488609 412 700.663142 378.494225 798.054711 394.444541 798.054711 393.366284 700.286966 377.239813 671.091154 410.723469 515.965319 390.767406 482.794961 349.614295 482.794961 334.325942 576.179307 249.181494 576.179307 151.392596 575.0371 151 575.0371 248.332316 481.458967 333.498883 481.458967 350.001362"></polygon>
                        <g id="编组" transform="translate(620.060790, 472.000000)">
                            <mask id="mask-8" fill="white">
                                <use xlink:href="#path-7"></use>
                            </mask>
                            <g id="Clip-18"></g>
                            <polygon id="Fill-17" fill="#FFFFFF" mask="url(#mask-8)" points="0.746389641 376 145.420568 160.191892 145.420568 102.156547 216.054719 1.05881387 274.166701 5.89944501 326.075744 94.3317696 339.939438 93.9922844 339.939438 93.1012348 326.293124 93.4193538 274.415244 4.95221018 215.771972 0 144.623254 101.716561 144.623254 159.800178 0 375.29175"></polygon>
                        </g>
                        <g id="编组" transform="translate(586.504559, 480.000000)">
                            <mask id="mask-10" fill="white">
                                <use xlink:href="#path-9"></use>
                            </mask>
                            <g id="Clip-20"></g>
                            <polygon id="Fill-19" fill="#FFFFFF" mask="url(#mask-10)" points="1.57999717 438 58.8632184 351.092975 100.755088 339.995867 157.765139 250.61789 157.765139 208.987893 293.459504 2.01160835 306.449835 2.99206943 358.101668 90.858172 373.496046 90.3592297 373.496046 88.5749173 358.535259 89.0247573 306.945476 1.08816924 292.948729 0 156.101148 208.281454 156.101148 249.98352 99.9840069 337.776762 58.0285743 348.792297 0 436.640184"></polygon>
                        </g>
                        <g id="编组" transform="translate(0.000000, 69.000000)">
                            <mask id="mask-12" fill="white">
                                <use xlink:href="#path-11"></use>
                            </mask>
                            <g id="Clip-22"></g>
                            <polygon id="Fill-21" fill="#8AFA0F" mask="url(#mask-12)" points="159.568376 881 163.804031 879.910621 163.804031 728.486164 446.443769 439.845819 446.443769 379.946582 144.779684 40.0058192 -0.000228009436 0 -0.000228009436 4.01757876 142.98677 43.1964819 443.601251 380.966392 443.601251 438.52639 159.568376 727.654505"></polygon>
                        </g>
                        <polygon id="Fill-23" fill="#FFFFFF" points="310.37081 278.65284 380.427171 292 411.428571 266.77261 410.374813 265.464717 379.780977 290.309945 311.085941 277.141602 157.410721 100.930453 0 56 0 58.0097093 156.532715 102.508154"></polygon>
                        <polygon id="Fill-25" fill="#FFFFFF" points="304.740951 259.354663 367.659574 272 367.659574 270.424453 305.461842 257.853167 139.31919 67.2088787 139.31919 0.74602131 137.142857 0 137.142857 67.3160158"></polygon>
                        <polygon id="Fill-27" fill="#FFFFFF" points="356.30443 233 357.446809 232.138268 324.710231 192.425284 253.906227 174.552825 159.686487 64.616191 159.686487 7.72849054 157.568389 7 157.568389 64.7186843 253.131258 176.06736 324.009501 193.87517"></polygon>
                        <polygon id="Fill-29" fill="#FFFFFF" points="140.71408 1039 142.87699 1038.3264 142.87699 935.507512 63.769481 887.48109 63.769481 811.283637 187.708895 690.884735 249.467688 685.103792 428.93617 504.155199 428.93617 453.24384 132.956081 123.451763 0 88 0 90.0089411 132.050325 125.065399 427.485143 453.764061 427.485143 503.48239 248.689919 683.457741 186.863724 689.171483 61.3846763 810.860661 61.3846763 888.770576 140.71408 936.801741"></polygon>
                        <g id="编组" transform="translate(608.389058, 623.000000)">
                            <mask id="mask-14" fill="white">
                                <use xlink:href="#path-13"></use>
                            </mask>
                            <g id="Clip-32"></g>
                            <polygon id="Fill-31" fill="#FFFFFF" mask="url(#mask-14)" points="0 314 3.21846458 312.874617 3.21846458 299.854924 31.4769918 256.072395 31.4769918 236.721337 42.464529 219.894295 83.7299777 208.522005 84.1344594 207.882313 142.963486 114.826966 142.963486 72.3309272 153.975972 55.3941116 233.174999 44.6062304 252.263511 12.8412115 351.611018 2.66932932 351.611018 0 251.46362 9.90257999 232.338818 41.6328503 152.981779 52.164855 140.506354 71.2939954 140.506354 113.897439 82.5853323 205.22641 41.2253786 216.479449 28.4188079 236.028733 28.4188079 255.435073 0 299.328166"></polygon>
                        </g>
                        <g id="编组" transform="translate(786.382979, 602.000000)">
                            <mask id="mask-16" fill="white">
                                <use xlink:href="#path-15"></use>
                            </mask>
                            <g id="Clip-34"></g>
                            <polygon id="Fill-33" fill="#FFFFFF" mask="url(#mask-16)" points="34.877846 58 50.3614269 56.044926 82.0751049 3.7220991 121.433564 0.971982818 133.6302 20.3164245 173.617703 16.5197406 173.617703 15.6255164 133.860597 19.3539632 121.67154 0 81.8128769 2.73900791 50.0794938 55.041205 35.1711473 56.9082054 24.015087 41.5961039 0 44.1637254 0 45.2594873 23.7172384 42.6974199"></polygon>
                        </g>
                        <g id="编组" transform="translate(765.957447, 630.000000)">
                            <mask id="mask-18" fill="white">
                                <use xlink:href="#path-17"></use>
                            </mask>
                            <g id="Clip-36"></g>
                            <polygon id="Fill-35" fill="#FFFFFF" mask="url(#mask-18)" points="0 252 0.791808159 251.721763 0.791808159 225.711785 26.6373357 180.900617 26.6373357 128.279004 96.1421801 11.6938679 194.043008 0.891784261 194.043008 0 95.8731927 10.7156797 25.8879594 127.998389 25.8879594 180.662015 0 225.506477"></polygon>
                        </g>
                        <g id="编组" transform="translate(770.334347, 646.000000)">
                            <mask id="mask-20" fill="white">
                                <use xlink:href="#path-19"></use>
                            </mask>
                            <g id="Clip-38"></g>
                            <polygon id="Fill-37" fill="#FFFFFF" mask="url(#mask-20)" points="0 235 0.784200035 234.724613 0.784200035 213.122567 83.062498 69.4552707 83.062498 21.3567301 93.4376608 3.81584973 117.000681 1.00500397 165.346084 73.3637074 189.666107 68.0466824 189.666107 67.1548403 165.568199 72.3958965 117.249993 0 93.1717279 2.84249943 82.4067314 21.0251579 82.4067314 69.1601002 0 212.919192"></polygon>
                        </g>
                        <polygon id="Fill-39" fill="#FFFFFF" points="0 793 74.2141377 782.426228 183.665309 677.542669 237.298047 673.003475 332.644377 578.64065 332.644377 430.433677 269.06319 363.655915 269.06319 311.29686 267.223924 311 267.223924 364.128516 330.962371 430.965651 330.962371 578.006556 236.503387 671.333932 182.812911 675.818504 73.2356266 780.638732 0 790.989265"></polygon>
                        <polygon id="Fill-41" fill="#FFFFFF" points="571.914894 581 659.489246 578.330673 718.921599 501.74365 772.046591 504.058488 816.652233 443.278206 876.485452 450.000078 889.969605 430.228427 889.969605 372.231951 864.862625 326.768127 864.862625 249.441335 863.573312 249 863.573312 327.271833 888.757879 372.787765 888.757879 429.254174 875.966684 447.963937 816.058921 441.094427 771.393187 501.809969 718.194411 499.36802 658.672301 575.872934 571.914894 578.316462"></polygon>
                        <polygon id="Fill-43" fill="#FFFFFF" points="654.319144 531 694.195604 481.645457 765.002735 486.060631 857.87234 362.233151 857.87234 248.222336 857.218902 248 857.218902 361.6781 764.671832 484.9253 693.814495 480.424189 653.617021 530.111446"></polygon>
                        <polygon id="Fill-45" fill="#FFFFFF" points="461.033435 137.613396 475.6231 142 475.6231 127.550056 461.033435 123"></polygon>
                        <polygon id="Fill-47" fill="#FFFFFF" points="461.033435 158.784957 475.6231 163 475.6231 148.379645 461.033435 144"></polygon>
                        <polygon id="Fill-49" fill="#FFFFFF" points="461.033435 178.960428 475.6231 183 475.6231 168.206915 461.033435 164"></polygon>
                        <polygon id="Fill-51" fill="#FFFFFF" points="461.033435 199.141708 475.6231 203 475.6231 188.027653 461.033435 184"></polygon>
                        <polygon id="Fill-53" fill="#FFFFFF" points="461.033435 220.519199 475.6231 224 475.6231 209.643208 461.033435 206"></polygon>
                        <polygon id="Fill-55" fill="#FFFFFF" points="461.033435 240.698216 475.6231 244 475.6231 229.466185 461.033435 226"></polygon>
                        <polygon id="Fill-57" fill="#FFFFFF" points="461.033435 260.881414 475.6231 264 475.6231 249.28427 461.033435 246"></polygon>
                        <polygon id="Fill-59" fill="#FFFFFF" points="911.854103 659.147922 911.854103 649 906.018237 649.777521 906.018237 660"></polygon>
                        <polygon id="Fill-61" fill="#FFFFFF" points="919.148936 658.156266 919.148936 648 913.31307 648.769213 913.31307 659"></polygon>
                        <polygon id="Fill-63" fill="#FFFFFF" points="926.443769 657.164917 926.443769 647 920.607903 647.763122 920.607903 658"></polygon>
                        <polygon id="Fill-65" fill="#FFFFFF" points="933.738602 655.247444 933.738602 646 927.902736 646.685679 927.902736 656"></polygon>
                        <polygon id="Fill-67" fill="#FFFFFF" points="941.033435 654.253882 941.033435 645 935.197568 645.68323 935.197568 655"></polygon>
                        <polygon id="Fill-69" fill="#FFFFFF" points="948.328267 653.261003 948.328267 644 942.492401 644.674669 942.492401 654"></polygon>
                        <polygon id="Fill-71" fill="#FFFFFF" points="955.6231 652.267036 955.6231 643 949.787234 643.667987 949.787234 653"></polygon>
                        <path d="M951.246201,484.778366 C951.246201,487.546426 952.561238,489.883777 954.174166,489.995793 C955.781692,490.107809 957.082067,487.969248 957.082067,485.221697 C957.082067,482.473358 955.781692,480.138374 954.174166,480.005848 C952.561238,479.873321 951.246201,482.009516 951.246201,484.778366" id="Fill-73" fill="#FFFFFF"></path>
                        <path d="M942.492401,484.776357 C942.492401,487.544882 943.807739,489.882435 945.422429,489.995644 C947.030316,490.109632 948.328267,487.972731 948.328267,485.223725 C948.328267,482.475499 947.030316,480.139508 945.422429,480.006 C943.807739,479.871712 942.492401,482.007833 942.492401,484.776357" id="Fill-75" fill="#FFFFFF"></path>
                        <path d="M933.738602,484.774147 C933.738602,487.542861 935.050839,489.881282 936.667267,489.995615 C938.274073,490.109948 939.574468,487.9747 939.574468,485.226844 C939.574468,482.478215 938.274073,480.14134 936.667267,480.006149 C935.050839,479.870185 933.738602,482.005433 933.738602,484.774147" id="Fill-77" fill="#FFFFFF"></path>
                        <path d="M924.984802,484.248351 C924.984802,487.294498 926.298742,489.867287 927.915063,489.995085 C929.521956,490.122043 930.820669,487.773743 930.820669,484.751978 C930.820669,481.729373 929.521956,479.158266 927.915063,479.006925 C926.298742,478.855585 924.984802,481.203044 924.984802,484.248351" id="Fill-79" fill="#FFFFFF"></path>
                        <path d="M916.231003,484.245643 C916.231003,487.291668 917.546148,489.865236 919.159931,489.994995 C920.766621,490.123091 922.066869,487.776604 922.066869,484.753868 C922.066869,481.731965 920.766621,479.159229 919.159931,479.007011 C917.546148,478.854793 916.231003,481.199617 916.231003,484.245643" id="Fill-81" fill="#FFFFFF"></path>
                        <path d="M907.477204,484.242351 C907.477204,487.288581 908.791419,489.864135 910.407633,489.99497 C912.013434,490.123336 913.31307,487.779006 913.31307,484.756639 C913.31307,481.734272 912.013434,479.159541 910.407633,479.007311 C908.791419,478.851791 907.477204,481.196121 907.477204,484.242351" id="Fill-83" fill="#FFFFFF"></path>
                        <path d="M391.059141,959.393376 C386.207312,960.84877 382.24924,965.907362 382.24924,970.68052 C382.24924,975.455247 386.207312,978.087659 391.059141,976.571101 C395.876923,975.066306 399.756839,970.034375 399.756839,965.320029 C399.756839,960.60725 395.876923,957.948961 391.059141,959.393376" id="Fill-85" fill="#FFFFFF"></path>
                        <path d="M391.059141,934.351688 C386.207312,935.72768 382.24924,940.739886 382.24924,945.53931 C382.24924,950.33637 386.207312,953.052891 391.059141,951.615428 C395.876923,950.187422 399.756839,945.197282 399.756839,940.460905 C399.756839,935.722164 395.876923,932.985152 391.059141,934.351688" id="Fill-87" fill="#FFFFFF"></path>
                        <path d="M391.059141,910.31154 C386.207312,911.610086 382.24924,916.57544 382.24924,921.395895 C382.24924,926.217934 386.207312,929.016141 391.059141,927.656627 C395.876923,926.307407 399.756839,921.36264 399.756839,916.604736 C399.756839,911.844458 395.876923,909.02408 391.059141,910.31154" id="Fill-89" fill="#FFFFFF"></path>
                        <path d="M391.059141,886.27408 C386.207312,887.490943 382.24924,892.408499 382.24924,897.251294 C382.24924,902.093293 386.207312,904.975587 391.059141,903.696688 C395.876923,902.428129 399.756839,897.52807 399.756839,892.748902 C399.756839,887.968939 395.876923,885.065171 391.059141,886.27408" id="Fill-91" fill="#FFFFFF"></path>
                        <path d="M391.059141,862.23824 C386.207312,863.374 382.24924,868.242115 382.24924,873.104638 C382.24924,877.968758 386.207312,880.931159 391.059141,879.734698 C395.876923,878.547021 399.756839,873.697278 399.756839,868.895456 C399.756839,864.095232 395.876923,861.110467 391.059141,862.23824" id="Fill-93" fill="#FFFFFF"></path>
                        <path d="M391.059141,838.204634 C386.207312,839.256677 382.24924,844.073464 382.24924,848.955202 C382.24924,853.836941 386.207312,856.884819 391.059141,855.770231 C395.876923,854.662057 399.756839,849.863713 399.756839,845.042114 C399.756839,840.223723 395.876923,837.159005 391.059141,838.204634" id="Fill-95" fill="#FFFFFF"></path>
                        <path d="M287.487281,534.000441 C281.826415,533.9516 277.203647,537.968785 277.203647,542.97424 C277.203647,547.978932 281.826415,552.019011 287.487281,552 C293.105315,551.981617 297.629179,547.964432 297.629179,543.026897 C297.629179,538.090887 293.105315,534.049282 287.487281,534.000441" id="Fill-97" fill="#FFFFFF"></path>
                        <path d="M287.487281,507.003918 C281.826415,506.858194 277.203647,510.795791 277.203647,515.799995 C277.203647,520.803436 281.826415,524.921852 287.487281,524.998911 C293.105315,525.075206 297.629179,521.134557 297.629179,516.199019 C297.629179,511.265006 293.105315,507.148116 287.487281,507.003918" id="Fill-99" fill="#FFFFFF"></path>
                        <path d="M287.487281,482.010703 C281.826415,481.76975 277.203647,485.626515 277.203647,490.627803 C277.203647,495.628329 281.826415,499.822885 287.487281,499.994449 C293.105315,500.166776 297.629179,496.305436 297.629179,491.372773 C297.629179,486.441635 293.105315,482.249368 287.487281,482.010703" id="Fill-101" fill="#FFFFFF"></path>
                        <path d="M287.487281,456.020875 C281.826415,455.684195 277.203647,459.46004 277.203647,464.455397 C277.203647,469.450755 281.826415,473.719432 287.487281,473.986796 C293.105315,474.252636 297.629179,470.472221 297.629179,465.544657 C297.629179,460.617853 293.105315,456.354508 287.487281,456.020875" id="Fill-103" fill="#FFFFFF"></path>
                        <path d="M287.487281,431.034365 C281.826415,430.602297 277.203647,434.29465 277.203647,439.283206 C277.203647,444.271761 281.826415,448.612216 287.487281,448.975822 C293.105315,449.335625 297.629179,445.637187 297.629179,440.717092 C297.629179,435.796237 293.105315,431.461868 287.487281,431.034365" id="Fill-105" fill="#FFFFFF"></path>
                        <path d="M287.487281,404.051247 C281.826415,403.523473 277.203647,407.132079 277.203647,412.112897 C277.203647,417.092196 281.826415,421.503473 287.487281,421.961384 C293.105315,422.416256 297.629179,418.800057 297.629179,413.887584 C297.629179,408.97587 293.105315,404.572946 287.487281,404.051247" id="Fill-107" fill="#FFFFFF"></path>
                        <path d="M595.258359,391.429528 C595.258359,394.183157 597.228837,396.663188 599.651103,396.968879 C602.063619,397.273768 604.012158,395.304025 604.012158,392.570455 C604.012158,389.837687 602.063619,387.360063 599.651103,387.035116 C597.228837,386.710169 595.258359,388.676702 595.258359,391.429528" id="Fill-109" fill="#8AFA0F"></path>
                        <path d="M583.586626,389.423894 C583.586626,392.177386 585.557485,394.660055 587.979054,394.968205 C590.391067,395.276355 592.340426,393.309915 592.340426,390.576278 C592.340426,387.84423 590.391067,385.363148 587.979054,385.035938 C585.557485,384.707139 583.586626,386.671196 583.586626,389.423894" id="Fill-111" fill="#8AFA0F"></path>
                        <path d="M572.914894,387.418287 C572.914894,390.170607 574.885669,392.656498 577.308177,392.967725 C579.720544,393.278167 581.668693,391.314133 581.668693,388.58146 C581.668693,385.849574 579.720544,383.367613 577.308177,383.036737 C574.885669,382.70429 572.914894,384.66518 572.914894,387.418287" id="Fill-113" fill="#8AFA0F"></path>
                        <path d="M561.702128,386.411622 C561.702128,389.164782 563.673739,391.651959 566.095457,391.966939 C568.508006,392.281141 570.455927,390.320487 570.455927,387.588325 C570.455927,384.856164 568.508006,382.372098 566.095457,382.037674 C563.673739,381.700918 561.702128,383.659239 561.702128,386.411622" id="Fill-115" fill="#8AFA0F"></path>
                        <path d="M549.112462,384.405453 C549.112462,387.158117 551.411557,389.647597 554.238928,389.966189 C557.054075,390.284011 559.325228,388.325518 559.325228,385.594401 C559.325228,382.863284 557.054075,380.375344 554.238928,380.038283 C551.411557,379.698913 549.112462,381.653559 549.112462,384.405453" id="Fill-117" fill="#8AFA0F"></path>
                        <path d="M535.440729,382.839784 C535.440729,385.866296 537.741102,388.608077 540.567201,388.962315 C543.380478,389.31404 545.653495,387.164329 545.653495,384.160429 C545.653495,381.156528 543.380478,378.418096 540.567201,378.042923 C537.741102,377.666074 535.440729,379.812435 535.440729,382.839784" id="Fill-119" fill="#8AFA0F"></path>
                        <path d="M681.337386,612.711354 C681.337386,615.202723 682.978704,617.118859 684.997816,616.994251 C687.008253,616.869644 688.632219,614.762286 688.632219,612.288942 C688.632219,609.814815 687.008253,607.89476 684.997816,608.004478 C682.978704,608.111844 681.337386,610.218418 681.337386,612.711354" id="Fill-121" fill="#8AFA0F"></path>
                        <path d="M671.12462,612.23671 C671.12462,615.003625 672.766596,617.134011 674.784036,616.993423 C676.794508,616.852835 678.419453,614.511135 678.419453,611.763195 C678.419453,609.015255 676.794508,606.88573 674.784036,607.004756 C672.766596,607.126369 671.12462,609.469795 671.12462,612.23671" id="Fill-123" fill="#8AFA0F"></path>
                        <path d="M660.911854,612.238913 C660.911854,615.007508 662.553438,617.134369 664.571045,616.993376 C666.583334,616.852383 668.206687,614.509332 668.206687,611.758682 C668.206687,609.012304 666.583334,606.882025 664.571045,607.005073 C662.553438,607.128122 660.911854,609.470319 660.911854,612.238913" id="Fill-125" fill="#8AFA0F"></path>
                        <path d="M649.240122,612.240382 C649.240122,615.009468 650.881235,617.136213 652.900208,616.993189 C654.910237,616.850165 656.534954,614.506767 656.534954,611.757992 C656.534954,609.010064 654.910237,606.88078 652.900208,607.005185 C650.881235,607.127899 649.240122,609.472143 649.240122,612.240382" id="Fill-127" fill="#8AFA0F"></path>
                        <path d="M639.027356,612.243392 C639.027356,615.011252 640.668492,617.137217 642.687565,616.993084 C644.697866,616.848112 646.322188,614.504272 646.322188,611.757361 C646.322188,609.009613 644.697866,606.881134 642.687565,607.005156 C640.668492,607.130854 639.027356,609.475532 639.027356,612.243392" id="Fill-129" fill="#8AFA0F"></path>
                        <path d="M627.355623,612.245754 C627.355623,615.013628 629.325572,617.137462 631.747147,616.993051 C634.16098,616.84781 636.109422,614.50238 636.109422,611.753596 C636.109422,609.005641 634.16098,606.877657 631.747147,607.005469 C629.325572,607.129961 627.355623,609.477051 627.355623,612.245754" id="Fill-131" fill="#8AFA0F"></path>
                        <path d="M314.437114,538.000139 C310.801445,537.977734 307.841945,540.657844 307.841945,543.9877 C307.841945,547.316011 310.801445,550.007709 314.437114,550 C318.054195,549.992258 320.972644,547.310603 320.972644,544.012423 C320.972644,540.714243 318.054195,538.022545 314.437114,538.000139" id="Fill-133" fill="#FFFFFF"></path>
                        <path d="M314.437114,521.001141 C310.801445,520.937027 307.841945,523.582684 307.841945,526.91119 C307.841945,530.238924 310.801445,532.964916 314.437114,532.999676 C318.054195,533.033664 320.972644,530.386463 320.972644,527.088082 C320.972644,523.790474 318.054195,521.064482 314.437114,521.001141" id="Fill-135" fill="#FFFFFF"></path>
                        <path d="M314.437114,504.003106 C310.801445,503.897308 307.841945,506.507505 307.841945,509.83512 C307.841945,513.161962 310.801445,515.922747 314.437114,515.998428 C318.054195,516.073336 320.972644,513.462367 320.972644,510.164869 C320.972644,506.867372 318.054195,504.108904 314.437114,504.003106" id="Fill-137" fill="#FFFFFF"></path>
                        <path d="M314.437114,487.00609 C310.801445,486.857883 307.841945,489.43297 307.841945,492.759897 C307.841945,496.085279 310.801445,498.878045 314.437114,498.996147 C318.054195,499.113477 320.972644,496.536846 320.972644,493.241568 C320.972644,489.945518 318.054195,487.153524 314.437114,487.00609" id="Fill-139" fill="#FFFFFF"></path>
                        <path d="M314.437114,470.010059 C310.801445,469.819501 307.841945,472.359251 307.841945,475.684381 C307.841945,479.007967 310.801445,481.83317 314.437114,481.992869 C318.054195,482.152568 320.972644,479.610503 320.972644,476.316233 C320.972644,473.021963 318.054195,470.199075 314.437114,470.010059" id="Fill-141" fill="#FFFFFF"></path>
                        <path d="M314.437114,453.014914 C310.801445,452.78287 307.841945,455.286014 307.841945,458.607864 C307.841945,461.929715 310.801445,464.787477 314.437114,464.988685 C318.054195,465.189892 320.972644,462.683664 320.972644,459.39188 C320.972644,456.100095 318.054195,453.245416 314.437114,453.014914" id="Fill-143" fill="#FFFFFF"></path>
                    </g>
                </g>
                <g id="编组-4备份-3" opacity="0.4">
                    <g id="编组备份-4">
                        <polygon id="Fill-1" fill="#8AFA0F" points="370.577508 1019 375.316029 1017.3468 375.316029 703.344785 538.358663 521.703571 538.358663 459.305911 457.695273 361.790296 457.695273 110.438146 453.516814 109 453.516814 363.018926 534.69625 460.756707 534.69625 519.905691 370.577508 701.935893"></polygon>
                        <polygon id="Fill-3" fill="#FFFFFF" points="211.550152 1075 213.523359 1074.30873 213.523359 923.405054 347.159315 770.694114 347.159315 701.280194 515.015198 517.93516 515.015198 467.331801 440.645121 379.411036 440.645121 104.491955 439.220868 104 439.220868 379.845253 513.751467 467.833248 513.751467 517.320612 345.520023 700.798521 345.520023 770.296279 211.550152 923.167777"></polygon>
                        <g id="编组" transform="translate(195.501520, 101.000000)">
                            <mask id="mask-22" fill="white">
                                <use xlink:href="#path-21"></use>
                            </mask>
                            <g id="Clip-6"></g>
                            <polygon id="Fill-5" fill="#FFFFFF" mask="url(#mask-22)" points="0 979.000079 2.01395889 978.295146 2.01395889 819.554716 138.846566 665.099206 138.846566 594.734675 307.841945 412.548094 307.841945 369.344839 234.266576 283.372985 234.266576 0.498669312 232.820462 0 232.820462 283.814754 306.555586 369.852202 306.555586 411.92377 137.179371 594.243118 137.179371 664.69221 0 819.311308"></polygon>
                        </g>
                        <g id="编组" transform="translate(391.003040, 450.000000)">
                            <mask id="mask-24" fill="white">
                                <use xlink:href="#path-23"></use>
                            </mask>
                            <g id="Clip-8"></g>
                            <polygon id="Fill-7" fill="#8AFA0F" mask="url(#mask-24)" points="68.1199912 539 72.2599722 537.553649 72.2599722 400.870301 4.59661327 344.80837 4.59661327 265.641217 98.297098 158.60886 352.270204 145.911352 443.991949 15.1827308 544.304893 24.4067798 557.660819 2.79538215 568.997112 4.17131466 568.997112 1.49778047 557.012598 0 543.636226 21.5821225 443.141538 11.9893648 351.233505 142.52572 96.6568568 154.363961 0 264.293769 0 347.599797 68.1199912 403.70208"></polygon>
                        </g>
                        <g id="编组" transform="translate(602.553191, 444.000000)">
                            <mask id="mask-26" fill="white">
                                <use xlink:href="#path-25"></use>
                            </mask>
                            <g id="Clip-10"></g>
                            <polygon id="Fill-9" fill="#FFFFFF" mask="url(#mask-26)" points="0 147 59.6429797 144.627128 107.77389 81.5074537 176.838729 82.9276899 228.432354 10.2404423 331.432411 20.8628901 343.840285 0.939162924 357.447112 2.71208061 357.447112 1.8196777 343.623534 0 331.208839 19.9165943 228.148153 9.1673397 176.518149 81.8165453 107.40708 80.3146771 59.239792 143.401857 0 145.689135"></polygon>
                        </g>
                        <polygon id="Fill-11" fill="#FFFFFF" points="472.620192 983 473.96719 982.528503 473.96719 842.150449 407.088447 785.72328 407.088447 722.722799 493.130197 622.912411 549.753183 619.396325 585.749887 658.596097 693.009119 648.012301 693.009119 646.81342 586.211219 657.226625 550.244716 618 492.589586 621.513716 405.592705 722.289212 405.592705 786.630733 472.620192 843.073698"></polygon>
                        <polygon id="Fill-13" fill="#8AFA0F" points="652.218381 496 653.617021 494.303034 589.22131 409.762606 506.80373 399.747022 471.043052 355.690798 471.043052 332.12956 568.114563 244.126339 568.114563 148.797827 565.806202 148 565.806202 242.40167 468.328267 330.450006 468.328267 356.487043 505.744155 402.459477 588.300993 412.299349"></polygon>
                        <polygon id="Fill-15" fill="#FFFFFF" points="515.441712 392.107131 671.488609 412 700.663142 378.494225 798.054711 394.444541 798.054711 393.366284 700.286966 377.239813 671.091154 410.723469 515.965319 390.767406 482.794961 349.614295 482.794961 334.325942 576.179307 249.181494 576.179307 151.392596 575.0371 151 575.0371 248.332316 481.458967 333.498883 481.458967 350.001362"></polygon>
                        <g id="编组" transform="translate(620.060790, 472.000000)">
                            <mask id="mask-28" fill="white">
                                <use xlink:href="#path-27"></use>
                            </mask>
                            <g id="Clip-18"></g>
                            <polygon id="Fill-17" fill="#FFFFFF" mask="url(#mask-28)" points="0.746389641 376 145.420568 160.191892 145.420568 102.156547 216.054719 1.05881387 274.166701 5.89944501 326.075744 94.3317696 339.939438 93.9922844 339.939438 93.1012348 326.293124 93.4193538 274.415244 4.95221018 215.771972 0 144.623254 101.716561 144.623254 159.800178 0 375.29175"></polygon>
                        </g>
                        <g id="编组" transform="translate(586.504559, 480.000000)">
                            <mask id="mask-30" fill="white">
                                <use xlink:href="#path-29"></use>
                            </mask>
                            <g id="Clip-20"></g>
                            <polygon id="Fill-19" fill="#FFFFFF" mask="url(#mask-30)" points="1.57999717 438 58.8632184 351.092975 100.755088 339.995867 157.765139 250.61789 157.765139 208.987893 293.459504 2.01160835 306.449835 2.99206943 358.101668 90.858172 373.496046 90.3592297 373.496046 88.5749173 358.535259 89.0247573 306.945476 1.08816924 292.948729 0 156.101148 208.281454 156.101148 249.98352 99.9840069 337.776762 58.0285743 348.792297 0 436.640184"></polygon>
                        </g>
                        <g id="编组" transform="translate(0.000000, 69.000000)">
                            <mask id="mask-32" fill="white">
                                <use xlink:href="#path-31"></use>
                            </mask>
                            <g id="Clip-22"></g>
                            <polygon id="Fill-21" fill="#8AFA0F" mask="url(#mask-32)" points="159.568376 881 163.804031 879.910621 163.804031 728.486164 446.443769 439.845819 446.443769 379.946582 144.779684 40.0058192 -0.000228009436 0 -0.000228009436 4.01757876 142.98677 43.1964819 443.601251 380.966392 443.601251 438.52639 159.568376 727.654505"></polygon>
                        </g>
                        <polygon id="Fill-23" fill="#FFFFFF" points="310.37081 278.65284 380.427171 292 411.428571 266.77261 410.374813 265.464717 379.780977 290.309945 311.085941 277.141602 157.410721 100.930453 0 56 0 58.0097093 156.532715 102.508154"></polygon>
                        <polygon id="Fill-25" fill="#FFFFFF" points="304.740951 259.354663 367.659574 272 367.659574 270.424453 305.461842 257.853167 139.31919 67.2088787 139.31919 0.74602131 137.142857 0 137.142857 67.3160158"></polygon>
                        <polygon id="Fill-27" fill="#FFFFFF" points="356.30443 233 357.446809 232.138268 324.710231 192.425284 253.906227 174.552825 159.686487 64.616191 159.686487 7.72849054 157.568389 7 157.568389 64.7186843 253.131258 176.06736 324.009501 193.87517"></polygon>
                        <polygon id="Fill-29" fill="#FFFFFF" points="140.71408 1039 142.87699 1038.3264 142.87699 935.507512 63.769481 887.48109 63.769481 811.283637 187.708895 690.884735 249.467688 685.103792 428.93617 504.155199 428.93617 453.24384 132.956081 123.451763 0 88 0 90.0089411 132.050325 125.065399 427.485143 453.764061 427.485143 503.48239 248.689919 683.457741 186.863724 689.171483 61.3846763 810.860661 61.3846763 888.770576 140.71408 936.801741"></polygon>
                        <g id="编组" transform="translate(608.389058, 623.000000)">
                            <mask id="mask-34" fill="white">
                                <use xlink:href="#path-33"></use>
                            </mask>
                            <g id="Clip-32"></g>
                            <polygon id="Fill-31" fill="#FFFFFF" mask="url(#mask-34)" points="0 314 3.21846458 312.874617 3.21846458 299.854924 31.4769918 256.072395 31.4769918 236.721337 42.464529 219.894295 83.7299777 208.522005 84.1344594 207.882313 142.963486 114.826966 142.963486 72.3309272 153.975972 55.3941116 233.174999 44.6062304 252.263511 12.8412115 351.611018 2.66932932 351.611018 0 251.46362 9.90257999 232.338818 41.6328503 152.981779 52.164855 140.506354 71.2939954 140.506354 113.897439 82.5853323 205.22641 41.2253786 216.479449 28.4188079 236.028733 28.4188079 255.435073 0 299.328166"></polygon>
                        </g>
                        <g id="编组" transform="translate(786.382979, 602.000000)">
                            <mask id="mask-36" fill="white">
                                <use xlink:href="#path-35"></use>
                            </mask>
                            <g id="Clip-34"></g>
                            <polygon id="Fill-33" fill="#FFFFFF" mask="url(#mask-36)" points="34.877846 58 50.3614269 56.044926 82.0751049 3.7220991 121.433564 0.971982818 133.6302 20.3164245 173.617703 16.5197406 173.617703 15.6255164 133.860597 19.3539632 121.67154 0 81.8128769 2.73900791 50.0794938 55.041205 35.1711473 56.9082054 24.015087 41.5961039 0 44.1637254 0 45.2594873 23.7172384 42.6974199"></polygon>
                        </g>
                        <g id="编组" transform="translate(765.957447, 630.000000)">
                            <mask id="mask-38" fill="white">
                                <use xlink:href="#path-37"></use>
                            </mask>
                            <g id="Clip-36"></g>
                            <polygon id="Fill-35" fill="#FFFFFF" mask="url(#mask-38)" points="0 252 0.791808159 251.721763 0.791808159 225.711785 26.6373357 180.900617 26.6373357 128.279004 96.1421801 11.6938679 194.043008 0.891784261 194.043008 0 95.8731927 10.7156797 25.8879594 127.998389 25.8879594 180.662015 0 225.506477"></polygon>
                        </g>
                        <g id="编组" transform="translate(770.334347, 646.000000)">
                            <mask id="mask-40" fill="white">
                                <use xlink:href="#path-39"></use>
                            </mask>
                            <g id="Clip-38"></g>
                            <polygon id="Fill-37" fill="#FFFFFF" mask="url(#mask-40)" points="0 235 0.784200035 234.724613 0.784200035 213.122567 83.062498 69.4552707 83.062498 21.3567301 93.4376608 3.81584973 117.000681 1.00500397 165.346084 73.3637074 189.666107 68.0466824 189.666107 67.1548403 165.568199 72.3958965 117.249993 0 93.1717279 2.84249943 82.4067314 21.0251579 82.4067314 69.1601002 0 212.919192"></polygon>
                        </g>
                        <polygon id="Fill-39" fill="#FFFFFF" points="0 793 74.2141377 782.426228 183.665309 677.542669 237.298047 673.003475 332.644377 578.64065 332.644377 430.433677 269.06319 363.655915 269.06319 311.29686 267.223924 311 267.223924 364.128516 330.962371 430.965651 330.962371 578.006556 236.503387 671.333932 182.812911 675.818504 73.2356266 780.638732 0 790.989265"></polygon>
                        <polygon id="Fill-41" fill="#FFFFFF" points="571.914894 581 659.489246 578.330673 718.921599 501.74365 772.046591 504.058488 816.652233 443.278206 876.485452 450.000078 889.969605 430.228427 889.969605 372.231951 864.862625 326.768127 864.862625 249.441335 863.573312 249 863.573312 327.271833 888.757879 372.787765 888.757879 429.254174 875.966684 447.963937 816.058921 441.094427 771.393187 501.809969 718.194411 499.36802 658.672301 575.872934 571.914894 578.316462"></polygon>
                        <polygon id="Fill-43" fill="#FFFFFF" points="654.319144 531 694.195604 481.645457 765.002735 486.060631 857.87234 362.233151 857.87234 248.222336 857.218902 248 857.218902 361.6781 764.671832 484.9253 693.814495 480.424189 653.617021 530.111446"></polygon>
                        <polygon id="Fill-45" fill="#FFFFFF" points="461.033435 137.613396 475.6231 142 475.6231 127.550056 461.033435 123"></polygon>
                        <polygon id="Fill-47" fill="#FFFFFF" points="461.033435 158.784957 475.6231 163 475.6231 148.379645 461.033435 144"></polygon>
                        <polygon id="Fill-49" fill="#FFFFFF" points="461.033435 178.960428 475.6231 183 475.6231 168.206915 461.033435 164"></polygon>
                        <polygon id="Fill-51" fill="#FFFFFF" points="461.033435 199.141708 475.6231 203 475.6231 188.027653 461.033435 184"></polygon>
                        <polygon id="Fill-53" fill="#FFFFFF" points="461.033435 220.519199 475.6231 224 475.6231 209.643208 461.033435 206"></polygon>
                        <polygon id="Fill-55" fill="#FFFFFF" points="461.033435 240.698216 475.6231 244 475.6231 229.466185 461.033435 226"></polygon>
                        <polygon id="Fill-57" fill="#FFFFFF" points="461.033435 260.881414 475.6231 264 475.6231 249.28427 461.033435 246"></polygon>
                        <polygon id="Fill-59" fill="#FFFFFF" points="911.854103 659.147922 911.854103 649 906.018237 649.777521 906.018237 660"></polygon>
                        <polygon id="Fill-61" fill="#FFFFFF" points="919.148936 658.156266 919.148936 648 913.31307 648.769213 913.31307 659"></polygon>
                        <polygon id="Fill-63" fill="#FFFFFF" points="926.443769 657.164917 926.443769 647 920.607903 647.763122 920.607903 658"></polygon>
                        <polygon id="Fill-65" fill="#FFFFFF" points="933.738602 655.247444 933.738602 646 927.902736 646.685679 927.902736 656"></polygon>
                        <polygon id="Fill-67" fill="#FFFFFF" points="941.033435 654.253882 941.033435 645 935.197568 645.68323 935.197568 655"></polygon>
                        <polygon id="Fill-69" fill="#FFFFFF" points="948.328267 653.261003 948.328267 644 942.492401 644.674669 942.492401 654"></polygon>
                        <polygon id="Fill-71" fill="#FFFFFF" points="955.6231 652.267036 955.6231 643 949.787234 643.667987 949.787234 653"></polygon>
                        <path d="M951.246201,484.778366 C951.246201,487.546426 952.561238,489.883777 954.174166,489.995793 C955.781692,490.107809 957.082067,487.969248 957.082067,485.221697 C957.082067,482.473358 955.781692,480.138374 954.174166,480.005848 C952.561238,479.873321 951.246201,482.009516 951.246201,484.778366" id="Fill-73" fill="#FFFFFF"></path>
                        <path d="M942.492401,484.776357 C942.492401,487.544882 943.807739,489.882435 945.422429,489.995644 C947.030316,490.109632 948.328267,487.972731 948.328267,485.223725 C948.328267,482.475499 947.030316,480.139508 945.422429,480.006 C943.807739,479.871712 942.492401,482.007833 942.492401,484.776357" id="Fill-75" fill="#FFFFFF"></path>
                        <path d="M933.738602,484.774147 C933.738602,487.542861 935.050839,489.881282 936.667267,489.995615 C938.274073,490.109948 939.574468,487.9747 939.574468,485.226844 C939.574468,482.478215 938.274073,480.14134 936.667267,480.006149 C935.050839,479.870185 933.738602,482.005433 933.738602,484.774147" id="Fill-77" fill="#FFFFFF"></path>
                        <path d="M924.984802,484.248351 C924.984802,487.294498 926.298742,489.867287 927.915063,489.995085 C929.521956,490.122043 930.820669,487.773743 930.820669,484.751978 C930.820669,481.729373 929.521956,479.158266 927.915063,479.006925 C926.298742,478.855585 924.984802,481.203044 924.984802,484.248351" id="Fill-79" fill="#FFFFFF"></path>
                        <path d="M916.231003,484.245643 C916.231003,487.291668 917.546148,489.865236 919.159931,489.994995 C920.766621,490.123091 922.066869,487.776604 922.066869,484.753868 C922.066869,481.731965 920.766621,479.159229 919.159931,479.007011 C917.546148,478.854793 916.231003,481.199617 916.231003,484.245643" id="Fill-81" fill="#FFFFFF"></path>
                        <path d="M907.477204,484.242351 C907.477204,487.288581 908.791419,489.864135 910.407633,489.99497 C912.013434,490.123336 913.31307,487.779006 913.31307,484.756639 C913.31307,481.734272 912.013434,479.159541 910.407633,479.007311 C908.791419,478.851791 907.477204,481.196121 907.477204,484.242351" id="Fill-83" fill="#FFFFFF"></path>
                        <path d="M391.059141,959.393376 C386.207312,960.84877 382.24924,965.907362 382.24924,970.68052 C382.24924,975.455247 386.207312,978.087659 391.059141,976.571101 C395.876923,975.066306 399.756839,970.034375 399.756839,965.320029 C399.756839,960.60725 395.876923,957.948961 391.059141,959.393376" id="Fill-85" fill="#FFFFFF"></path>
                        <path d="M391.059141,934.351688 C386.207312,935.72768 382.24924,940.739886 382.24924,945.53931 C382.24924,950.33637 386.207312,953.052891 391.059141,951.615428 C395.876923,950.187422 399.756839,945.197282 399.756839,940.460905 C399.756839,935.722164 395.876923,932.985152 391.059141,934.351688" id="Fill-87" fill="#FFFFFF"></path>
                        <path d="M391.059141,910.31154 C386.207312,911.610086 382.24924,916.57544 382.24924,921.395895 C382.24924,926.217934 386.207312,929.016141 391.059141,927.656627 C395.876923,926.307407 399.756839,921.36264 399.756839,916.604736 C399.756839,911.844458 395.876923,909.02408 391.059141,910.31154" id="Fill-89" fill="#FFFFFF"></path>
                        <path d="M391.059141,886.27408 C386.207312,887.490943 382.24924,892.408499 382.24924,897.251294 C382.24924,902.093293 386.207312,904.975587 391.059141,903.696688 C395.876923,902.428129 399.756839,897.52807 399.756839,892.748902 C399.756839,887.968939 395.876923,885.065171 391.059141,886.27408" id="Fill-91" fill="#FFFFFF"></path>
                        <path d="M391.059141,862.23824 C386.207312,863.374 382.24924,868.242115 382.24924,873.104638 C382.24924,877.968758 386.207312,880.931159 391.059141,879.734698 C395.876923,878.547021 399.756839,873.697278 399.756839,868.895456 C399.756839,864.095232 395.876923,861.110467 391.059141,862.23824" id="Fill-93" fill="#FFFFFF"></path>
                        <path d="M391.059141,838.204634 C386.207312,839.256677 382.24924,844.073464 382.24924,848.955202 C382.24924,853.836941 386.207312,856.884819 391.059141,855.770231 C395.876923,854.662057 399.756839,849.863713 399.756839,845.042114 C399.756839,840.223723 395.876923,837.159005 391.059141,838.204634" id="Fill-95" fill="#FFFFFF"></path>
                        <path d="M287.487281,534.000441 C281.826415,533.9516 277.203647,537.968785 277.203647,542.97424 C277.203647,547.978932 281.826415,552.019011 287.487281,552 C293.105315,551.981617 297.629179,547.964432 297.629179,543.026897 C297.629179,538.090887 293.105315,534.049282 287.487281,534.000441" id="Fill-97" fill="#FFFFFF"></path>
                        <path d="M287.487281,507.003918 C281.826415,506.858194 277.203647,510.795791 277.203647,515.799995 C277.203647,520.803436 281.826415,524.921852 287.487281,524.998911 C293.105315,525.075206 297.629179,521.134557 297.629179,516.199019 C297.629179,511.265006 293.105315,507.148116 287.487281,507.003918" id="Fill-99" fill="#FFFFFF"></path>
                        <path d="M287.487281,482.010703 C281.826415,481.76975 277.203647,485.626515 277.203647,490.627803 C277.203647,495.628329 281.826415,499.822885 287.487281,499.994449 C293.105315,500.166776 297.629179,496.305436 297.629179,491.372773 C297.629179,486.441635 293.105315,482.249368 287.487281,482.010703" id="Fill-101" fill="#FFFFFF"></path>
                        <path d="M287.487281,456.020875 C281.826415,455.684195 277.203647,459.46004 277.203647,464.455397 C277.203647,469.450755 281.826415,473.719432 287.487281,473.986796 C293.105315,474.252636 297.629179,470.472221 297.629179,465.544657 C297.629179,460.617853 293.105315,456.354508 287.487281,456.020875" id="Fill-103" fill="#FFFFFF"></path>
                        <path d="M287.487281,431.034365 C281.826415,430.602297 277.203647,434.29465 277.203647,439.283206 C277.203647,444.271761 281.826415,448.612216 287.487281,448.975822 C293.105315,449.335625 297.629179,445.637187 297.629179,440.717092 C297.629179,435.796237 293.105315,431.461868 287.487281,431.034365" id="Fill-105" fill="#FFFFFF"></path>
                        <path d="M287.487281,404.051247 C281.826415,403.523473 277.203647,407.132079 277.203647,412.112897 C277.203647,417.092196 281.826415,421.503473 287.487281,421.961384 C293.105315,422.416256 297.629179,418.800057 297.629179,413.887584 C297.629179,408.97587 293.105315,404.572946 287.487281,404.051247" id="Fill-107" fill="#FFFFFF"></path>
                        <path d="M595.258359,391.429528 C595.258359,394.183157 597.228837,396.663188 599.651103,396.968879 C602.063619,397.273768 604.012158,395.304025 604.012158,392.570455 C604.012158,389.837687 602.063619,387.360063 599.651103,387.035116 C597.228837,386.710169 595.258359,388.676702 595.258359,391.429528" id="Fill-109" fill="#8AFA0F"></path>
                        <path d="M583.586626,389.423894 C583.586626,392.177386 585.557485,394.660055 587.979054,394.968205 C590.391067,395.276355 592.340426,393.309915 592.340426,390.576278 C592.340426,387.84423 590.391067,385.363148 587.979054,385.035938 C585.557485,384.707139 583.586626,386.671196 583.586626,389.423894" id="Fill-111" fill="#8AFA0F"></path>
                        <path d="M572.914894,387.418287 C572.914894,390.170607 574.885669,392.656498 577.308177,392.967725 C579.720544,393.278167 581.668693,391.314133 581.668693,388.58146 C581.668693,385.849574 579.720544,383.367613 577.308177,383.036737 C574.885669,382.70429 572.914894,384.66518 572.914894,387.418287" id="Fill-113" fill="#8AFA0F"></path>
                        <path d="M561.702128,386.411622 C561.702128,389.164782 563.673739,391.651959 566.095457,391.966939 C568.508006,392.281141 570.455927,390.320487 570.455927,387.588325 C570.455927,384.856164 568.508006,382.372098 566.095457,382.037674 C563.673739,381.700918 561.702128,383.659239 561.702128,386.411622" id="Fill-115" fill="#8AFA0F"></path>
                        <path d="M549.112462,384.405453 C549.112462,387.158117 551.411557,389.647597 554.238928,389.966189 C557.054075,390.284011 559.325228,388.325518 559.325228,385.594401 C559.325228,382.863284 557.054075,380.375344 554.238928,380.038283 C551.411557,379.698913 549.112462,381.653559 549.112462,384.405453" id="Fill-117" fill="#8AFA0F"></path>
                        <path d="M535.440729,382.839784 C535.440729,385.866296 537.741102,388.608077 540.567201,388.962315 C543.380478,389.31404 545.653495,387.164329 545.653495,384.160429 C545.653495,381.156528 543.380478,378.418096 540.567201,378.042923 C537.741102,377.666074 535.440729,379.812435 535.440729,382.839784" id="Fill-119" fill="#8AFA0F"></path>
                        <path d="M681.337386,612.711354 C681.337386,615.202723 682.978704,617.118859 684.997816,616.994251 C687.008253,616.869644 688.632219,614.762286 688.632219,612.288942 C688.632219,609.814815 687.008253,607.89476 684.997816,608.004478 C682.978704,608.111844 681.337386,610.218418 681.337386,612.711354" id="Fill-121" fill="#8AFA0F"></path>
                        <path d="M671.12462,612.23671 C671.12462,615.003625 672.766596,617.134011 674.784036,616.993423 C676.794508,616.852835 678.419453,614.511135 678.419453,611.763195 C678.419453,609.015255 676.794508,606.88573 674.784036,607.004756 C672.766596,607.126369 671.12462,609.469795 671.12462,612.23671" id="Fill-123" fill="#8AFA0F"></path>
                        <path d="M660.911854,612.238913 C660.911854,615.007508 662.553438,617.134369 664.571045,616.993376 C666.583334,616.852383 668.206687,614.509332 668.206687,611.758682 C668.206687,609.012304 666.583334,606.882025 664.571045,607.005073 C662.553438,607.128122 660.911854,609.470319 660.911854,612.238913" id="Fill-125" fill="#8AFA0F"></path>
                        <path d="M649.240122,612.240382 C649.240122,615.009468 650.881235,617.136213 652.900208,616.993189 C654.910237,616.850165 656.534954,614.506767 656.534954,611.757992 C656.534954,609.010064 654.910237,606.88078 652.900208,607.005185 C650.881235,607.127899 649.240122,609.472143 649.240122,612.240382" id="Fill-127" fill="#8AFA0F"></path>
                        <path d="M639.027356,612.243392 C639.027356,615.011252 640.668492,617.137217 642.687565,616.993084 C644.697866,616.848112 646.322188,614.504272 646.322188,611.757361 C646.322188,609.009613 644.697866,606.881134 642.687565,607.005156 C640.668492,607.130854 639.027356,609.475532 639.027356,612.243392" id="Fill-129" fill="#8AFA0F"></path>
                        <path d="M627.355623,612.245754 C627.355623,615.013628 629.325572,617.137462 631.747147,616.993051 C634.16098,616.84781 636.109422,614.50238 636.109422,611.753596 C636.109422,609.005641 634.16098,606.877657 631.747147,607.005469 C629.325572,607.129961 627.355623,609.477051 627.355623,612.245754" id="Fill-131" fill="#8AFA0F"></path>
                        <path d="M314.437114,538.000139 C310.801445,537.977734 307.841945,540.657844 307.841945,543.9877 C307.841945,547.316011 310.801445,550.007709 314.437114,550 C318.054195,549.992258 320.972644,547.310603 320.972644,544.012423 C320.972644,540.714243 318.054195,538.022545 314.437114,538.000139" id="Fill-133" fill="#FFFFFF"></path>
                        <path d="M314.437114,521.001141 C310.801445,520.937027 307.841945,523.582684 307.841945,526.91119 C307.841945,530.238924 310.801445,532.964916 314.437114,532.999676 C318.054195,533.033664 320.972644,530.386463 320.972644,527.088082 C320.972644,523.790474 318.054195,521.064482 314.437114,521.001141" id="Fill-135" fill="#FFFFFF"></path>
                        <path d="M314.437114,504.003106 C310.801445,503.897308 307.841945,506.507505 307.841945,509.83512 C307.841945,513.161962 310.801445,515.922747 314.437114,515.998428 C318.054195,516.073336 320.972644,513.462367 320.972644,510.164869 C320.972644,506.867372 318.054195,504.108904 314.437114,504.003106" id="Fill-137" fill="#FFFFFF"></path>
                        <path d="M314.437114,487.00609 C310.801445,486.857883 307.841945,489.43297 307.841945,492.759897 C307.841945,496.085279 310.801445,498.878045 314.437114,498.996147 C318.054195,499.113477 320.972644,496.536846 320.972644,493.241568 C320.972644,489.945518 318.054195,487.153524 314.437114,487.00609" id="Fill-139" fill="#FFFFFF"></path>
                        <path d="M314.437114,470.010059 C310.801445,469.819501 307.841945,472.359251 307.841945,475.684381 C307.841945,479.007967 310.801445,481.83317 314.437114,481.992869 C318.054195,482.152568 320.972644,479.610503 320.972644,476.316233 C320.972644,473.021963 318.054195,470.199075 314.437114,470.010059" id="Fill-141" fill="#FFFFFF"></path>
                        <path d="M314.437114,453.014914 C310.801445,452.78287 307.841945,455.286014 307.841945,458.607864 C307.841945,461.929715 310.801445,464.787477 314.437114,464.988685 C318.054195,465.189892 320.972644,462.683664 320.972644,459.39188 C320.972644,456.100095 318.054195,453.245416 314.437114,453.014914" id="Fill-143" fill="#FFFFFF"></path>
                    </g>
                </g>
            </g>
        </g>
    </g>
</svg>